<?xml version="1.0" encoding="UTF-8" standalone="no"?>
<!DOCTYPE svg PUBLIC "-//W3C//DTD SVG 1.1//EN"
 "http://www.w3.org/Graphics/SVG/1.1/DTD/svg11.dtd">
<!-- Generated by graphviz version 2.43.0 (0)
 -->
<!-- Title: G Pages: 1 -->
<svg width="419pt" height="542pt"
 viewBox="0.00 0.00 418.98 542.42" xmlns="http://www.w3.org/2000/svg" xmlns:xlink="http://www.w3.org/1999/xlink">
<g id="graph0" class="graph" transform="scale(1 1) rotate(0) translate(4 538.42)">
<title>G</title>
<polygon fill="white" stroke="transparent" points="-4,4 -4,-538.42 414.98,-538.42 414.98,4 -4,4"/>
<text text-anchor="middle" x="205.49" y="-7.8" font-family="Times,serif" font-size="14.00">Pauli Propagation example</text>
<!-- 1 -->
<g id="node1" class="node">
<title>1</title>
<ellipse fill="none" stroke="black" cx="28.99" cy="-142.12" rx="28.98" ry="24.08"/>
<text text-anchor="middle" x="28.99" y="-145.52" font-family="Arial" font-size="12.00">X</text>
<text text-anchor="middle" x="28.99" y="-132.52" font-family="Arial" font-size="12.00">(RX)</text>
</g>
<!-- 22 -->
<g id="node22" class="node">
<title>22</title>
<ellipse fill="none" stroke="black" cx="28.99" cy="-47.04" rx="27" ry="24.08"/>
<text text-anchor="middle" x="28.99" y="-50.44" font-family="Arial" font-size="12.00">X</text>
<text text-anchor="middle" x="28.99" y="-37.44" font-family="Arial" font-size="12.00">(X)</text>
</g>
<!-- 1&#45;&gt;22 -->
<g id="edge23" class="edge">
<title>1&#45;&gt;22</title>
<path fill="none" stroke="black" d="M28.99,-117.64C28.99,-106.64 28.99,-93.34 28.99,-81.33"/>
<polygon fill="black" stroke="black" points="32.49,-81.2 28.99,-71.2 25.49,-81.2 32.49,-81.2"/>
<text text-anchor="middle" x="35.99" y="-92.08" font-family="Arial" font-size="10.00">1.0</text>
</g>
<!-- 2 -->
<g id="node2" class="node">
<title>2</title>
<ellipse fill="none" stroke="black" cx="151.99" cy="-516.42" rx="27" ry="18"/>
<text text-anchor="middle" x="151.99" y="-513.32" font-family="Arial" font-size="12.00">Y</text>
</g>
<!-- 10 -->
<g id="node10" class="node">
<title>10</title>
<ellipse fill="none" stroke="black" cx="151.99" cy="-427.37" rx="27" ry="24.08"/>
<text text-anchor="middle" x="151.99" y="-430.77" font-family="Arial" font-size="12.00">Y</text>
<text text-anchor="middle" x="151.99" y="-417.77" font-family="Arial" font-size="12.00">(Z)</text>
</g>
<!-- 2&#45;&gt;10 -->
<g id="edge6" class="edge">
<title>2&#45;&gt;10</title>
<path fill="none" stroke="black" d="M151.99,-498.22C151.99,-487.77 151.99,-474.07 151.99,-461.58"/>
<polygon fill="black" stroke="black" points="155.49,-461.47 151.99,-451.47 148.49,-461.47 155.49,-461.47"/>
<text text-anchor="middle" x="160.49" y="-472.42" font-family="Arial" font-size="10.00">&#45;1.0</text>
</g>
<!-- 3 -->
<g id="node3" class="node">
<title>3</title>
<ellipse fill="none" stroke="black" cx="294.99" cy="-427.37" rx="27" ry="24.08"/>
<text text-anchor="middle" x="294.99" y="-430.77" font-family="Arial" font-size="12.00">X</text>
<text text-anchor="middle" x="294.99" y="-417.77" font-family="Arial" font-size="12.00">(Z)</text>
</g>
<!-- 7 -->
<g id="node7" class="node">
<title>7</title>
<ellipse fill="none" stroke="black" cx="332.99" cy="-332.29" rx="28.98" ry="24.08"/>
<text text-anchor="middle" x="332.99" y="-335.69" font-family="Arial" font-size="12.00">Y</text>
<text text-anchor="middle" x="332.99" y="-322.69" font-family="Arial" font-size="12.00">(RZ)</text>
</g>
<!-- 3&#45;&gt;7 -->
<g id="edge8" class="edge">
<title>3&#45;&gt;7</title>
<path fill="none" stroke="black" d="M304,-404.32C308.82,-392.49 314.85,-377.72 320.16,-364.71"/>
<polygon fill="black" stroke="black" points="323.51,-365.77 324.05,-355.19 317.03,-363.13 323.51,-365.77"/>
<text text-anchor="middle" x="323.49" y="-377.33" font-family="Arial" font-size="10.00">&#45;0.5</text>
</g>
<!-- 13 -->
<g id="node13" class="node">
<title>13</title>
<ellipse fill="none" stroke="black" cx="256.99" cy="-332.29" rx="28.98" ry="24.08"/>
<text text-anchor="middle" x="256.99" y="-335.69" font-family="Arial" font-size="12.00">X</text>
<text text-anchor="middle" x="256.99" y="-322.69" font-family="Arial" font-size="12.00">(RZ)</text>
</g>
<!-- 3&#45;&gt;13 -->
<g id="edge10" class="edge">
<title>3&#45;&gt;13</title>
<path fill="none" stroke="black" d="M285.99,-404.32C281.16,-392.49 275.13,-377.72 269.82,-364.71"/>
<polygon fill="black" stroke="black" points="272.95,-363.13 265.93,-355.19 266.47,-365.77 272.95,-363.13"/>
<text text-anchor="middle" x="289.49" y="-377.33" font-family="Arial" font-size="10.00">0.866</text>
</g>
<!-- 4 -->
<g id="node4" class="node">
<title>4</title>
<ellipse fill="none" stroke="black" cx="28.99" cy="-516.42" rx="27" ry="18"/>
<text text-anchor="middle" x="28.99" y="-513.32" font-family="Arial" font-size="12.00">Z</text>
</g>
<!-- 12 -->
<g id="node12" class="node">
<title>12</title>
<ellipse fill="none" stroke="black" cx="28.99" cy="-427.37" rx="27" ry="24.08"/>
<text text-anchor="middle" x="28.99" y="-430.77" font-family="Arial" font-size="12.00">Z</text>
<text text-anchor="middle" x="28.99" y="-417.77" font-family="Arial" font-size="12.00">(Z)</text>
</g>
<!-- 4&#45;&gt;12 -->
<g id="edge22" class="edge">
<title>4&#45;&gt;12</title>
<path fill="none" stroke="black" d="M28.99,-498.22C28.99,-487.77 28.99,-474.07 28.99,-461.58"/>
<polygon fill="black" stroke="black" points="32.49,-461.47 28.99,-451.47 25.49,-461.47 32.49,-461.47"/>
<text text-anchor="middle" x="35.99" y="-472.42" font-family="Arial" font-size="10.00">1.0</text>
</g>
<!-- 5 -->
<g id="node5" class="node">
<title>5</title>
<ellipse fill="none" stroke="black" cx="104.99" cy="-332.29" rx="28.98" ry="24.08"/>
<text text-anchor="middle" x="104.99" y="-335.69" font-family="Arial" font-size="12.00">X</text>
<text text-anchor="middle" x="104.99" y="-322.69" font-family="Arial" font-size="12.00">(RZ)</text>
</g>
<!-- 21 -->
<g id="node21" class="node">
<title>21</title>
<ellipse fill="none" stroke="black" cx="177.99" cy="-237.21" rx="27" ry="24.08"/>
<text text-anchor="middle" x="177.99" y="-240.61" font-family="Arial" font-size="12.00">Z</text>
<text text-anchor="middle" x="177.99" y="-227.61" font-family="Arial" font-size="12.00">(H)</text>
</g>
<!-- 5&#45;&gt;21 -->
<g id="edge18" class="edge">
<title>5&#45;&gt;21</title>
<path fill="none" stroke="black" d="M120.47,-311.55C130.97,-298.17 144.98,-280.3 156.55,-265.55"/>
<polygon fill="black" stroke="black" points="159.61,-267.31 163.03,-257.28 154.11,-262.99 159.61,-267.31"/>
<text text-anchor="middle" x="150.99" y="-282.25" font-family="Arial" font-size="10.00">1.0</text>
</g>
<!-- 6 -->
<g id="node6" class="node">
<title>6</title>
<ellipse fill="none" stroke="black" cx="153.99" cy="-142.12" rx="28.98" ry="24.08"/>
<text text-anchor="middle" x="153.99" y="-145.52" font-family="Arial" font-size="12.00">Y</text>
<text text-anchor="middle" x="153.99" y="-132.52" font-family="Arial" font-size="12.00">(RX)</text>
</g>
<!-- 18 -->
<g id="node18" class="node">
<title>18</title>
<ellipse fill="none" stroke="black" cx="173.99" cy="-47.04" rx="27" ry="24.08"/>
<text text-anchor="middle" x="173.99" y="-50.44" font-family="Arial" font-size="12.00">Y</text>
<text text-anchor="middle" x="173.99" y="-37.44" font-family="Arial" font-size="12.00">(X)</text>
</g>
<!-- 6&#45;&gt;18 -->
<g id="edge21" class="edge">
<title>6&#45;&gt;18</title>
<path fill="none" stroke="black" d="M158.94,-118.12C161.36,-106.84 164.32,-93.07 166.97,-80.73"/>
<polygon fill="black" stroke="black" points="170.43,-81.3 169.1,-70.79 163.58,-79.83 170.43,-81.3"/>
<text text-anchor="middle" x="173.49" y="-92.08" font-family="Arial" font-size="10.00">&#45;1.0</text>
</g>
<!-- 16 -->
<g id="node16" class="node">
<title>16</title>
<ellipse fill="none" stroke="black" cx="312.99" cy="-237.21" rx="27" ry="24.08"/>
<text text-anchor="middle" x="312.99" y="-240.61" font-family="Arial" font-size="12.00">Y</text>
<text text-anchor="middle" x="312.99" y="-227.61" font-family="Arial" font-size="12.00">(H)</text>
</g>
<!-- 7&#45;&gt;16 -->
<g id="edge4" class="edge">
<title>7&#45;&gt;16</title>
<path fill="none" stroke="black" d="M328.05,-308.28C325.63,-297.01 322.67,-283.24 320.01,-270.9"/>
<polygon fill="black" stroke="black" points="323.4,-269.99 317.88,-260.95 316.56,-271.46 323.4,-269.99"/>
<text text-anchor="middle" x="331.49" y="-282.25" font-family="Arial" font-size="10.00">&#45;1.0</text>
</g>
<!-- 8 -->
<g id="node8" class="node">
<title>8</title>
<ellipse fill="none" stroke="black" cx="28.99" cy="-332.29" rx="28.98" ry="24.08"/>
<text text-anchor="middle" x="28.99" y="-335.69" font-family="Arial" font-size="12.00">Z</text>
<text text-anchor="middle" x="28.99" y="-322.69" font-family="Arial" font-size="12.00">(RZ)</text>
</g>
<!-- 11 -->
<g id="node11" class="node">
<title>11</title>
<ellipse fill="none" stroke="black" cx="28.99" cy="-237.21" rx="27" ry="24.08"/>
<text text-anchor="middle" x="28.99" y="-240.61" font-family="Arial" font-size="12.00">X</text>
<text text-anchor="middle" x="28.99" y="-227.61" font-family="Arial" font-size="12.00">(H)</text>
</g>
<!-- 8&#45;&gt;11 -->
<g id="edge14" class="edge">
<title>8&#45;&gt;11</title>
<path fill="none" stroke="black" d="M28.99,-307.8C28.99,-296.81 28.99,-283.51 28.99,-271.5"/>
<polygon fill="black" stroke="black" points="32.49,-271.37 28.99,-261.37 25.49,-271.37 32.49,-271.37"/>
<text text-anchor="middle" x="35.99" y="-282.25" font-family="Arial" font-size="10.00">1.0</text>
</g>
<!-- 9 -->
<g id="node9" class="node">
<title>9</title>
<ellipse fill="none" stroke="black" cx="278.99" cy="-47.04" rx="27" ry="24.08"/>
<text text-anchor="middle" x="278.99" y="-50.44" font-family="Arial" font-size="12.00">Z</text>
<text text-anchor="middle" x="278.99" y="-37.44" font-family="Arial" font-size="12.00">(X)</text>
</g>
<!-- 10&#45;&gt;5 -->
<g id="edge13" class="edge">
<title>10&#45;&gt;5</title>
<path fill="none" stroke="black" d="M141.33,-405.25C135.12,-392.96 127.19,-377.26 120.33,-363.66"/>
<polygon fill="black" stroke="black" points="123.41,-362 115.78,-354.65 117.16,-365.16 123.41,-362"/>
<text text-anchor="middle" x="136.99" y="-377.33" font-family="Arial" font-size="10.00">0.5</text>
</g>
<!-- 20 -->
<g id="node20" class="node">
<title>20</title>
<ellipse fill="none" stroke="black" cx="180.99" cy="-332.29" rx="28.98" ry="24.08"/>
<text text-anchor="middle" x="180.99" y="-335.69" font-family="Arial" font-size="12.00">Y</text>
<text text-anchor="middle" x="180.99" y="-322.69" font-family="Arial" font-size="12.00">(RZ)</text>
</g>
<!-- 10&#45;&gt;20 -->
<g id="edge7" class="edge">
<title>10&#45;&gt;20</title>
<path fill="none" stroke="black" d="M159.01,-403.84C162.58,-392.38 166.99,-378.24 170.91,-365.64"/>
<polygon fill="black" stroke="black" points="174.3,-366.53 173.94,-355.94 167.62,-364.45 174.3,-366.53"/>
<text text-anchor="middle" x="180.49" y="-377.33" font-family="Arial" font-size="10.00">0.866</text>
</g>
<!-- 11&#45;&gt;1 -->
<g id="edge12" class="edge">
<title>11&#45;&gt;1</title>
<path fill="none" stroke="black" d="M28.99,-212.72C28.99,-201.72 28.99,-188.43 28.99,-176.42"/>
<polygon fill="black" stroke="black" points="32.49,-176.28 28.99,-166.28 25.49,-176.28 32.49,-176.28"/>
<text text-anchor="middle" x="31.99" y="-187.17" font-family="Arial" font-size="10.00">1</text>
</g>
<!-- 12&#45;&gt;8 -->
<g id="edge11" class="edge">
<title>12&#45;&gt;8</title>
<path fill="none" stroke="black" d="M28.99,-402.89C28.99,-391.89 28.99,-378.59 28.99,-366.58"/>
<polygon fill="black" stroke="black" points="32.49,-366.45 28.99,-356.45 25.49,-366.45 32.49,-366.45"/>
<text text-anchor="middle" x="31.99" y="-377.33" font-family="Arial" font-size="10.00">1</text>
</g>
<!-- 13&#45;&gt;21 -->
<g id="edge19" class="edge">
<title>13&#45;&gt;21</title>
<path fill="none" stroke="black" d="M240.62,-312C229.03,-298.35 213.33,-279.85 200.55,-264.79"/>
<polygon fill="black" stroke="black" points="202.94,-262.19 193.8,-256.84 197.6,-266.72 202.94,-262.19"/>
<text text-anchor="middle" x="225.99" y="-282.25" font-family="Arial" font-size="10.00">1.0</text>
</g>
<!-- 14 -->
<g id="node14" class="node">
<title>14</title>
<ellipse fill="none" stroke="black" cx="381.99" cy="-142.12" rx="28.98" ry="24.08"/>
<text text-anchor="middle" x="381.99" y="-145.52" font-family="Arial" font-size="12.00">Z</text>
<text text-anchor="middle" x="381.99" y="-132.52" font-family="Arial" font-size="12.00">(RX)</text>
</g>
<!-- 14&#45;&gt;9 -->
<g id="edge2" class="edge">
<title>14&#45;&gt;9</title>
<path fill="none" stroke="black" d="M362.62,-123.62C346.45,-109 323.24,-88.03 305.37,-71.88"/>
<polygon fill="black" stroke="black" points="307.35,-68.95 297.58,-64.84 302.66,-74.15 307.35,-68.95"/>
<text text-anchor="middle" x="341.49" y="-92.08" font-family="Arial" font-size="10.00">&#45;1.0</text>
</g>
<!-- 15 -->
<g id="node15" class="node">
<title>15</title>
<ellipse fill="none" stroke="black" cx="305.99" cy="-142.12" rx="28.98" ry="24.08"/>
<text text-anchor="middle" x="305.99" y="-145.52" font-family="Arial" font-size="12.00">Y</text>
<text text-anchor="middle" x="305.99" y="-132.52" font-family="Arial" font-size="12.00">(RX)</text>
</g>
<!-- 15&#45;&gt;18 -->
<g id="edge5" class="edge">
<title>15&#45;&gt;18</title>
<path fill="none" stroke="black" d="M296.88,-119.11C291.73,-108.86 284.4,-97.17 274.99,-89.08 264.6,-80.15 233.66,-68.2 208.73,-59.49"/>
<polygon fill="black" stroke="black" points="209.78,-56.15 199.19,-56.21 207.51,-62.77 209.78,-56.15"/>
<text text-anchor="middle" x="293.49" y="-92.08" font-family="Arial" font-size="10.00">&#45;1.0</text>
</g>
<!-- 16&#45;&gt;14 -->
<g id="edge17" class="edge">
<title>16&#45;&gt;14</title>
<path fill="none" stroke="black" d="M327.62,-216.47C337.35,-203.35 350.26,-185.93 361.07,-171.36"/>
<polygon fill="black" stroke="black" points="364,-173.28 367.14,-163.16 358.37,-169.11 364,-173.28"/>
<text text-anchor="middle" x="362.99" y="-187.17" font-family="Arial" font-size="10.00">&#45;0.707</text>
</g>
<!-- 16&#45;&gt;15 -->
<g id="edge1" class="edge">
<title>16&#45;&gt;15</title>
<path fill="none" stroke="black" d="M311.26,-213.2C310.43,-202.12 309.41,-188.63 308.5,-176.46"/>
<polygon fill="black" stroke="black" points="311.97,-175.9 307.73,-166.19 304.99,-176.43 311.97,-175.9"/>
<text text-anchor="middle" x="321.49" y="-187.17" font-family="Arial" font-size="10.00">0.707</text>
</g>
<!-- 17 -->
<g id="node17" class="node">
<title>17</title>
<ellipse fill="none" stroke="black" cx="229.99" cy="-142.12" rx="28.98" ry="24.08"/>
<text text-anchor="middle" x="229.99" y="-145.52" font-family="Arial" font-size="12.00">Z</text>
<text text-anchor="middle" x="229.99" y="-132.52" font-family="Arial" font-size="12.00">(RX)</text>
</g>
<!-- 17&#45;&gt;9 -->
<g id="edge20" class="edge">
<title>17&#45;&gt;9</title>
<path fill="none" stroke="black" d="M241.36,-119.54C247.83,-107.23 256.05,-91.62 263.15,-78.13"/>
<polygon fill="black" stroke="black" points="266.3,-79.67 267.86,-69.19 260.1,-76.41 266.3,-79.67"/>
<text text-anchor="middle" x="263.49" y="-92.08" font-family="Arial" font-size="10.00">&#45;1.0</text>
</g>
<!-- 19 -->
<g id="node19" class="node">
<title>19</title>
<ellipse fill="none" stroke="black" cx="294.99" cy="-516.42" rx="27" ry="18"/>
<text text-anchor="middle" x="294.99" y="-513.32" font-family="Arial" font-size="12.00">X</text>
</g>
<!-- 19&#45;&gt;3 -->
<g id="edge16" class="edge">
<title>19&#45;&gt;3</title>
<path fill="none" stroke="black" d="M294.99,-498.22C294.99,-487.77 294.99,-474.07 294.99,-461.58"/>
<polygon fill="black" stroke="black" points="298.49,-461.47 294.99,-451.47 291.49,-461.47 298.49,-461.47"/>
<text text-anchor="middle" x="303.49" y="-472.42" font-family="Arial" font-size="10.00">&#45;1.0</text>
</g>
<!-- 20&#45;&gt;16 -->
<g id="edge9" class="edge">
<title>20&#45;&gt;16</title>
<path fill="none" stroke="black" d="M181.93,-308.24C183.46,-298.25 186.82,-287.08 193.99,-279.25 215.04,-256.28 249.55,-246.16 276.01,-241.71"/>
<polygon fill="black" stroke="black" points="276.68,-245.15 286.06,-240.22 275.66,-238.22 276.68,-245.15"/>
<text text-anchor="middle" x="202.49" y="-282.25" font-family="Arial" font-size="10.00">&#45;1.0</text>
</g>
<!-- 21&#45;&gt;6 -->
<g id="edge3" class="edge">
<title>21&#45;&gt;6</title>
<path fill="none" stroke="black" d="M172.18,-213.68C169.23,-202.21 165.58,-188.07 162.33,-175.47"/>
<polygon fill="black" stroke="black" points="165.72,-174.58 159.83,-165.77 158.94,-176.33 165.72,-174.58"/>
<text text-anchor="middle" x="179.49" y="-187.17" font-family="Arial" font-size="10.00">0.707</text>
</g>
<!-- 21&#45;&gt;17 -->
<g id="edge15" class="edge">
<title>21&#45;&gt;17</title>
<path fill="none" stroke="black" d="M189.79,-215.09C196.71,-202.71 205.55,-186.87 213.19,-173.21"/>
<polygon fill="black" stroke="black" points="216.42,-174.6 218.24,-164.16 210.31,-171.19 216.42,-174.6"/>
<text text-anchor="middle" x="217.49" y="-187.17" font-family="Arial" font-size="10.00">0.707</text>
</g>
</g>
</svg>
