<?xml version="1.0" encoding="utf-8"?>
<svg xmlns="http://www.w3.org/2000/svg" xmlns:xlink="http://www.w3.org/1999/xlink" width="550" height="400" viewBox="0 0 2200 1600">
<defs>
  <clipPath id="clip420">
    <rect x="0" y="0" width="2200" height="1600"/>
  </clipPath>
</defs>
<path clip-path="url(#clip420)" d="M0 1600 L2200 1600 L2200 0 L0 0  Z" fill="#ffffff" fill-rule="evenodd" fill-opacity="1"/>
<defs>
  <clipPath id="clip421">
    <rect x="179" y="455" width="1982" height="1011"/>
  </clipPath>
</defs>
<path clip-path="url(#clip420)" d="M234.709 1445.6 L2152.76 1445.6 L2152.76 128.97 L234.709 128.97  Z" fill="#ffffff" fill-rule="evenodd" fill-opacity="1"/>
<defs>
  <clipPath id="clip422">
    <rect x="234" y="128" width="1919" height="1318"/>
  </clipPath>
</defs>
<polyline clip-path="url(#clip422)" style="stroke:#000000; stroke-linecap:round; stroke-linejoin:round; stroke-width:2; stroke-opacity:0.1; fill:none" points="584.07,1445.6 584.07,128.97 "/>
<polyline clip-path="url(#clip422)" style="stroke:#000000; stroke-linecap:round; stroke-linejoin:round; stroke-width:2; stroke-opacity:0.1; fill:none" points="1193.73,1445.6 1193.73,128.97 "/>
<polyline clip-path="url(#clip422)" style="stroke:#000000; stroke-linecap:round; stroke-linejoin:round; stroke-width:2; stroke-opacity:0.1; fill:none" points="1803.39,1445.6 1803.39,128.97 "/>
<polyline clip-path="url(#clip422)" style="stroke:#000000; stroke-linecap:round; stroke-linejoin:round; stroke-width:2; stroke-opacity:0.1; fill:none" points="234.709,1445.6 2152.76,1445.6 "/>
<polyline clip-path="url(#clip422)" style="stroke:#000000; stroke-linecap:round; stroke-linejoin:round; stroke-width:2; stroke-opacity:0.1; fill:none" points="234.709,1153.36 2152.76,1153.36 "/>
<polyline clip-path="url(#clip422)" style="stroke:#000000; stroke-linecap:round; stroke-linejoin:round; stroke-width:2; stroke-opacity:0.1; fill:none" points="234.709,861.11 2152.76,861.11 "/>
<polyline clip-path="url(#clip422)" style="stroke:#000000; stroke-linecap:round; stroke-linejoin:round; stroke-width:2; stroke-opacity:0.1; fill:none" points="234.709,568.863 2152.76,568.863 "/>
<polyline clip-path="url(#clip422)" style="stroke:#000000; stroke-linecap:round; stroke-linejoin:round; stroke-width:2; stroke-opacity:0.1; fill:none" points="234.709,276.616 2152.76,276.616 "/>
<polyline clip-path="url(#clip420)" style="stroke:#000000; stroke-linecap:round; stroke-linejoin:round; stroke-width:4; stroke-opacity:1; fill:none" points="234.709,1445.6 2152.76,1445.6 "/>
<polyline clip-path="url(#clip420)" style="stroke:#000000; stroke-linecap:round; stroke-linejoin:round; stroke-width:4; stroke-opacity:1; fill:none" points="584.07,1445.6 584.07,1426.71 "/>
<polyline clip-path="url(#clip420)" style="stroke:#000000; stroke-linecap:round; stroke-linejoin:round; stroke-width:4; stroke-opacity:1; fill:none" points="1193.73,1445.6 1193.73,1426.71 "/>
<polyline clip-path="url(#clip420)" style="stroke:#000000; stroke-linecap:round; stroke-linejoin:round; stroke-width:4; stroke-opacity:1; fill:none" points="1803.39,1445.6 1803.39,1426.71 "/>
<path clip-path="url(#clip420)" d="M462.786 1502.52 L462.786 1516.27 L458.504 1516.27 L458.504 1480.48 L462.786 1480.48 L462.786 1484.41 Q464.129 1482.1 466.166 1480.99 Q468.226 1479.85 471.073 1479.85 Q475.795 1479.85 478.735 1483.6 Q481.698 1487.35 481.698 1493.46 Q481.698 1499.58 478.735 1503.33 Q475.795 1507.08 471.073 1507.08 Q468.226 1507.08 466.166 1505.96 Q464.129 1504.83 462.786 1502.52 M477.277 1493.46 Q477.277 1488.77 475.332 1486.1 Q473.411 1483.42 470.032 1483.42 Q466.652 1483.42 464.707 1486.1 Q462.786 1488.77 462.786 1493.46 Q462.786 1498.16 464.707 1500.85 Q466.652 1503.51 470.032 1503.51 Q473.411 1503.51 475.332 1500.85 Q477.277 1498.16 477.277 1493.46 Z" fill="#000000" fill-rule="nonzero" fill-opacity="1" /><path clip-path="url(#clip420)" d="M503.781 1484.46 Q503.064 1484.04 502.207 1483.86 Q501.374 1483.65 500.355 1483.65 Q496.744 1483.65 494.8 1486.01 Q492.879 1488.35 492.879 1492.75 L492.879 1506.4 L488.596 1506.4 L488.596 1480.48 L492.879 1480.48 L492.879 1484.51 Q494.221 1482.15 496.374 1481.01 Q498.527 1479.85 501.605 1479.85 Q502.045 1479.85 502.578 1479.92 Q503.11 1479.97 503.758 1480.08 L503.781 1484.46 Z" fill="#000000" fill-rule="nonzero" fill-opacity="1" /><path clip-path="url(#clip420)" d="M517.253 1483.46 Q513.828 1483.46 511.837 1486.15 Q509.846 1488.81 509.846 1493.46 Q509.846 1498.12 511.814 1500.8 Q513.804 1503.46 517.253 1503.46 Q520.656 1503.46 522.647 1500.78 Q524.638 1498.09 524.638 1493.46 Q524.638 1488.86 522.647 1486.17 Q520.656 1483.46 517.253 1483.46 M517.253 1479.85 Q522.809 1479.85 525.98 1483.46 Q529.152 1487.08 529.152 1493.46 Q529.152 1499.83 525.98 1503.46 Q522.809 1507.08 517.253 1507.08 Q511.675 1507.08 508.504 1503.46 Q505.355 1499.83 505.355 1493.46 Q505.355 1487.08 508.504 1483.46 Q511.675 1479.85 517.253 1479.85 Z" fill="#000000" fill-rule="nonzero" fill-opacity="1" /><path clip-path="url(#clip420)" d="M540.332 1502.52 L540.332 1516.27 L536.05 1516.27 L536.05 1480.48 L540.332 1480.48 L540.332 1484.41 Q541.675 1482.1 543.712 1480.99 Q545.772 1479.85 548.619 1479.85 Q553.341 1479.85 556.281 1483.6 Q559.244 1487.35 559.244 1493.46 Q559.244 1499.58 556.281 1503.33 Q553.341 1507.08 548.619 1507.08 Q545.772 1507.08 543.712 1505.96 Q541.675 1504.83 540.332 1502.52 M554.823 1493.46 Q554.823 1488.77 552.878 1486.1 Q550.957 1483.42 547.577 1483.42 Q544.198 1483.42 542.253 1486.1 Q540.332 1488.77 540.332 1493.46 Q540.332 1498.16 542.253 1500.85 Q544.198 1503.51 547.577 1503.51 Q550.957 1503.51 552.878 1500.85 Q554.823 1498.16 554.823 1493.46 Z" fill="#000000" fill-rule="nonzero" fill-opacity="1" /><path clip-path="url(#clip420)" d="M578.087 1493.37 Q572.924 1493.37 570.934 1494.55 Q568.943 1495.73 568.943 1498.58 Q568.943 1500.85 570.425 1502.19 Q571.929 1503.51 574.499 1503.51 Q578.04 1503.51 580.17 1501.01 Q582.323 1498.49 582.323 1494.32 L582.323 1493.37 L578.087 1493.37 M586.582 1491.61 L586.582 1506.4 L582.323 1506.4 L582.323 1502.47 Q580.864 1504.83 578.688 1505.96 Q576.512 1507.08 573.364 1507.08 Q569.383 1507.08 567.022 1504.85 Q564.684 1502.61 564.684 1498.86 Q564.684 1494.48 567.6 1492.26 Q570.54 1490.04 576.35 1490.04 L582.323 1490.04 L582.323 1489.62 Q582.323 1486.68 580.378 1485.08 Q578.457 1483.46 574.962 1483.46 Q572.739 1483.46 570.633 1484 Q568.526 1484.53 566.582 1485.59 L566.582 1481.66 Q568.92 1480.76 571.119 1480.32 Q573.318 1479.85 575.401 1479.85 Q581.026 1479.85 583.804 1482.77 Q586.582 1485.69 586.582 1491.61 Z" fill="#000000" fill-rule="nonzero" fill-opacity="1" /><path clip-path="url(#clip420)" d="M612.415 1493.14 Q612.415 1488.51 610.494 1485.96 Q608.596 1483.42 605.147 1483.42 Q601.721 1483.42 599.799 1485.96 Q597.901 1488.51 597.901 1493.14 Q597.901 1497.75 599.799 1500.29 Q601.721 1502.84 605.147 1502.84 Q608.596 1502.84 610.494 1500.29 Q612.415 1497.75 612.415 1493.14 M616.674 1503.19 Q616.674 1509.81 613.734 1513.02 Q610.795 1516.27 604.73 1516.27 Q602.485 1516.27 600.494 1515.92 Q598.503 1515.59 596.628 1514.9 L596.628 1510.76 Q598.503 1511.77 600.332 1512.26 Q602.16 1512.75 604.059 1512.75 Q608.248 1512.75 610.332 1510.55 Q612.415 1508.37 612.415 1503.95 L612.415 1501.84 Q611.096 1504.14 609.035 1505.27 Q606.975 1506.4 604.105 1506.4 Q599.336 1506.4 596.42 1502.77 Q593.503 1499.14 593.503 1493.14 Q593.503 1487.12 596.42 1483.49 Q599.336 1479.85 604.105 1479.85 Q606.975 1479.85 609.035 1480.99 Q611.096 1482.12 612.415 1484.41 L612.415 1480.48 L616.674 1480.48 L616.674 1503.19 Z" fill="#000000" fill-rule="nonzero" fill-opacity="1" /><path clip-path="url(#clip420)" d="M637.23 1493.37 Q632.068 1493.37 630.077 1494.55 Q628.086 1495.73 628.086 1498.58 Q628.086 1500.85 629.568 1502.19 Q631.072 1503.51 633.642 1503.51 Q637.183 1503.51 639.313 1501.01 Q641.466 1498.49 641.466 1494.32 L641.466 1493.37 L637.23 1493.37 M645.725 1491.61 L645.725 1506.4 L641.466 1506.4 L641.466 1502.47 Q640.007 1504.83 637.832 1505.96 Q635.656 1507.08 632.508 1507.08 Q628.526 1507.08 626.165 1504.85 Q623.827 1502.61 623.827 1498.86 Q623.827 1494.48 626.744 1492.26 Q629.683 1490.04 635.494 1490.04 L641.466 1490.04 L641.466 1489.62 Q641.466 1486.68 639.521 1485.08 Q637.6 1483.46 634.105 1483.46 Q631.883 1483.46 629.776 1484 Q627.67 1484.53 625.725 1485.59 L625.725 1481.66 Q628.063 1480.76 630.262 1480.32 Q632.461 1479.85 634.545 1479.85 Q640.17 1479.85 642.947 1482.77 Q645.725 1485.69 645.725 1491.61 Z" fill="#000000" fill-rule="nonzero" fill-opacity="1" /><path clip-path="url(#clip420)" d="M658.711 1473.12 L658.711 1480.48 L667.484 1480.48 L667.484 1483.79 L658.711 1483.79 L658.711 1497.86 Q658.711 1501.03 659.568 1501.94 Q660.447 1502.84 663.109 1502.84 L667.484 1502.84 L667.484 1506.4 L663.109 1506.4 Q658.179 1506.4 656.304 1504.58 Q654.429 1502.72 654.429 1497.86 L654.429 1483.79 L651.304 1483.79 L651.304 1480.48 L654.429 1480.48 L654.429 1473.12 L658.711 1473.12 Z" fill="#000000" fill-rule="nonzero" fill-opacity="1" /><path clip-path="url(#clip420)" d="M695.262 1492.38 L695.262 1494.46 L675.679 1494.46 Q675.956 1498.86 678.317 1501.17 Q680.702 1503.46 684.938 1503.46 Q687.391 1503.46 689.683 1502.86 Q691.998 1502.26 694.266 1501.06 L694.266 1505.08 Q691.975 1506.06 689.567 1506.57 Q687.16 1507.08 684.683 1507.08 Q678.479 1507.08 674.845 1503.46 Q671.234 1499.85 671.234 1493.7 Q671.234 1487.33 674.66 1483.6 Q678.109 1479.85 683.942 1479.85 Q689.174 1479.85 692.206 1483.23 Q695.262 1486.59 695.262 1492.38 M691.003 1491.13 Q690.956 1487.63 689.035 1485.55 Q687.137 1483.46 683.989 1483.46 Q680.424 1483.46 678.271 1485.48 Q676.142 1487.49 675.817 1491.15 L691.003 1491.13 Z" fill="#000000" fill-rule="nonzero" fill-opacity="1" /><path clip-path="url(#clip420)" d="M704.938 1500.52 L709.637 1500.52 L709.637 1506.4 L704.938 1506.4 L704.938 1500.52 M704.938 1471.84 L709.637 1471.84 L709.637 1487.01 L709.174 1495.27 L705.424 1495.27 L704.938 1487.01 L704.938 1471.84 Z" fill="#000000" fill-rule="nonzero" fill-opacity="1" /><path clip-path="url(#clip420)" d="M423.226 1522.23 L427.485 1522.23 L427.485 1558.24 L423.226 1558.24 L423.226 1522.23 Z" fill="#000000" fill-rule="nonzero" fill-opacity="1" /><path clip-path="url(#clip420)" d="M448.18 1545.21 Q443.018 1545.21 441.027 1546.39 Q439.036 1547.57 439.036 1550.42 Q439.036 1552.69 440.518 1554.03 Q442.022 1555.35 444.592 1555.35 Q448.133 1555.35 450.263 1552.85 Q452.416 1550.33 452.416 1546.16 L452.416 1545.21 L448.18 1545.21 M456.675 1543.45 L456.675 1558.24 L452.416 1558.24 L452.416 1554.31 Q450.958 1556.67 448.782 1557.8 Q446.606 1558.92 443.458 1558.92 Q439.476 1558.92 437.115 1556.69 Q434.777 1554.45 434.777 1550.7 Q434.777 1546.32 437.694 1544.1 Q440.634 1541.88 446.444 1541.88 L452.416 1541.88 L452.416 1541.46 Q452.416 1538.52 450.471 1536.92 Q448.55 1535.3 445.055 1535.3 Q442.833 1535.3 440.726 1535.84 Q438.62 1536.37 436.675 1537.43 L436.675 1533.5 Q439.013 1532.6 441.212 1532.16 Q443.411 1531.69 445.495 1531.69 Q451.12 1531.69 453.897 1534.61 Q456.675 1537.53 456.675 1543.45 Z" fill="#000000" fill-rule="nonzero" fill-opacity="1" /><path clip-path="url(#clip420)" d="M476.235 1560.65 Q474.43 1565.28 472.717 1566.69 Q471.004 1568.11 468.133 1568.11 L464.731 1568.11 L464.731 1564.54 L467.231 1564.54 Q468.99 1564.54 469.962 1563.71 Q470.934 1562.87 472.115 1559.77 L472.879 1557.83 L462.393 1532.32 L466.907 1532.32 L475.008 1552.6 L483.11 1532.32 L487.624 1532.32 L476.235 1560.65 Z" fill="#000000" fill-rule="nonzero" fill-opacity="1" /><path clip-path="url(#clip420)" d="M515.679 1544.22 L515.679 1546.3 L496.096 1546.3 Q496.374 1550.7 498.735 1553.01 Q501.119 1555.3 505.355 1555.3 Q507.809 1555.3 510.101 1554.7 Q512.416 1554.1 514.684 1552.9 L514.684 1556.92 Q512.392 1557.9 509.985 1558.41 Q507.578 1558.92 505.101 1558.92 Q498.897 1558.92 495.263 1555.3 Q491.652 1551.69 491.652 1545.54 Q491.652 1539.17 495.078 1535.44 Q498.527 1531.69 504.36 1531.69 Q509.591 1531.69 512.624 1535.07 Q515.679 1538.43 515.679 1544.22 M511.42 1542.97 Q511.374 1539.47 509.453 1537.39 Q507.554 1535.3 504.406 1535.3 Q500.842 1535.3 498.689 1537.32 Q496.559 1539.33 496.235 1542.99 L511.42 1542.97 Z" fill="#000000" fill-rule="nonzero" fill-opacity="1" /><path clip-path="url(#clip420)" d="M537.693 1536.3 Q536.976 1535.88 536.119 1535.7 Q535.286 1535.49 534.267 1535.49 Q530.656 1535.49 528.712 1537.85 Q526.79 1540.19 526.79 1544.59 L526.79 1558.24 L522.508 1558.24 L522.508 1532.32 L526.79 1532.32 L526.79 1536.35 Q528.133 1533.99 530.286 1532.85 Q532.439 1531.69 535.517 1531.69 Q535.957 1531.69 536.49 1531.76 Q537.022 1531.81 537.67 1531.92 L537.693 1536.3 Z" fill="#000000" fill-rule="nonzero" fill-opacity="1" /><path clip-path="url(#clip420)" d="M575.841 1545.3 Q575.841 1540.61 573.897 1537.94 Q571.975 1535.26 568.596 1535.26 Q565.216 1535.26 563.272 1537.94 Q561.35 1540.61 561.35 1545.3 Q561.35 1550 563.272 1552.69 Q565.216 1555.35 568.596 1555.35 Q571.975 1555.35 573.897 1552.69 Q575.841 1550 575.841 1545.3 M561.35 1536.25 Q562.693 1533.94 564.73 1532.83 Q566.79 1531.69 569.637 1531.69 Q574.36 1531.69 577.299 1535.44 Q580.262 1539.19 580.262 1545.3 Q580.262 1551.42 577.299 1555.17 Q574.36 1558.92 569.637 1558.92 Q566.79 1558.92 564.73 1557.8 Q562.693 1556.67 561.35 1554.36 L561.35 1558.24 L557.068 1558.24 L557.068 1522.23 L561.35 1522.23 L561.35 1536.25 Z" fill="#000000" fill-rule="nonzero" fill-opacity="1" /><path clip-path="url(#clip420)" d="M598.11 1560.65 Q596.304 1565.28 594.591 1566.69 Q592.878 1568.11 590.008 1568.11 L586.605 1568.11 L586.605 1564.54 L589.105 1564.54 Q590.864 1564.54 591.836 1563.71 Q592.809 1562.87 593.989 1559.77 L594.753 1557.83 L584.267 1532.32 L588.781 1532.32 L596.883 1552.6 L604.985 1532.32 L609.498 1532.32 L598.11 1560.65 Z" fill="#000000" fill-rule="nonzero" fill-opacity="1" /><path clip-path="url(#clip420)" d="M630.447 1522.23 L634.707 1522.23 L634.707 1558.24 L630.447 1558.24 L630.447 1522.23 Z" fill="#000000" fill-rule="nonzero" fill-opacity="1" /><path clip-path="url(#clip420)" d="M655.401 1545.21 Q650.239 1545.21 648.248 1546.39 Q646.257 1547.57 646.257 1550.42 Q646.257 1552.69 647.739 1554.03 Q649.244 1555.35 651.813 1555.35 Q655.355 1555.35 657.484 1552.85 Q659.637 1550.33 659.637 1546.16 L659.637 1545.21 L655.401 1545.21 M663.896 1543.45 L663.896 1558.24 L659.637 1558.24 L659.637 1554.31 Q658.179 1556.67 656.003 1557.8 Q653.827 1558.92 650.679 1558.92 Q646.697 1558.92 644.336 1556.69 Q641.998 1554.45 641.998 1550.7 Q641.998 1546.32 644.915 1544.1 Q647.855 1541.88 653.665 1541.88 L659.637 1541.88 L659.637 1541.46 Q659.637 1538.52 657.693 1536.92 Q655.771 1535.3 652.276 1535.3 Q650.054 1535.3 647.947 1535.84 Q645.841 1536.37 643.896 1537.43 L643.896 1533.5 Q646.234 1532.6 648.433 1532.16 Q650.632 1531.69 652.716 1531.69 Q658.341 1531.69 661.118 1534.61 Q663.896 1537.53 663.896 1543.45 Z" fill="#000000" fill-rule="nonzero" fill-opacity="1" /><path clip-path="url(#clip420)" d="M683.456 1560.65 Q681.651 1565.28 679.938 1566.69 Q678.225 1568.11 675.354 1568.11 L671.952 1568.11 L671.952 1564.54 L674.452 1564.54 Q676.211 1564.54 677.183 1563.71 Q678.155 1562.87 679.336 1559.77 L680.1 1557.83 L669.614 1532.32 L674.128 1532.32 L682.229 1552.6 L690.331 1532.32 L694.845 1532.32 L683.456 1560.65 Z" fill="#000000" fill-rule="nonzero" fill-opacity="1" /><path clip-path="url(#clip420)" d="M722.901 1544.22 L722.901 1546.3 L703.317 1546.3 Q703.595 1550.7 705.956 1553.01 Q708.34 1555.3 712.577 1555.3 Q715.03 1555.3 717.322 1554.7 Q719.637 1554.1 721.905 1552.9 L721.905 1556.92 Q719.614 1557.9 717.206 1558.41 Q714.799 1558.92 712.322 1558.92 Q706.118 1558.92 702.484 1555.3 Q698.873 1551.69 698.873 1545.54 Q698.873 1539.17 702.299 1535.44 Q705.748 1531.69 711.581 1531.69 Q716.813 1531.69 719.845 1535.07 Q722.901 1538.43 722.901 1544.22 M718.641 1542.97 Q718.595 1539.47 716.674 1537.39 Q714.776 1535.3 711.627 1535.3 Q708.063 1535.3 705.91 1537.32 Q703.78 1539.33 703.456 1542.99 L718.641 1542.97 Z" fill="#000000" fill-rule="nonzero" fill-opacity="1" /><path clip-path="url(#clip420)" d="M744.914 1536.3 Q744.197 1535.88 743.34 1535.7 Q742.507 1535.49 741.488 1535.49 Q737.877 1535.49 735.933 1537.85 Q734.012 1540.19 734.012 1544.59 L734.012 1558.24 L729.729 1558.24 L729.729 1532.32 L734.012 1532.32 L734.012 1536.35 Q735.354 1533.99 737.507 1532.85 Q739.66 1531.69 742.738 1531.69 Q743.178 1531.69 743.711 1531.76 Q744.243 1531.81 744.891 1531.92 L744.914 1536.3 Z" fill="#000000" fill-rule="nonzero" fill-opacity="1" /><path clip-path="url(#clip420)" d="M1045.49 1476.68 L1045.49 1489.58 L1058.39 1489.58 L1058.39 1493.51 L1045.49 1493.51 L1045.49 1506.4 L1041.6 1506.4 L1041.6 1493.51 L1028.71 1493.51 L1028.71 1489.58 L1041.6 1489.58 L1041.6 1476.68 L1045.49 1476.68 Z" fill="#000000" fill-rule="nonzero" fill-opacity="1" /><path clip-path="url(#clip420)" d="M1087.81 1475.69 L1087.81 1488.67 L1093.69 1488.67 Q1096.95 1488.67 1098.73 1486.98 Q1100.52 1485.29 1100.52 1482.17 Q1100.52 1479.07 1098.73 1477.38 Q1096.95 1475.69 1093.69 1475.69 L1087.81 1475.69 M1083.13 1471.84 L1093.69 1471.84 Q1099.5 1471.84 1102.46 1474.48 Q1105.45 1477.1 1105.45 1482.17 Q1105.45 1487.28 1102.46 1489.9 Q1099.5 1492.52 1093.69 1492.52 L1087.81 1492.52 L1087.81 1506.4 L1083.13 1506.4 L1083.13 1471.84 Z" fill="#000000" fill-rule="nonzero" fill-opacity="1" /><path clip-path="url(#clip420)" d="M1125.72 1484.46 Q1125.01 1484.04 1124.15 1483.86 Q1123.32 1483.65 1122.3 1483.65 Q1118.69 1483.65 1116.74 1486.01 Q1114.82 1488.35 1114.82 1492.75 L1114.82 1506.4 L1110.54 1506.4 L1110.54 1480.48 L1114.82 1480.48 L1114.82 1484.51 Q1116.16 1482.15 1118.32 1481.01 Q1120.47 1479.85 1123.55 1479.85 Q1123.99 1479.85 1124.52 1479.92 Q1125.05 1479.97 1125.7 1480.08 L1125.72 1484.46 Z" fill="#000000" fill-rule="nonzero" fill-opacity="1" /><path clip-path="url(#clip420)" d="M1139.2 1483.46 Q1135.77 1483.46 1133.78 1486.15 Q1131.79 1488.81 1131.79 1493.46 Q1131.79 1498.12 1133.76 1500.8 Q1135.75 1503.46 1139.2 1503.46 Q1142.6 1503.46 1144.59 1500.78 Q1146.58 1498.09 1146.58 1493.46 Q1146.58 1488.86 1144.59 1486.17 Q1142.6 1483.46 1139.2 1483.46 M1139.2 1479.85 Q1144.75 1479.85 1147.92 1483.46 Q1151.09 1487.08 1151.09 1493.46 Q1151.09 1499.83 1147.92 1503.46 Q1144.75 1507.08 1139.2 1507.08 Q1133.62 1507.08 1130.45 1503.46 Q1127.3 1499.83 1127.3 1493.46 Q1127.3 1487.08 1130.45 1483.46 Q1133.62 1479.85 1139.2 1479.85 Z" fill="#000000" fill-rule="nonzero" fill-opacity="1" /><path clip-path="url(#clip420)" d="M1162.27 1502.52 L1162.27 1516.27 L1157.99 1516.27 L1157.99 1480.48 L1162.27 1480.48 L1162.27 1484.41 Q1163.62 1482.1 1165.65 1480.99 Q1167.71 1479.85 1170.56 1479.85 Q1175.28 1479.85 1178.22 1483.6 Q1181.19 1487.35 1181.19 1493.46 Q1181.19 1499.58 1178.22 1503.33 Q1175.28 1507.08 1170.56 1507.08 Q1167.71 1507.08 1165.65 1505.96 Q1163.62 1504.83 1162.27 1502.52 M1176.77 1493.46 Q1176.77 1488.77 1174.82 1486.1 Q1172.9 1483.42 1169.52 1483.42 Q1166.14 1483.42 1164.2 1486.1 Q1162.27 1488.77 1162.27 1493.46 Q1162.27 1498.16 1164.2 1500.85 Q1166.14 1503.51 1169.52 1503.51 Q1172.9 1503.51 1174.82 1500.85 Q1176.77 1498.16 1176.77 1493.46 Z" fill="#000000" fill-rule="nonzero" fill-opacity="1" /><path clip-path="url(#clip420)" d="M1200.03 1493.37 Q1194.87 1493.37 1192.88 1494.55 Q1190.89 1495.73 1190.89 1498.58 Q1190.89 1500.85 1192.37 1502.19 Q1193.87 1503.51 1196.44 1503.51 Q1199.98 1503.51 1202.11 1501.01 Q1204.26 1498.49 1204.26 1494.32 L1204.26 1493.37 L1200.03 1493.37 M1208.52 1491.61 L1208.52 1506.4 L1204.26 1506.4 L1204.26 1502.47 Q1202.81 1504.83 1200.63 1505.96 Q1198.45 1507.08 1195.31 1507.08 Q1191.33 1507.08 1188.96 1504.85 Q1186.63 1502.61 1186.63 1498.86 Q1186.63 1494.48 1189.54 1492.26 Q1192.48 1490.04 1198.29 1490.04 L1204.26 1490.04 L1204.26 1489.62 Q1204.26 1486.68 1202.32 1485.08 Q1200.4 1483.46 1196.9 1483.46 Q1194.68 1483.46 1192.58 1484 Q1190.47 1484.53 1188.52 1485.59 L1188.52 1481.66 Q1190.86 1480.76 1193.06 1480.32 Q1195.26 1479.85 1197.34 1479.85 Q1202.97 1479.85 1205.75 1482.77 Q1208.52 1485.69 1208.52 1491.61 Z" fill="#000000" fill-rule="nonzero" fill-opacity="1" /><path clip-path="url(#clip420)" d="M1234.36 1493.14 Q1234.36 1488.51 1232.44 1485.96 Q1230.54 1483.42 1227.09 1483.42 Q1223.66 1483.42 1221.74 1485.96 Q1219.84 1488.51 1219.84 1493.14 Q1219.84 1497.75 1221.74 1500.29 Q1223.66 1502.84 1227.09 1502.84 Q1230.54 1502.84 1232.44 1500.29 Q1234.36 1497.75 1234.36 1493.14 M1238.62 1503.19 Q1238.62 1509.81 1235.68 1513.02 Q1232.74 1516.27 1226.67 1516.27 Q1224.43 1516.27 1222.44 1515.92 Q1220.45 1515.59 1218.57 1514.9 L1218.57 1510.76 Q1220.45 1511.77 1222.27 1512.26 Q1224.1 1512.75 1226 1512.75 Q1230.19 1512.75 1232.27 1510.55 Q1234.36 1508.37 1234.36 1503.95 L1234.36 1501.84 Q1233.04 1504.14 1230.98 1505.27 Q1228.92 1506.4 1226.05 1506.4 Q1221.28 1506.4 1218.36 1502.77 Q1215.45 1499.14 1215.45 1493.14 Q1215.45 1487.12 1218.36 1483.49 Q1221.28 1479.85 1226.05 1479.85 Q1228.92 1479.85 1230.98 1480.99 Q1233.04 1482.12 1234.36 1484.41 L1234.36 1480.48 L1238.62 1480.48 L1238.62 1503.19 Z" fill="#000000" fill-rule="nonzero" fill-opacity="1" /><path clip-path="url(#clip420)" d="M1259.17 1493.37 Q1254.01 1493.37 1252.02 1494.55 Q1250.03 1495.73 1250.03 1498.58 Q1250.03 1500.85 1251.51 1502.19 Q1253.01 1503.51 1255.58 1503.51 Q1259.13 1503.51 1261.26 1501.01 Q1263.41 1498.49 1263.41 1494.32 L1263.41 1493.37 L1259.17 1493.37 M1267.67 1491.61 L1267.67 1506.4 L1263.41 1506.4 L1263.41 1502.47 Q1261.95 1504.83 1259.77 1505.96 Q1257.6 1507.08 1254.45 1507.08 Q1250.47 1507.08 1248.11 1504.85 Q1245.77 1502.61 1245.77 1498.86 Q1245.77 1494.48 1248.69 1492.26 Q1251.63 1490.04 1257.44 1490.04 L1263.41 1490.04 L1263.41 1489.62 Q1263.41 1486.68 1261.46 1485.08 Q1259.54 1483.46 1256.05 1483.46 Q1253.82 1483.46 1251.72 1484 Q1249.61 1484.53 1247.67 1485.59 L1247.67 1481.66 Q1250.01 1480.76 1252.2 1480.32 Q1254.4 1479.85 1256.49 1479.85 Q1262.11 1479.85 1264.89 1482.77 Q1267.67 1485.69 1267.67 1491.61 Z" fill="#000000" fill-rule="nonzero" fill-opacity="1" /><path clip-path="url(#clip420)" d="M1280.65 1473.12 L1280.65 1480.48 L1289.43 1480.48 L1289.43 1483.79 L1280.65 1483.79 L1280.65 1497.86 Q1280.65 1501.03 1281.51 1501.94 Q1282.39 1502.84 1285.05 1502.84 L1289.43 1502.84 L1289.43 1506.4 L1285.05 1506.4 Q1280.12 1506.4 1278.25 1504.58 Q1276.37 1502.72 1276.37 1497.86 L1276.37 1483.79 L1273.25 1483.79 L1273.25 1480.48 L1276.37 1480.48 L1276.37 1473.12 L1280.65 1473.12 Z" fill="#000000" fill-rule="nonzero" fill-opacity="1" /><path clip-path="url(#clip420)" d="M1295.03 1480.48 L1299.29 1480.48 L1299.29 1506.4 L1295.03 1506.4 L1295.03 1480.48 M1295.03 1470.39 L1299.29 1470.39 L1299.29 1475.78 L1295.03 1475.78 L1295.03 1470.39 Z" fill="#000000" fill-rule="nonzero" fill-opacity="1" /><path clip-path="url(#clip420)" d="M1318.25 1483.46 Q1314.82 1483.46 1312.83 1486.15 Q1310.84 1488.81 1310.84 1493.46 Q1310.84 1498.12 1312.81 1500.8 Q1314.8 1503.46 1318.25 1503.46 Q1321.65 1503.46 1323.64 1500.78 Q1325.63 1498.09 1325.63 1493.46 Q1325.63 1488.86 1323.64 1486.17 Q1321.65 1483.46 1318.25 1483.46 M1318.25 1479.85 Q1323.8 1479.85 1326.97 1483.46 Q1330.14 1487.08 1330.14 1493.46 Q1330.14 1499.83 1326.97 1503.46 Q1323.8 1507.08 1318.25 1507.08 Q1312.67 1507.08 1309.5 1503.46 Q1306.35 1499.83 1306.35 1493.46 Q1306.35 1487.08 1309.5 1483.46 Q1312.67 1479.85 1318.25 1479.85 Z" fill="#000000" fill-rule="nonzero" fill-opacity="1" /><path clip-path="url(#clip420)" d="M1358.75 1490.76 L1358.75 1506.4 L1354.5 1506.4 L1354.5 1490.9 Q1354.5 1487.21 1353.06 1485.39 Q1351.63 1483.56 1348.75 1483.56 Q1345.31 1483.56 1343.32 1485.76 Q1341.32 1487.96 1341.32 1491.75 L1341.32 1506.4 L1337.04 1506.4 L1337.04 1480.48 L1341.32 1480.48 L1341.32 1484.51 Q1342.85 1482.17 1344.91 1481.01 Q1347 1479.85 1349.7 1479.85 Q1354.17 1479.85 1356.46 1482.63 Q1358.75 1485.39 1358.75 1490.76 Z" fill="#000000" fill-rule="nonzero" fill-opacity="1" /><path clip-path="url(#clip420)" d="M1150.48 1526.35 L1150.48 1531.28 Q1148.12 1529.08 1145.43 1527.99 Q1142.77 1526.9 1139.76 1526.9 Q1133.84 1526.9 1130.69 1530.54 Q1127.54 1534.15 1127.54 1541 Q1127.54 1547.83 1130.69 1551.46 Q1133.84 1555.07 1139.76 1555.07 Q1142.77 1555.07 1145.43 1553.99 Q1148.12 1552.9 1150.48 1550.7 L1150.48 1555.58 Q1148.03 1557.25 1145.27 1558.08 Q1142.54 1558.92 1139.49 1558.92 Q1131.64 1558.92 1127.12 1554.12 Q1122.61 1549.31 1122.61 1541 Q1122.61 1532.67 1127.12 1527.87 Q1131.64 1523.06 1139.49 1523.06 Q1142.59 1523.06 1145.32 1523.89 Q1148.07 1524.7 1150.48 1526.35 Z" fill="#000000" fill-rule="nonzero" fill-opacity="1" /><path clip-path="url(#clip420)" d="M1169.3 1545.21 Q1164.14 1545.21 1162.15 1546.39 Q1160.16 1547.57 1160.16 1550.42 Q1160.16 1552.69 1161.64 1554.03 Q1163.14 1555.35 1165.71 1555.35 Q1169.25 1555.35 1171.38 1552.85 Q1173.54 1550.33 1173.54 1546.16 L1173.54 1545.21 L1169.3 1545.21 M1177.8 1543.45 L1177.8 1558.24 L1173.54 1558.24 L1173.54 1554.31 Q1172.08 1556.67 1169.9 1557.8 Q1167.73 1558.92 1164.58 1558.92 Q1160.6 1558.92 1158.24 1556.69 Q1155.9 1554.45 1155.9 1550.7 Q1155.9 1546.32 1158.81 1544.1 Q1161.75 1541.88 1167.56 1541.88 L1173.54 1541.88 L1173.54 1541.46 Q1173.54 1538.52 1171.59 1536.92 Q1169.67 1535.3 1166.17 1535.3 Q1163.95 1535.3 1161.85 1535.84 Q1159.74 1536.37 1157.8 1537.43 L1157.8 1533.5 Q1160.13 1532.6 1162.33 1532.16 Q1164.53 1531.69 1166.61 1531.69 Q1172.24 1531.69 1175.02 1534.61 Q1177.8 1537.53 1177.8 1543.45 Z" fill="#000000" fill-rule="nonzero" fill-opacity="1" /><path clip-path="url(#clip420)" d="M1205.23 1533.31 L1205.23 1537.3 Q1203.42 1536.3 1201.59 1535.81 Q1199.79 1535.3 1197.93 1535.3 Q1193.79 1535.3 1191.5 1537.94 Q1189.21 1540.56 1189.21 1545.3 Q1189.21 1550.05 1191.5 1552.69 Q1193.79 1555.3 1197.93 1555.3 Q1199.79 1555.3 1201.59 1554.82 Q1203.42 1554.31 1205.23 1553.31 L1205.23 1557.25 Q1203.44 1558.08 1201.52 1558.5 Q1199.62 1558.92 1197.47 1558.92 Q1191.61 1558.92 1188.17 1555.23 Q1184.72 1551.55 1184.72 1545.3 Q1184.72 1538.96 1188.19 1535.33 Q1191.68 1531.69 1197.75 1531.69 Q1199.72 1531.69 1201.59 1532.11 Q1203.47 1532.5 1205.23 1533.31 Z" fill="#000000" fill-rule="nonzero" fill-opacity="1" /><path clip-path="url(#clip420)" d="M1234.18 1542.6 L1234.18 1558.24 L1229.92 1558.24 L1229.92 1542.74 Q1229.92 1539.05 1228.49 1537.23 Q1227.05 1535.4 1224.18 1535.4 Q1220.73 1535.4 1218.74 1537.6 Q1216.75 1539.8 1216.75 1543.59 L1216.75 1558.24 L1212.47 1558.24 L1212.47 1522.23 L1216.75 1522.23 L1216.75 1536.35 Q1218.28 1534.01 1220.34 1532.85 Q1222.42 1531.69 1225.13 1531.69 Q1229.6 1531.69 1231.89 1534.47 Q1234.18 1537.23 1234.18 1542.6 Z" fill="#000000" fill-rule="nonzero" fill-opacity="1" /><path clip-path="url(#clip420)" d="M1264.85 1544.22 L1264.85 1546.3 L1245.27 1546.3 Q1245.55 1550.7 1247.91 1553.01 Q1250.29 1555.3 1254.53 1555.3 Q1256.98 1555.3 1259.28 1554.7 Q1261.59 1554.1 1263.86 1552.9 L1263.86 1556.92 Q1261.57 1557.9 1259.16 1558.41 Q1256.75 1558.92 1254.28 1558.92 Q1248.07 1558.92 1244.44 1555.3 Q1240.83 1551.69 1240.83 1545.54 Q1240.83 1539.17 1244.25 1535.44 Q1247.7 1531.69 1253.54 1531.69 Q1258.77 1531.69 1261.8 1535.07 Q1264.85 1538.43 1264.85 1544.22 M1260.6 1542.97 Q1260.55 1539.47 1258.63 1537.39 Q1256.73 1535.3 1253.58 1535.3 Q1250.02 1535.3 1247.86 1537.32 Q1245.73 1539.33 1245.41 1542.99 L1260.6 1542.97 Z" fill="#000000" fill-rule="nonzero" fill-opacity="1" /><path clip-path="url(#clip420)" d="M1719.6 1476.68 L1719.6 1489.58 L1732.49 1489.58 L1732.49 1493.51 L1719.6 1493.51 L1719.6 1506.4 L1715.71 1506.4 L1715.71 1493.51 L1702.82 1493.51 L1702.82 1489.58 L1715.71 1489.58 L1715.71 1476.68 L1719.6 1476.68 Z" fill="#000000" fill-rule="nonzero" fill-opacity="1" /><path clip-path="url(#clip420)" d="M1772.08 1484.46 Q1771.36 1484.04 1770.5 1483.86 Q1769.67 1483.65 1768.65 1483.65 Q1765.04 1483.65 1763.09 1486.01 Q1761.17 1488.35 1761.17 1492.75 L1761.17 1506.4 L1756.89 1506.4 L1756.89 1480.48 L1761.17 1480.48 L1761.17 1484.51 Q1762.52 1482.15 1764.67 1481.01 Q1766.82 1479.85 1769.9 1479.85 Q1770.34 1479.85 1770.87 1479.92 Q1771.4 1479.97 1772.05 1480.08 L1772.08 1484.46 Z" fill="#000000" fill-rule="nonzero" fill-opacity="1" /><path clip-path="url(#clip420)" d="M1797.68 1492.38 L1797.68 1494.46 L1778.09 1494.46 Q1778.37 1498.86 1780.73 1501.17 Q1783.12 1503.46 1787.35 1503.46 Q1789.81 1503.46 1792.1 1502.86 Q1794.41 1502.26 1796.68 1501.06 L1796.68 1505.08 Q1794.39 1506.06 1791.98 1506.57 Q1789.58 1507.08 1787.1 1507.08 Q1780.9 1507.08 1777.26 1503.46 Q1773.65 1499.85 1773.65 1493.7 Q1773.65 1487.33 1777.08 1483.6 Q1780.52 1479.85 1786.36 1479.85 Q1791.59 1479.85 1794.62 1483.23 Q1797.68 1486.59 1797.68 1492.38 M1793.42 1491.13 Q1793.37 1487.63 1791.45 1485.55 Q1789.55 1483.46 1786.4 1483.46 Q1782.84 1483.46 1780.69 1485.48 Q1778.56 1487.49 1778.23 1491.15 L1793.42 1491.13 Z" fill="#000000" fill-rule="nonzero" fill-opacity="1" /><path clip-path="url(#clip420)" d="M1821.2 1481.24 L1821.2 1485.27 Q1819.39 1484.34 1817.45 1483.88 Q1815.5 1483.42 1813.42 1483.42 Q1810.25 1483.42 1808.65 1484.39 Q1807.08 1485.36 1807.08 1487.31 Q1807.08 1488.79 1808.21 1489.65 Q1809.34 1490.48 1812.77 1491.24 L1814.23 1491.57 Q1818.77 1492.54 1820.66 1494.32 Q1822.58 1496.08 1822.58 1499.25 Q1822.58 1502.86 1819.71 1504.97 Q1816.87 1507.08 1811.87 1507.08 Q1809.78 1507.08 1807.52 1506.66 Q1805.27 1506.27 1802.77 1505.46 L1802.77 1501.06 Q1805.13 1502.28 1807.42 1502.91 Q1809.71 1503.51 1811.96 1503.51 Q1814.97 1503.51 1816.59 1502.49 Q1818.21 1501.45 1818.21 1499.58 Q1818.21 1497.84 1817.03 1496.91 Q1815.87 1495.99 1811.91 1495.13 L1810.43 1494.78 Q1806.47 1493.95 1804.71 1492.24 Q1802.96 1490.5 1802.96 1487.49 Q1802.96 1483.83 1805.55 1481.84 Q1808.14 1479.85 1812.91 1479.85 Q1815.27 1479.85 1817.35 1480.2 Q1819.44 1480.55 1821.2 1481.24 Z" fill="#000000" fill-rule="nonzero" fill-opacity="1" /><path clip-path="url(#clip420)" d="M1829.37 1480.48 L1833.63 1480.48 L1833.63 1506.4 L1829.37 1506.4 L1829.37 1480.48 M1829.37 1470.39 L1833.63 1470.39 L1833.63 1475.78 L1829.37 1475.78 L1829.37 1470.39 Z" fill="#000000" fill-rule="nonzero" fill-opacity="1" /><path clip-path="url(#clip420)" d="M1840.69 1480.48 L1860.92 1480.48 L1860.92 1484.37 L1844.9 1503 L1860.92 1503 L1860.92 1506.4 L1840.11 1506.4 L1840.11 1502.52 L1856.13 1483.88 L1840.69 1483.88 L1840.69 1480.48 Z" fill="#000000" fill-rule="nonzero" fill-opacity="1" /><path clip-path="url(#clip420)" d="M1889.6 1492.38 L1889.6 1494.46 L1870.01 1494.46 Q1870.29 1498.86 1872.65 1501.17 Q1875.04 1503.46 1879.27 1503.46 Q1881.73 1503.46 1884.02 1502.86 Q1886.33 1502.26 1888.6 1501.06 L1888.6 1505.08 Q1886.31 1506.06 1883.9 1506.57 Q1881.5 1507.08 1879.02 1507.08 Q1872.82 1507.08 1869.18 1503.46 Q1865.57 1499.85 1865.57 1493.7 Q1865.57 1487.33 1869 1483.6 Q1872.45 1479.85 1878.28 1479.85 Q1883.51 1479.85 1886.54 1483.23 Q1889.6 1486.59 1889.6 1492.38 M1885.34 1491.13 Q1885.29 1487.63 1883.37 1485.55 Q1881.47 1483.46 1878.33 1483.46 Q1874.76 1483.46 1872.61 1485.48 Q1870.48 1487.49 1870.15 1491.15 L1885.34 1491.13 Z" fill="#000000" fill-rule="nonzero" fill-opacity="1" /><path clip-path="url(#clip420)" d="M1899.27 1500.52 L1903.97 1500.52 L1903.97 1506.4 L1899.27 1506.4 L1899.27 1500.52 M1899.27 1471.84 L1903.97 1471.84 L1903.97 1487.01 L1903.51 1495.27 L1899.76 1495.27 L1899.27 1487.01 L1899.27 1471.84 Z" fill="#000000" fill-rule="nonzero" fill-opacity="1" /><path clip-path="url(#clip420)" d="M1711.98 1548.01 L1711.98 1532.32 L1716.24 1532.32 L1716.24 1547.85 Q1716.24 1551.53 1717.68 1553.38 Q1719.11 1555.21 1721.98 1555.21 Q1725.43 1555.21 1727.42 1553.01 Q1729.44 1550.81 1729.44 1547.02 L1729.44 1532.32 L1733.7 1532.32 L1733.7 1558.24 L1729.44 1558.24 L1729.44 1554.26 Q1727.89 1556.62 1725.83 1557.78 Q1723.79 1558.92 1721.08 1558.92 Q1716.61 1558.92 1714.3 1556.14 Q1711.98 1553.36 1711.98 1548.01 M1722.7 1531.69 L1722.7 1531.69 Z" fill="#000000" fill-rule="nonzero" fill-opacity="1" /><path clip-path="url(#clip420)" d="M1746.59 1554.36 L1746.59 1568.11 L1742.31 1568.11 L1742.31 1532.32 L1746.59 1532.32 L1746.59 1536.25 Q1747.93 1533.94 1749.97 1532.83 Q1752.03 1531.69 1754.88 1531.69 Q1759.6 1531.69 1762.54 1535.44 Q1765.5 1539.19 1765.5 1545.3 Q1765.5 1551.42 1762.54 1555.17 Q1759.6 1558.92 1754.88 1558.92 Q1752.03 1558.92 1749.97 1557.8 Q1747.93 1556.67 1746.59 1554.36 M1761.08 1545.3 Q1761.08 1540.61 1759.14 1537.94 Q1757.21 1535.26 1753.84 1535.26 Q1750.46 1535.26 1748.51 1537.94 Q1746.59 1540.61 1746.59 1545.3 Q1746.59 1550 1748.51 1552.69 Q1750.46 1555.35 1753.84 1555.35 Q1757.21 1555.35 1759.14 1552.69 Q1761.08 1550 1761.08 1545.3 Z" fill="#000000" fill-rule="nonzero" fill-opacity="1" /><path clip-path="url(#clip420)" d="M1800.76 1522.23 L1800.76 1525.77 L1796.68 1525.77 Q1794.39 1525.77 1793.49 1526.69 Q1792.61 1527.62 1792.61 1530.03 L1792.61 1532.32 L1799.62 1532.32 L1799.62 1535.63 L1792.61 1535.63 L1792.61 1558.24 L1788.33 1558.24 L1788.33 1535.63 L1784.25 1535.63 L1784.25 1532.32 L1788.33 1532.32 L1788.33 1530.51 Q1788.33 1526.18 1790.34 1524.22 Q1792.35 1522.23 1796.73 1522.23 L1800.76 1522.23 Z" fill="#000000" fill-rule="nonzero" fill-opacity="1" /><path clip-path="url(#clip420)" d="M1819.34 1536.3 Q1818.63 1535.88 1817.77 1535.7 Q1816.94 1535.49 1815.92 1535.49 Q1812.31 1535.49 1810.36 1537.85 Q1808.44 1540.19 1808.44 1544.59 L1808.44 1558.24 L1804.16 1558.24 L1804.16 1532.32 L1808.44 1532.32 L1808.44 1536.35 Q1809.78 1533.99 1811.94 1532.85 Q1814.09 1531.69 1817.17 1531.69 Q1817.61 1531.69 1818.14 1531.76 Q1818.67 1531.81 1819.32 1531.92 L1819.34 1536.3 Z" fill="#000000" fill-rule="nonzero" fill-opacity="1" /><path clip-path="url(#clip420)" d="M1832.82 1535.3 Q1829.39 1535.3 1827.4 1537.99 Q1825.41 1540.65 1825.41 1545.3 Q1825.41 1549.96 1827.38 1552.64 Q1829.37 1555.3 1832.82 1555.3 Q1836.22 1555.3 1838.21 1552.62 Q1840.2 1549.93 1840.2 1545.3 Q1840.2 1540.7 1838.21 1538.01 Q1836.22 1535.3 1832.82 1535.3 M1832.82 1531.69 Q1838.37 1531.69 1841.54 1535.3 Q1844.71 1538.92 1844.71 1545.3 Q1844.71 1551.67 1841.54 1555.3 Q1838.37 1558.92 1832.82 1558.92 Q1827.24 1558.92 1824.07 1555.3 Q1820.92 1551.67 1820.92 1545.3 Q1820.92 1538.92 1824.07 1535.3 Q1827.24 1531.69 1832.82 1531.69 Z" fill="#000000" fill-rule="nonzero" fill-opacity="1" /><path clip-path="url(#clip420)" d="M1873.33 1542.6 L1873.33 1558.24 L1869.07 1558.24 L1869.07 1542.74 Q1869.07 1539.05 1867.63 1537.23 Q1866.2 1535.4 1863.33 1535.4 Q1859.88 1535.4 1857.89 1537.6 Q1855.89 1539.8 1855.89 1543.59 L1855.89 1558.24 L1851.61 1558.24 L1851.61 1532.32 L1855.89 1532.32 L1855.89 1536.35 Q1857.42 1534.01 1859.48 1532.85 Q1861.57 1531.69 1864.27 1531.69 Q1868.74 1531.69 1871.03 1534.47 Q1873.33 1537.23 1873.33 1542.6 Z" fill="#000000" fill-rule="nonzero" fill-opacity="1" /><path clip-path="url(#clip420)" d="M1886.03 1524.96 L1886.03 1532.32 L1894.81 1532.32 L1894.81 1535.63 L1886.03 1535.63 L1886.03 1549.7 Q1886.03 1552.87 1886.89 1553.78 Q1887.77 1554.68 1890.43 1554.68 L1894.81 1554.68 L1894.81 1558.24 L1890.43 1558.24 Q1885.5 1558.24 1883.63 1556.42 Q1881.75 1554.56 1881.75 1549.7 L1881.75 1535.63 L1878.63 1535.63 L1878.63 1532.32 L1881.75 1532.32 L1881.75 1524.96 L1886.03 1524.96 Z" fill="#000000" fill-rule="nonzero" fill-opacity="1" /><polyline clip-path="url(#clip420)" style="stroke:#000000; stroke-linecap:round; stroke-linejoin:round; stroke-width:4; stroke-opacity:1; fill:none" points="234.709,1445.6 234.709,128.97 "/>
<polyline clip-path="url(#clip420)" style="stroke:#000000; stroke-linecap:round; stroke-linejoin:round; stroke-width:4; stroke-opacity:1; fill:none" points="234.709,1445.6 253.607,1445.6 "/>
<polyline clip-path="url(#clip420)" style="stroke:#000000; stroke-linecap:round; stroke-linejoin:round; stroke-width:4; stroke-opacity:1; fill:none" points="234.709,1153.36 253.607,1153.36 "/>
<polyline clip-path="url(#clip420)" style="stroke:#000000; stroke-linecap:round; stroke-linejoin:round; stroke-width:4; stroke-opacity:1; fill:none" points="234.709,861.11 253.607,861.11 "/>
<polyline clip-path="url(#clip420)" style="stroke:#000000; stroke-linecap:round; stroke-linejoin:round; stroke-width:4; stroke-opacity:1; fill:none" points="234.709,568.863 253.607,568.863 "/>
<polyline clip-path="url(#clip420)" style="stroke:#000000; stroke-linecap:round; stroke-linejoin:round; stroke-width:4; stroke-opacity:1; fill:none" points="234.709,276.616 253.607,276.616 "/>
<path clip-path="url(#clip420)" d="M189.765 1431.4 Q186.154 1431.4 184.325 1434.97 Q182.52 1438.51 182.52 1445.64 Q182.52 1452.75 184.325 1456.31 Q186.154 1459.85 189.765 1459.85 Q193.399 1459.85 195.205 1456.31 Q197.033 1452.75 197.033 1445.64 Q197.033 1438.51 195.205 1434.97 Q193.399 1431.4 189.765 1431.4 M189.765 1427.7 Q195.575 1427.7 198.631 1432.31 Q201.709 1436.89 201.709 1445.64 Q201.709 1454.37 198.631 1458.97 Q195.575 1463.56 189.765 1463.56 Q183.955 1463.56 180.876 1458.97 Q177.821 1454.37 177.821 1445.64 Q177.821 1436.89 180.876 1432.31 Q183.955 1427.7 189.765 1427.7 Z" fill="#000000" fill-rule="nonzero" fill-opacity="1" /><path clip-path="url(#clip420)" d="M154.626 1166.7 L170.946 1166.7 L170.946 1170.64 L149.001 1170.64 L149.001 1166.7 Q151.663 1163.95 156.247 1159.32 Q160.853 1154.67 162.034 1153.32 Q164.279 1150.8 165.159 1149.06 Q166.061 1147.3 166.061 1145.61 Q166.061 1142.86 164.117 1141.12 Q162.196 1139.39 159.094 1139.39 Q156.895 1139.39 154.441 1140.15 Q152.011 1140.92 149.233 1142.47 L149.233 1137.74 Q152.057 1136.61 154.511 1136.03 Q156.964 1135.45 159.001 1135.45 Q164.372 1135.45 167.566 1138.14 Q170.76 1140.82 170.76 1145.31 Q170.76 1147.44 169.95 1149.36 Q169.163 1151.26 167.057 1153.85 Q166.478 1154.53 163.376 1157.74 Q160.274 1160.94 154.626 1166.7 Z" fill="#000000" fill-rule="nonzero" fill-opacity="1" /><path clip-path="url(#clip420)" d="M180.807 1136.08 L199.163 1136.08 L199.163 1140.01 L185.089 1140.01 L185.089 1148.48 Q186.108 1148.14 187.126 1147.98 Q188.145 1147.79 189.163 1147.79 Q194.95 1147.79 198.33 1150.96 Q201.709 1154.13 201.709 1159.55 Q201.709 1165.13 198.237 1168.23 Q194.765 1171.31 188.446 1171.31 Q186.27 1171.31 184.001 1170.94 Q181.756 1170.57 179.348 1169.83 L179.348 1165.13 Q181.432 1166.26 183.654 1166.82 Q185.876 1167.37 188.353 1167.37 Q192.358 1167.37 194.695 1165.27 Q197.033 1163.16 197.033 1159.55 Q197.033 1155.94 194.695 1153.83 Q192.358 1151.73 188.353 1151.73 Q186.478 1151.73 184.603 1152.14 Q182.751 1152.56 180.807 1153.44 L180.807 1136.08 Z" fill="#000000" fill-rule="nonzero" fill-opacity="1" /><path clip-path="url(#clip420)" d="M149.649 843.83 L168.006 843.83 L168.006 847.766 L153.932 847.766 L153.932 856.238 Q154.95 855.89 155.969 855.728 Q156.987 855.543 158.006 855.543 Q163.793 855.543 167.172 858.715 Q170.552 861.886 170.552 867.302 Q170.552 872.881 167.08 875.983 Q163.608 879.062 157.288 879.062 Q155.112 879.062 152.844 878.691 Q150.599 878.321 148.191 877.58 L148.191 872.881 Q150.274 874.015 152.497 874.571 Q154.719 875.126 157.196 875.126 Q161.2 875.126 163.538 873.02 Q165.876 870.914 165.876 867.302 Q165.876 863.691 163.538 861.585 Q161.2 859.478 157.196 859.478 Q155.321 859.478 153.446 859.895 Q151.594 860.312 149.649 861.191 L149.649 843.83 Z" fill="#000000" fill-rule="nonzero" fill-opacity="1" /><path clip-path="url(#clip420)" d="M189.765 846.909 Q186.154 846.909 184.325 850.474 Q182.52 854.015 182.52 861.145 Q182.52 868.252 184.325 871.816 Q186.154 875.358 189.765 875.358 Q193.399 875.358 195.205 871.816 Q197.033 868.252 197.033 861.145 Q197.033 854.015 195.205 850.474 Q193.399 846.909 189.765 846.909 M189.765 843.205 Q195.575 843.205 198.631 847.812 Q201.709 852.395 201.709 861.145 Q201.709 869.872 198.631 874.478 Q195.575 879.062 189.765 879.062 Q183.955 879.062 180.876 874.478 Q177.821 869.872 177.821 861.145 Q177.821 852.395 180.876 847.812 Q183.955 843.205 189.765 843.205 Z" fill="#000000" fill-rule="nonzero" fill-opacity="1" /><path clip-path="url(#clip420)" d="M149.418 551.583 L171.64 551.583 L171.64 553.574 L159.094 586.143 L154.21 586.143 L166.015 555.519 L149.418 555.519 L149.418 551.583 Z" fill="#000000" fill-rule="nonzero" fill-opacity="1" /><path clip-path="url(#clip420)" d="M180.807 551.583 L199.163 551.583 L199.163 555.519 L185.089 555.519 L185.089 563.991 Q186.108 563.644 187.126 563.482 Q188.145 563.296 189.163 563.296 Q194.95 563.296 198.33 566.468 Q201.709 569.639 201.709 575.056 Q201.709 580.634 198.237 583.736 Q194.765 586.815 188.446 586.815 Q186.27 586.815 184.001 586.444 Q181.756 586.074 179.348 585.333 L179.348 580.634 Q181.432 581.768 183.654 582.324 Q185.876 582.88 188.353 582.88 Q192.358 582.88 194.695 580.773 Q197.033 578.667 197.033 575.056 Q197.033 571.444 194.695 569.338 Q192.358 567.231 188.353 567.231 Q186.478 567.231 184.603 567.648 Q182.751 568.065 180.807 568.944 L180.807 551.583 Z" fill="#000000" fill-rule="nonzero" fill-opacity="1" /><path clip-path="url(#clip420)" d="M120.251 289.961 L127.89 289.961 L127.89 263.596 L119.58 265.262 L119.58 261.003 L127.844 259.336 L132.52 259.336 L132.52 289.961 L140.159 289.961 L140.159 293.896 L120.251 293.896 L120.251 289.961 Z" fill="#000000" fill-rule="nonzero" fill-opacity="1" /><path clip-path="url(#clip420)" d="M159.603 262.415 Q155.992 262.415 154.163 265.98 Q152.358 269.522 152.358 276.651 Q152.358 283.758 154.163 287.322 Q155.992 290.864 159.603 290.864 Q163.237 290.864 165.043 287.322 Q166.872 283.758 166.872 276.651 Q166.872 269.522 165.043 265.98 Q163.237 262.415 159.603 262.415 M159.603 258.711 Q165.413 258.711 168.469 263.318 Q171.547 267.901 171.547 276.651 Q171.547 285.378 168.469 289.984 Q165.413 294.568 159.603 294.568 Q153.793 294.568 150.714 289.984 Q147.659 285.378 147.659 276.651 Q147.659 267.901 150.714 263.318 Q153.793 258.711 159.603 258.711 Z" fill="#000000" fill-rule="nonzero" fill-opacity="1" /><path clip-path="url(#clip420)" d="M189.765 262.415 Q186.154 262.415 184.325 265.98 Q182.52 269.522 182.52 276.651 Q182.52 283.758 184.325 287.322 Q186.154 290.864 189.765 290.864 Q193.399 290.864 195.205 287.322 Q197.033 283.758 197.033 276.651 Q197.033 269.522 195.205 265.98 Q193.399 262.415 189.765 262.415 M189.765 258.711 Q195.575 258.711 198.631 263.318 Q201.709 267.901 201.709 276.651 Q201.709 285.378 198.631 289.984 Q195.575 294.568 189.765 294.568 Q183.955 294.568 180.876 289.984 Q177.821 285.378 177.821 276.651 Q177.821 267.901 180.876 263.318 Q183.955 258.711 189.765 258.711 Z" fill="#000000" fill-rule="nonzero" fill-opacity="1" /><path clip-path="url(#clip420)" d="M24.8042 1138.28 L24.8042 1128.7 L57.1419 1116.57 L24.8042 1104.38 L24.8042 1094.8 L72.3242 1094.8 L72.3242 1101.07 L30.597 1101.07 L63.1894 1113.32 L63.1894 1119.78 L30.597 1132.04 L72.3242 1132.04 L72.3242 1138.28 L24.8042 1138.28 Z" fill="#000000" fill-rule="nonzero" fill-opacity="1" /><path clip-path="url(#clip420)" d="M36.6762 1082.29 L36.6762 1076.43 L72.3242 1076.43 L72.3242 1082.29 L36.6762 1082.29 M22.799 1082.29 L22.799 1076.43 L30.215 1076.43 L30.215 1082.29 L22.799 1082.29 Z" fill="#000000" fill-rule="nonzero" fill-opacity="1" /><path clip-path="url(#clip420)" d="M22.799 1064.18 L22.799 1058.32 L72.3242 1058.32 L72.3242 1064.18 L22.799 1064.18 Z" fill="#000000" fill-rule="nonzero" fill-opacity="1" /><path clip-path="url(#clip420)" d="M22.799 1046.07 L22.799 1040.21 L72.3242 1040.21 L72.3242 1046.07 L22.799 1046.07 Z" fill="#000000" fill-rule="nonzero" fill-opacity="1" /><path clip-path="url(#clip420)" d="M36.6762 1027.96 L36.6762 1022.1 L72.3242 1022.1 L72.3242 1027.96 L36.6762 1027.96 M22.799 1027.96 L22.799 1022.1 L30.215 1022.1 L30.215 1027.96 L22.799 1027.96 Z" fill="#000000" fill-rule="nonzero" fill-opacity="1" /><path clip-path="url(#clip420)" d="M40.7821 996.035 Q40.7821 1000.75 44.4742 1003.48 Q48.1345 1006.22 54.532 1006.22 Q60.9295 1006.22 64.6217 1003.51 Q68.2819 1000.78 68.2819 996.035 Q68.2819 991.356 64.5898 988.619 Q60.8977 985.881 54.532 985.881 Q48.1981 985.881 44.506 988.619 Q40.7821 991.356 40.7821 996.035 M35.8168 996.035 Q35.8168 988.396 40.7821 984.035 Q45.7473 979.675 54.532 979.675 Q63.2849 979.675 68.2819 984.035 Q73.2472 988.396 73.2472 996.035 Q73.2472 1003.71 68.2819 1008.07 Q63.2849 1012.39 54.532 1012.39 Q45.7473 1012.39 40.7821 1008.07 Q35.8168 1003.71 35.8168 996.035 Z" fill="#000000" fill-rule="nonzero" fill-opacity="1" /><path clip-path="url(#clip420)" d="M50.8081 940.335 L72.3242 940.335 L72.3242 946.191 L50.999 946.191 Q45.9383 946.191 43.4238 948.165 Q40.9094 950.138 40.9094 954.085 Q40.9094 958.827 43.9331 961.564 Q46.9568 964.302 52.1767 964.302 L72.3242 964.302 L72.3242 970.19 L36.6762 970.19 L36.6762 964.302 L42.2144 964.302 Q38.9997 962.201 37.4083 959.368 Q35.8168 956.504 35.8168 952.78 Q35.8168 946.637 39.6363 943.486 Q43.4238 940.335 50.8081 940.335 Z" fill="#000000" fill-rule="nonzero" fill-opacity="1" /><path clip-path="url(#clip420)" d="M30.0877 901.249 L47.9435 901.249 L47.9435 893.165 Q47.9435 888.677 45.62 886.226 Q43.2965 883.775 38.9997 883.775 Q34.7347 883.775 32.4112 886.226 Q30.0877 888.677 30.0877 893.165 L30.0877 901.249 M24.8042 907.679 L24.8042 893.165 Q24.8042 885.176 28.4326 881.102 Q32.0292 876.996 38.9997 876.996 Q46.0338 876.996 49.6304 881.102 Q53.227 885.176 53.227 893.165 L53.227 901.249 L72.3242 901.249 L72.3242 907.679 L24.8042 907.679 Z" fill="#000000" fill-rule="nonzero" fill-opacity="1" /><path clip-path="url(#clip420)" d="M54.4047 855.353 Q54.4047 862.45 56.0279 865.188 Q57.6512 867.925 61.5661 867.925 Q64.6853 867.925 66.5314 865.888 Q68.3456 863.819 68.3456 860.286 Q68.3456 855.416 64.9081 852.488 Q61.4388 849.528 55.7097 849.528 L54.4047 849.528 L54.4047 855.353 M51.9857 843.672 L72.3242 843.672 L72.3242 849.528 L66.9133 849.528 Q70.1598 851.533 71.7194 854.525 Q73.2472 857.517 73.2472 861.846 Q73.2472 867.32 70.1916 870.567 Q67.1043 873.781 61.9481 873.781 Q55.9325 873.781 52.8769 869.771 Q49.8214 865.729 49.8214 857.74 L49.8214 849.528 L49.2485 849.528 Q45.2062 849.528 43.0101 852.202 Q40.7821 854.843 40.7821 859.649 Q40.7821 862.705 41.5141 865.601 Q42.2462 868.498 43.7103 871.171 L38.2995 871.171 Q37.0581 867.957 36.4534 864.933 Q35.8168 861.909 35.8168 859.045 Q35.8168 851.31 39.8272 847.491 Q43.8376 843.672 51.9857 843.672 Z" fill="#000000" fill-rule="nonzero" fill-opacity="1" /><path clip-path="url(#clip420)" d="M58.2559 832.213 L36.6762 832.213 L36.6762 826.357 L58.0331 826.357 Q63.0939 826.357 65.6402 824.383 Q68.1546 822.41 68.1546 818.463 Q68.1546 813.721 65.1309 810.984 Q62.1072 808.215 56.8873 808.215 L36.6762 808.215 L36.6762 802.358 L72.3242 802.358 L72.3242 808.215 L66.8496 808.215 Q70.0962 810.347 71.6876 813.18 Q73.2472 815.981 73.2472 819.705 Q73.2472 825.848 69.4278 829.03 Q65.6083 832.213 58.2559 832.213 M35.8168 817.477 L35.8168 817.477 Z" fill="#000000" fill-rule="nonzero" fill-opacity="1" /><path clip-path="url(#clip420)" d="M22.799 790.295 L22.799 784.439 L72.3242 784.439 L72.3242 790.295 L22.799 790.295 Z" fill="#000000" fill-rule="nonzero" fill-opacity="1" /><path clip-path="url(#clip420)" d="M36.6762 772.185 L36.6762 766.328 L72.3242 766.328 L72.3242 772.185 L36.6762 772.185 M22.799 772.185 L22.799 766.328 L30.215 766.328 L30.215 772.185 L22.799 772.185 Z" fill="#000000" fill-rule="nonzero" fill-opacity="1" /><path clip-path="url(#clip420)" d="M37.7265 731.349 L43.2647 731.349 Q41.9916 733.831 41.355 736.505 Q40.7184 739.178 40.7184 742.043 Q40.7184 746.404 42.0552 748.6 Q43.392 750.764 46.0656 750.764 Q48.1026 750.764 49.2803 749.204 Q50.4261 747.645 51.4765 742.934 L51.9221 740.929 Q53.2589 734.691 55.7097 732.081 Q58.1286 729.439 62.4891 729.439 Q67.4544 729.439 70.3508 733.386 Q73.2472 737.301 73.2472 744.176 Q73.2472 747.04 72.6743 750.159 Q72.1332 753.247 71.0192 756.684 L64.9718 756.684 Q66.6587 753.438 67.518 750.287 Q68.3456 747.136 68.3456 744.048 Q68.3456 739.911 66.9451 737.683 Q65.5129 735.455 62.9347 735.455 Q60.5476 735.455 59.2745 737.078 Q58.0013 738.669 56.8237 744.112 L56.3462 746.149 Q55.2004 751.592 52.8451 754.011 Q50.458 756.43 46.3202 756.43 Q41.2913 756.43 38.5541 752.865 Q35.8168 749.3 35.8168 742.743 Q35.8168 739.497 36.2943 736.632 Q36.7717 733.768 37.7265 731.349 Z" fill="#000000" fill-rule="nonzero" fill-opacity="1" /><path clip-path="url(#clip420)" d="M24.8042 688.985 L24.8042 683.574 L78.3716 700.125 L78.3716 705.536 L24.8042 688.985 Z" fill="#000000" fill-rule="nonzero" fill-opacity="1" /><path clip-path="url(#clip420)" d="M37.7265 633.985 L43.2647 633.985 Q41.9916 636.468 41.355 639.141 Q40.7184 641.815 40.7184 644.68 Q40.7184 649.04 42.0552 651.236 Q43.392 653.401 46.0656 653.401 Q48.1026 653.401 49.2803 651.841 Q50.4261 650.281 51.4765 645.571 L51.9221 643.566 Q53.2589 637.327 55.7097 634.717 Q58.1286 632.075 62.4891 632.075 Q67.4544 632.075 70.3508 636.022 Q73.2472 639.937 73.2472 646.812 Q73.2472 649.677 72.6743 652.796 Q72.1332 655.883 71.0192 659.321 L64.9718 659.321 Q66.6587 656.074 67.518 652.923 Q68.3456 649.772 68.3456 646.685 Q68.3456 642.547 66.9451 640.319 Q65.5129 638.091 62.9347 638.091 Q60.5476 638.091 59.2745 639.714 Q58.0013 641.306 56.8237 646.748 L56.3462 648.785 Q55.2004 654.228 52.8451 656.647 Q50.458 659.066 46.3202 659.066 Q41.2913 659.066 38.5541 655.501 Q35.8168 651.936 35.8168 645.38 Q35.8168 642.133 36.2943 639.269 Q36.7717 636.404 37.7265 633.985 Z" fill="#000000" fill-rule="nonzero" fill-opacity="1" /><path clip-path="url(#clip420)" d="M53.0361 592.258 L55.9006 592.258 L55.9006 619.185 Q61.9481 618.803 65.1309 615.556 Q68.2819 612.278 68.2819 606.453 Q68.2819 603.08 67.4544 599.929 Q66.6269 596.746 64.9718 593.627 L70.5099 593.627 Q71.8467 596.778 72.547 600.088 Q73.2472 603.398 73.2472 606.804 Q73.2472 615.334 68.2819 620.331 Q63.3167 625.296 54.8503 625.296 Q46.0974 625.296 40.9731 620.585 Q35.8168 615.843 35.8168 607.822 Q35.8168 600.629 40.4638 596.459 Q45.0789 592.258 53.0361 592.258 M51.3173 598.114 Q46.5112 598.178 43.6466 600.82 Q40.7821 603.43 40.7821 607.758 Q40.7821 612.66 43.5512 615.62 Q46.3202 618.548 51.3492 618.994 L51.3173 598.114 Z" fill="#000000" fill-rule="nonzero" fill-opacity="1" /><path clip-path="url(#clip420)" d="M38.0448 556.992 L43.5193 556.992 Q42.1507 559.475 41.4823 561.989 Q40.7821 564.472 40.7821 567.018 Q40.7821 572.715 44.4105 575.866 Q48.0072 579.017 54.532 579.017 Q61.0569 579.017 64.6853 575.866 Q68.2819 572.715 68.2819 567.018 Q68.2819 564.472 67.6135 561.989 Q66.9133 559.475 65.5447 556.992 L70.9555 556.992 Q72.1014 559.443 72.6743 562.084 Q73.2472 564.694 73.2472 567.654 Q73.2472 575.707 68.1864 580.45 Q63.1257 585.192 54.532 585.192 Q45.811 585.192 40.8139 580.418 Q35.8168 575.612 35.8168 567.273 Q35.8168 564.567 36.3897 561.989 Q36.9308 559.411 38.0448 556.992 Z" fill="#000000" fill-rule="nonzero" fill-opacity="1" /><path clip-path="url(#clip420)" d="M40.7821 532.993 Q40.7821 537.704 44.4742 540.441 Q48.1345 543.178 54.532 543.178 Q60.9295 543.178 64.6217 540.473 Q68.2819 537.736 68.2819 532.993 Q68.2819 528.314 64.5898 525.577 Q60.8977 522.84 54.532 522.84 Q48.1981 522.84 44.506 525.577 Q40.7821 528.314 40.7821 532.993 M35.8168 532.993 Q35.8168 525.354 40.7821 520.994 Q45.7473 516.633 54.532 516.633 Q63.2849 516.633 68.2819 520.994 Q73.2472 525.354 73.2472 532.993 Q73.2472 540.664 68.2819 545.024 Q63.2849 549.353 54.532 549.353 Q45.7473 549.353 40.7821 545.024 Q35.8168 540.664 35.8168 532.993 Z" fill="#000000" fill-rule="nonzero" fill-opacity="1" /><path clip-path="url(#clip420)" d="M50.8081 477.293 L72.3242 477.293 L72.3242 483.15 L50.999 483.15 Q45.9383 483.15 43.4238 485.123 Q40.9094 487.096 40.9094 491.043 Q40.9094 495.786 43.9331 498.523 Q46.9568 501.26 52.1767 501.26 L72.3242 501.26 L72.3242 507.148 L36.6762 507.148 L36.6762 501.26 L42.2144 501.26 Q38.9997 499.159 37.4083 496.327 Q35.8168 493.462 35.8168 489.738 Q35.8168 483.595 39.6363 480.444 Q43.4238 477.293 50.8081 477.293 Z" fill="#000000" fill-rule="nonzero" fill-opacity="1" /><path clip-path="url(#clip420)" d="M42.0871 442.155 L22.799 442.155 L22.799 436.298 L72.3242 436.298 L72.3242 442.155 L66.977 442.155 Q70.1598 444.001 71.7194 446.833 Q73.2472 449.634 73.2472 453.581 Q73.2472 460.042 68.091 464.116 Q62.9347 468.158 54.532 468.158 Q46.1293 468.158 40.9731 464.116 Q35.8168 460.042 35.8168 453.581 Q35.8168 449.634 37.3764 446.833 Q38.9042 444.001 42.0871 442.155 M54.532 462.111 Q60.9932 462.111 64.6853 459.469 Q68.3456 456.796 68.3456 452.149 Q68.3456 447.502 64.6853 444.828 Q60.9932 442.155 54.532 442.155 Q48.0708 442.155 44.4105 444.828 Q40.7184 447.502 40.7184 452.149 Q40.7184 456.796 44.4105 459.469 Q48.0708 462.111 54.532 462.111 Z" fill="#000000" fill-rule="nonzero" fill-opacity="1" /><path clip-path="url(#clip420)" d="M365.323 18.8205 L365.323 41.5461 L375.612 41.5461 Q381.324 41.5461 384.443 38.5889 Q387.562 35.6318 387.562 30.163 Q387.562 24.7348 384.443 21.7777 Q381.324 18.8205 375.612 18.8205 L365.323 18.8205 M357.14 12.096 L375.612 12.096 Q385.78 12.096 390.965 16.714 Q396.191 21.2916 396.191 30.163 Q396.191 39.1155 390.965 43.6931 Q385.78 48.2706 375.612 48.2706 L365.323 48.2706 L365.323 72.576 L357.14 72.576 L357.14 12.096 Z" fill="#000000" fill-rule="nonzero" fill-opacity="1" /><path clip-path="url(#clip420)" d="M423.737 49.7694 Q414.703 49.7694 411.219 51.8354 Q407.736 53.9013 407.736 58.8839 Q407.736 62.8538 410.328 65.2034 Q412.961 67.5124 417.458 67.5124 Q423.656 67.5124 427.383 63.1374 Q431.15 58.7219 431.15 51.4303 L431.15 49.7694 L423.737 49.7694 M438.604 46.6907 L438.604 72.576 L431.15 72.576 L431.15 65.6895 Q428.598 69.8214 424.79 71.8063 Q420.982 73.7508 415.473 73.7508 Q408.505 73.7508 404.373 69.8619 Q400.282 65.9325 400.282 59.3701 Q400.282 51.7138 405.386 47.825 Q410.531 43.9361 420.699 43.9361 L431.15 43.9361 L431.15 43.2069 Q431.15 38.0623 427.747 35.2672 Q424.385 32.4315 418.268 32.4315 Q414.379 32.4315 410.693 33.3632 Q407.007 34.295 403.604 36.1584 L403.604 29.2718 Q407.695 27.692 411.544 26.9223 Q415.392 26.1121 419.038 26.1121 Q428.881 26.1121 433.742 31.2163 Q438.604 36.3204 438.604 46.6907 Z" fill="#000000" fill-rule="nonzero" fill-opacity="1" /><path clip-path="url(#clip420)" d="M453.187 54.671 L453.187 27.2059 L460.64 27.2059 L460.64 54.3874 Q460.64 60.8284 463.152 64.0691 Q465.664 67.2693 470.687 67.2693 Q476.723 67.2693 480.206 63.421 Q483.731 59.5726 483.731 52.9291 L483.731 27.2059 L491.184 27.2059 L491.184 72.576 L483.731 72.576 L483.731 65.6084 Q481.017 69.7404 477.411 71.7658 Q473.846 73.7508 469.107 73.7508 Q461.289 73.7508 457.238 68.8897 Q453.187 64.0286 453.187 54.671 M471.943 26.1121 L471.943 26.1121 Z" fill="#000000" fill-rule="nonzero" fill-opacity="1" /><path clip-path="url(#clip420)" d="M506.537 9.54393 L513.991 9.54393 L513.991 72.576 L506.537 72.576 L506.537 9.54393 Z" fill="#000000" fill-rule="nonzero" fill-opacity="1" /><path clip-path="url(#clip420)" d="M529.587 27.2059 L537.041 27.2059 L537.041 72.576 L529.587 72.576 L529.587 27.2059 M529.587 9.54393 L537.041 9.54393 L537.041 18.9825 L529.587 18.9825 L529.587 9.54393 Z" fill="#000000" fill-rule="nonzero" fill-opacity="1" /><path clip-path="url(#clip420)" d="M581.56 28.5427 L581.56 35.5912 Q578.4 33.9709 574.998 33.1607 Q571.595 32.3505 567.949 32.3505 Q562.399 32.3505 559.604 34.0519 Q556.849 35.7533 556.849 39.156 Q556.849 41.7486 558.834 43.2475 Q560.819 44.7058 566.815 46.0426 L569.367 46.6097 Q577.307 48.3111 580.628 51.4303 Q583.991 54.509 583.991 60.0587 Q583.991 66.3781 578.967 70.0644 Q573.985 73.7508 565.235 73.7508 Q561.589 73.7508 557.619 73.0216 Q553.69 72.3329 549.315 70.9151 L549.315 63.2184 Q553.447 65.3654 557.457 66.4591 Q561.467 67.5124 565.397 67.5124 Q570.663 67.5124 573.499 65.73 Q576.334 63.9071 576.334 60.6258 Q576.334 57.5877 574.268 55.9673 Q572.243 54.3469 565.316 52.8481 L562.723 52.2405 Q555.796 50.7821 552.718 47.7845 Q549.639 44.7463 549.639 39.4801 Q549.639 33.0797 554.176 29.5959 Q558.713 26.1121 567.058 26.1121 Q571.19 26.1121 574.835 26.7198 Q578.481 27.3274 581.56 28.5427 Z" fill="#000000" fill-rule="nonzero" fill-opacity="1" /><path clip-path="url(#clip420)" d="M642.85 49.7694 Q633.817 49.7694 630.333 51.8354 Q626.849 53.9013 626.849 58.8839 Q626.849 62.8538 629.442 65.2034 Q632.075 67.5124 636.571 67.5124 Q642.769 67.5124 646.496 63.1374 Q650.263 58.7219 650.263 51.4303 L650.263 49.7694 L642.85 49.7694 M657.717 46.6907 L657.717 72.576 L650.263 72.576 L650.263 65.6895 Q647.711 69.8214 643.903 71.8063 Q640.096 73.7508 634.586 73.7508 Q627.619 73.7508 623.487 69.8619 Q619.395 65.9325 619.395 59.3701 Q619.395 51.7138 624.5 47.825 Q629.644 43.9361 639.812 43.9361 L650.263 43.9361 L650.263 43.2069 Q650.263 38.0623 646.861 35.2672 Q643.498 32.4315 637.381 32.4315 Q633.493 32.4315 629.806 33.3632 Q626.12 34.295 622.717 36.1584 L622.717 29.2718 Q626.809 27.692 630.657 26.9223 Q634.505 26.1121 638.151 26.1121 Q647.995 26.1121 652.856 31.2163 Q657.717 36.3204 657.717 46.6907 Z" fill="#000000" fill-rule="nonzero" fill-opacity="1" /><path clip-path="url(#clip420)" d="M680.281 65.7705 L680.281 89.8329 L672.786 89.8329 L672.786 27.2059 L680.281 27.2059 L680.281 34.0924 Q682.63 30.0415 686.195 28.0971 Q689.8 26.1121 694.783 26.1121 Q703.047 26.1121 708.191 32.6746 Q713.376 39.2371 713.376 49.9314 Q713.376 60.6258 708.191 67.1883 Q703.047 73.7508 694.783 73.7508 Q689.8 73.7508 686.195 71.8063 Q682.63 69.8214 680.281 65.7705 M705.639 49.9314 Q705.639 41.7081 702.236 37.0496 Q698.874 32.3505 692.96 32.3505 Q687.046 32.3505 683.643 37.0496 Q680.281 41.7081 680.281 49.9314 Q680.281 58.1548 683.643 62.8538 Q687.046 67.5124 692.96 67.5124 Q698.874 67.5124 702.236 62.8538 Q705.639 58.1548 705.639 49.9314 Z" fill="#000000" fill-rule="nonzero" fill-opacity="1" /><path clip-path="url(#clip420)" d="M732.942 65.7705 L732.942 89.8329 L725.448 89.8329 L725.448 27.2059 L732.942 27.2059 L732.942 34.0924 Q735.292 30.0415 738.857 28.0971 Q742.462 26.1121 747.445 26.1121 Q755.708 26.1121 760.853 32.6746 Q766.038 39.2371 766.038 49.9314 Q766.038 60.6258 760.853 67.1883 Q755.708 73.7508 747.445 73.7508 Q742.462 73.7508 738.857 71.8063 Q735.292 69.8214 732.942 65.7705 M758.301 49.9314 Q758.301 41.7081 754.898 37.0496 Q751.536 32.3505 745.622 32.3505 Q739.707 32.3505 736.305 37.0496 Q732.942 41.7081 732.942 49.9314 Q732.942 58.1548 736.305 62.8538 Q739.707 67.5124 745.622 67.5124 Q751.536 67.5124 754.898 62.8538 Q758.301 58.1548 758.301 49.9314 Z" fill="#000000" fill-rule="nonzero" fill-opacity="1" /><path clip-path="url(#clip420)" d="M778.393 9.54393 L785.847 9.54393 L785.847 72.576 L778.393 72.576 L778.393 9.54393 Z" fill="#000000" fill-rule="nonzero" fill-opacity="1" /><path clip-path="url(#clip420)" d="M801.443 27.2059 L808.897 27.2059 L808.897 72.576 L801.443 72.576 L801.443 27.2059 M801.443 9.54393 L808.897 9.54393 L808.897 18.9825 L801.443 18.9825 L801.443 9.54393 Z" fill="#000000" fill-rule="nonzero" fill-opacity="1" /><path clip-path="url(#clip420)" d="M863.3 48.0275 L863.3 51.6733 L829.03 51.6733 Q829.516 59.3701 833.648 63.421 Q837.82 67.4314 845.233 67.4314 Q849.527 67.4314 853.538 66.3781 Q857.589 65.3249 861.558 63.2184 L861.558 70.267 Q857.548 71.9684 853.335 72.8596 Q849.122 73.7508 844.788 73.7508 Q833.931 73.7508 827.571 67.4314 Q821.252 61.1119 821.252 50.3365 Q821.252 39.1965 827.247 32.6746 Q833.283 26.1121 843.491 26.1121 Q852.646 26.1121 857.953 32.0264 Q863.3 37.9003 863.3 48.0275 M855.847 45.84 Q855.766 39.7232 852.403 36.0774 Q849.082 32.4315 843.572 32.4315 Q837.334 32.4315 833.567 35.9558 Q829.84 39.4801 829.273 45.8805 L855.847 45.84 Z" fill="#000000" fill-rule="nonzero" fill-opacity="1" /><path clip-path="url(#clip420)" d="M905.389 34.0924 L905.389 9.54393 L912.843 9.54393 L912.843 72.576 L905.389 72.576 L905.389 65.7705 Q903.04 69.8214 899.434 71.8063 Q895.87 73.7508 890.847 73.7508 Q882.623 73.7508 877.438 67.1883 Q872.293 60.6258 872.293 49.9314 Q872.293 39.2371 877.438 32.6746 Q882.623 26.1121 890.847 26.1121 Q895.87 26.1121 899.434 28.0971 Q903.04 30.0415 905.389 34.0924 M879.99 49.9314 Q879.99 58.1548 883.352 62.8538 Q886.755 67.5124 892.669 67.5124 Q898.584 67.5124 901.987 62.8538 Q905.389 58.1548 905.389 49.9314 Q905.389 41.7081 901.987 37.0496 Q898.584 32.3505 892.669 32.3505 Q886.755 32.3505 883.352 37.0496 Q879.99 41.7081 879.99 49.9314 Z" fill="#000000" fill-rule="nonzero" fill-opacity="1" /><path clip-path="url(#clip420)" d="M961.778 65.7705 L961.778 89.8329 L954.284 89.8329 L954.284 27.2059 L961.778 27.2059 L961.778 34.0924 Q964.127 30.0415 967.692 28.0971 Q971.297 26.1121 976.28 26.1121 Q984.544 26.1121 989.689 32.6746 Q994.874 39.2371 994.874 49.9314 Q994.874 60.6258 989.689 67.1883 Q984.544 73.7508 976.28 73.7508 Q971.297 73.7508 967.692 71.8063 Q964.127 69.8214 961.778 65.7705 M987.137 49.9314 Q987.137 41.7081 983.734 37.0496 Q980.372 32.3505 974.457 32.3505 Q968.543 32.3505 965.14 37.0496 Q961.778 41.7081 961.778 49.9314 Q961.778 58.1548 965.14 62.8538 Q968.543 67.5124 974.457 67.5124 Q980.372 67.5124 983.734 62.8538 Q987.137 58.1548 987.137 49.9314 Z" fill="#000000" fill-rule="nonzero" fill-opacity="1" /><path clip-path="url(#clip420)" d="M1046.04 48.0275 L1046.04 51.6733 L1011.77 51.6733 Q1012.25 59.3701 1016.38 63.421 Q1020.56 67.4314 1027.97 67.4314 Q1032.26 67.4314 1036.27 66.3781 Q1040.32 65.3249 1044.29 63.2184 L1044.29 70.267 Q1040.28 71.9684 1036.07 72.8596 Q1031.86 73.7508 1027.52 73.7508 Q1016.67 73.7508 1010.31 67.4314 Q1003.99 61.1119 1003.99 50.3365 Q1003.99 39.1965 1009.98 32.6746 Q1016.02 26.1121 1026.23 26.1121 Q1035.38 26.1121 1040.69 32.0264 Q1046.04 37.9003 1046.04 48.0275 M1038.58 45.84 Q1038.5 39.7232 1035.14 36.0774 Q1031.82 32.4315 1026.31 32.4315 Q1020.07 32.4315 1016.3 35.9558 Q1012.58 39.4801 1012.01 45.8805 L1038.58 45.84 Z" fill="#000000" fill-rule="nonzero" fill-opacity="1" /><path clip-path="url(#clip420)" d="M1084.56 34.1734 Q1083.3 33.4443 1081.81 33.1202 Q1080.35 32.7556 1078.57 32.7556 Q1072.25 32.7556 1068.84 36.8875 Q1065.48 40.9789 1065.48 48.6757 L1065.48 72.576 L1057.99 72.576 L1057.99 27.2059 L1065.48 27.2059 L1065.48 34.2544 Q1067.83 30.1225 1071.6 28.1376 Q1075.37 26.1121 1080.75 26.1121 Q1081.52 26.1121 1082.45 26.2337 Q1083.39 26.3147 1084.52 26.5172 L1084.56 34.1734 Z" fill="#000000" fill-rule="nonzero" fill-opacity="1" /><path clip-path="url(#clip420)" d="M1147.67 28.5427 L1147.67 35.5912 Q1144.51 33.9709 1141.11 33.1607 Q1137.71 32.3505 1134.06 32.3505 Q1128.51 32.3505 1125.72 34.0519 Q1122.96 35.7533 1122.96 39.156 Q1122.96 41.7486 1124.95 43.2475 Q1126.93 44.7058 1132.93 46.0426 L1135.48 46.6097 Q1143.42 48.3111 1146.74 51.4303 Q1150.1 54.509 1150.1 60.0587 Q1150.1 66.3781 1145.08 70.0644 Q1140.1 73.7508 1131.35 73.7508 Q1127.7 73.7508 1123.73 73.0216 Q1119.8 72.3329 1115.43 70.9151 L1115.43 63.2184 Q1119.56 65.3654 1123.57 66.4591 Q1127.58 67.5124 1131.51 67.5124 Q1136.78 67.5124 1139.61 65.73 Q1142.45 63.9071 1142.45 60.6258 Q1142.45 57.5877 1140.38 55.9673 Q1138.36 54.3469 1131.43 52.8481 L1128.84 52.2405 Q1121.91 50.7821 1118.83 47.7845 Q1115.75 44.7463 1115.75 39.4801 Q1115.75 33.0797 1120.29 29.5959 Q1124.83 26.1121 1133.17 26.1121 Q1137.3 26.1121 1140.95 26.7198 Q1144.6 27.3274 1147.67 28.5427 Z" fill="#000000" fill-rule="nonzero" fill-opacity="1" /><path clip-path="url(#clip420)" d="M1200.78 48.0275 L1200.78 51.6733 L1166.51 51.6733 Q1167 59.3701 1171.13 63.421 Q1175.3 67.4314 1182.71 67.4314 Q1187.01 67.4314 1191.02 66.3781 Q1195.07 65.3249 1199.04 63.2184 L1199.04 70.267 Q1195.03 71.9684 1190.82 72.8596 Q1186.6 73.7508 1182.27 73.7508 Q1171.41 73.7508 1165.05 67.4314 Q1158.73 61.1119 1158.73 50.3365 Q1158.73 39.1965 1164.73 32.6746 Q1170.76 26.1121 1180.97 26.1121 Q1190.13 26.1121 1195.43 32.0264 Q1200.78 37.9003 1200.78 48.0275 M1193.33 45.84 Q1193.25 39.7232 1189.88 36.0774 Q1186.56 32.4315 1181.05 32.4315 Q1174.81 32.4315 1171.05 35.9558 Q1167.32 39.4801 1166.75 45.8805 L1193.33 45.84 Z" fill="#000000" fill-rule="nonzero" fill-opacity="1" /><path clip-path="url(#clip420)" d="M1245.67 28.9478 L1245.67 35.9153 Q1242.51 34.1734 1239.31 33.3227 Q1236.15 32.4315 1232.9 32.4315 Q1225.65 32.4315 1221.64 37.0496 Q1217.63 41.6271 1217.63 49.9314 Q1217.63 58.2358 1221.64 62.8538 Q1225.65 67.4314 1232.9 67.4314 Q1236.15 67.4314 1239.31 66.5807 Q1242.51 65.6895 1245.67 63.9476 L1245.67 70.8341 Q1242.55 72.2924 1239.18 73.0216 Q1235.86 73.7508 1232.09 73.7508 Q1221.85 73.7508 1215.81 67.3098 Q1209.77 60.8689 1209.77 49.9314 Q1209.77 38.832 1215.85 32.472 Q1221.97 26.1121 1232.58 26.1121 Q1236.02 26.1121 1239.31 26.8413 Q1242.59 27.5299 1245.67 28.9478 Z" fill="#000000" fill-rule="nonzero" fill-opacity="1" /><path clip-path="url(#clip420)" d="M1276.21 32.4315 Q1270.21 32.4315 1266.73 37.1306 Q1263.25 41.7891 1263.25 49.9314 Q1263.25 58.0738 1266.69 62.7728 Q1270.17 67.4314 1276.21 67.4314 Q1282.16 67.4314 1285.65 62.7323 Q1289.13 58.0333 1289.13 49.9314 Q1289.13 41.8701 1285.65 37.1711 Q1282.16 32.4315 1276.21 32.4315 M1276.21 26.1121 Q1285.93 26.1121 1291.48 32.4315 Q1297.03 38.7509 1297.03 49.9314 Q1297.03 61.0714 1291.48 67.4314 Q1285.93 73.7508 1276.21 73.7508 Q1266.45 73.7508 1260.9 67.4314 Q1255.39 61.0714 1255.39 49.9314 Q1255.39 38.7509 1260.9 32.4315 Q1266.45 26.1121 1276.21 26.1121 Z" fill="#000000" fill-rule="nonzero" fill-opacity="1" /><path clip-path="url(#clip420)" d="M1347.1 45.1919 L1347.1 72.576 L1339.65 72.576 L1339.65 45.4349 Q1339.65 38.994 1337.13 35.7938 Q1334.62 32.5936 1329.6 32.5936 Q1323.56 32.5936 1320.08 36.4419 Q1316.6 40.2903 1316.6 46.9338 L1316.6 72.576 L1309.1 72.576 L1309.1 27.2059 L1316.6 27.2059 L1316.6 34.2544 Q1319.27 30.163 1322.88 28.1376 Q1326.52 26.1121 1331.26 26.1121 Q1339.08 26.1121 1343.09 30.9732 Q1347.1 35.7938 1347.1 45.1919 Z" fill="#000000" fill-rule="nonzero" fill-opacity="1" /><path clip-path="url(#clip420)" d="M1391.82 34.0924 L1391.82 9.54393 L1399.28 9.54393 L1399.28 72.576 L1391.82 72.576 L1391.82 65.7705 Q1389.47 69.8214 1385.87 71.8063 Q1382.3 73.7508 1377.28 73.7508 Q1369.06 73.7508 1363.87 67.1883 Q1358.73 60.6258 1358.73 49.9314 Q1358.73 39.2371 1363.87 32.6746 Q1369.06 26.1121 1377.28 26.1121 Q1382.3 26.1121 1385.87 28.0971 Q1389.47 30.0415 1391.82 34.0924 M1366.42 49.9314 Q1366.42 58.1548 1369.78 62.8538 Q1373.19 67.5124 1379.1 67.5124 Q1385.02 67.5124 1388.42 62.8538 Q1391.82 58.1548 1391.82 49.9314 Q1391.82 41.7081 1388.42 37.0496 Q1385.02 32.3505 1379.1 32.3505 Q1373.19 32.3505 1369.78 37.0496 Q1366.42 41.7081 1366.42 49.9314 Z" fill="#000000" fill-rule="nonzero" fill-opacity="1" /><path clip-path="url(#clip420)" d="M1416.53 62.2867 L1425.08 62.2867 L1425.08 69.2543 L1418.44 82.2172 L1413.21 82.2172 L1416.53 69.2543 L1416.53 62.2867 Z" fill="#000000" fill-rule="nonzero" fill-opacity="1" /><path clip-path="url(#clip420)" d="M1467.37 9.54393 L1474.82 9.54393 L1474.82 72.576 L1467.37 72.576 L1467.37 9.54393 Z" fill="#000000" fill-rule="nonzero" fill-opacity="1" /><path clip-path="url(#clip420)" d="M1511.04 49.7694 Q1502.01 49.7694 1498.52 51.8354 Q1495.04 53.9013 1495.04 58.8839 Q1495.04 62.8538 1497.63 65.2034 Q1500.26 67.5124 1504.76 67.5124 Q1510.96 67.5124 1514.69 63.1374 Q1518.45 58.7219 1518.45 51.4303 L1518.45 49.7694 L1511.04 49.7694 M1525.91 46.6907 L1525.91 72.576 L1518.45 72.576 L1518.45 65.6895 Q1515.9 69.8214 1512.09 71.8063 Q1508.29 73.7508 1502.78 73.7508 Q1495.81 73.7508 1491.68 69.8619 Q1487.59 65.9325 1487.59 59.3701 Q1487.59 51.7138 1492.69 47.825 Q1497.83 43.9361 1508 43.9361 L1518.45 43.9361 L1518.45 43.2069 Q1518.45 38.0623 1515.05 35.2672 Q1511.69 32.4315 1505.57 32.4315 Q1501.68 32.4315 1498 33.3632 Q1494.31 34.295 1490.91 36.1584 L1490.91 29.2718 Q1495 27.692 1498.85 26.9223 Q1502.7 26.1121 1506.34 26.1121 Q1516.18 26.1121 1521.05 31.2163 Q1525.91 36.3204 1525.91 46.6907 Z" fill="#000000" fill-rule="nonzero" fill-opacity="1" /><path clip-path="url(#clip420)" d="M1560.14 76.7889 Q1556.98 84.8907 1553.98 87.3618 Q1550.98 89.8329 1545.96 89.8329 L1540 89.8329 L1540 83.5945 L1544.38 83.5945 Q1547.46 83.5945 1549.16 82.1361 Q1550.86 80.6778 1552.93 75.2496 L1554.26 71.8468 L1535.91 27.2059 L1543.81 27.2059 L1557.99 62.6918 L1572.17 27.2059 L1580.07 27.2059 L1560.14 76.7889 Z" fill="#000000" fill-rule="nonzero" fill-opacity="1" /><path clip-path="url(#clip420)" d="M1629.16 48.0275 L1629.16 51.6733 L1594.89 51.6733 Q1595.38 59.3701 1599.51 63.421 Q1603.68 67.4314 1611.1 67.4314 Q1615.39 67.4314 1619.4 66.3781 Q1623.45 65.3249 1627.42 63.2184 L1627.42 70.267 Q1623.41 71.9684 1619.2 72.8596 Q1614.99 73.7508 1610.65 73.7508 Q1599.8 73.7508 1593.44 67.4314 Q1587.12 61.1119 1587.12 50.3365 Q1587.12 39.1965 1593.11 32.6746 Q1599.15 26.1121 1609.36 26.1121 Q1618.51 26.1121 1623.82 32.0264 Q1629.16 37.9003 1629.16 48.0275 M1621.71 45.84 Q1621.63 39.7232 1618.27 36.0774 Q1614.95 32.4315 1609.44 32.4315 Q1603.2 32.4315 1599.43 35.9558 Q1595.7 39.4801 1595.14 45.8805 L1621.71 45.84 Z" fill="#000000" fill-rule="nonzero" fill-opacity="1" /><path clip-path="url(#clip420)" d="M1667.69 34.1734 Q1666.43 33.4443 1664.93 33.1202 Q1663.48 32.7556 1661.69 32.7556 Q1655.37 32.7556 1651.97 36.8875 Q1648.61 40.9789 1648.61 48.6757 L1648.61 72.576 L1641.11 72.576 L1641.11 27.2059 L1648.61 27.2059 L1648.61 34.2544 Q1650.96 30.1225 1654.73 28.1376 Q1658.49 26.1121 1663.88 26.1121 Q1664.65 26.1121 1665.58 26.2337 Q1666.51 26.3147 1667.65 26.5172 L1667.69 34.1734 Z" fill="#000000" fill-rule="nonzero" fill-opacity="1" /><path clip-path="url(#clip420)" d="M1734.45 49.9314 Q1734.45 41.7081 1731.04 37.0496 Q1727.68 32.3505 1721.77 32.3505 Q1715.85 32.3505 1712.45 37.0496 Q1709.09 41.7081 1709.09 49.9314 Q1709.09 58.1548 1712.45 62.8538 Q1715.85 67.5124 1721.77 67.5124 Q1727.68 67.5124 1731.04 62.8538 Q1734.45 58.1548 1734.45 49.9314 M1709.09 34.0924 Q1711.44 30.0415 1715 28.0971 Q1718.61 26.1121 1723.59 26.1121 Q1731.85 26.1121 1737 32.6746 Q1742.18 39.2371 1742.18 49.9314 Q1742.18 60.6258 1737 67.1883 Q1731.85 73.7508 1723.59 73.7508 Q1718.61 73.7508 1715 71.8063 Q1711.44 69.8214 1709.09 65.7705 L1709.09 72.576 L1701.59 72.576 L1701.59 9.54393 L1709.09 9.54393 L1709.09 34.0924 Z" fill="#000000" fill-rule="nonzero" fill-opacity="1" /><path clip-path="url(#clip420)" d="M1773.42 76.7889 Q1770.26 84.8907 1767.26 87.3618 Q1764.26 89.8329 1759.24 89.8329 L1753.28 89.8329 L1753.28 83.5945 L1757.66 83.5945 Q1760.74 83.5945 1762.44 82.1361 Q1764.14 80.6778 1766.21 75.2496 L1767.54 71.8468 L1749.19 27.2059 L1757.09 27.2059 L1771.27 62.6918 L1785.45 27.2059 L1793.35 27.2059 L1773.42 76.7889 Z" fill="#000000" fill-rule="nonzero" fill-opacity="1" /><path clip-path="url(#clip420)" d="M1830.01 9.54393 L1837.46 9.54393 L1837.46 72.576 L1830.01 72.576 L1830.01 9.54393 Z" fill="#000000" fill-rule="nonzero" fill-opacity="1" /><path clip-path="url(#clip420)" d="M1873.68 49.7694 Q1864.64 49.7694 1861.16 51.8354 Q1857.68 53.9013 1857.68 58.8839 Q1857.68 62.8538 1860.27 65.2034 Q1862.9 67.5124 1867.4 67.5124 Q1873.6 67.5124 1877.32 63.1374 Q1881.09 58.7219 1881.09 51.4303 L1881.09 49.7694 L1873.68 49.7694 M1888.54 46.6907 L1888.54 72.576 L1881.09 72.576 L1881.09 65.6895 Q1878.54 69.8214 1874.73 71.8063 Q1870.92 73.7508 1865.41 73.7508 Q1858.45 73.7508 1854.31 69.8619 Q1850.22 65.9325 1850.22 59.3701 Q1850.22 51.7138 1855.33 47.825 Q1860.47 43.9361 1870.64 43.9361 L1881.09 43.9361 L1881.09 43.2069 Q1881.09 38.0623 1877.69 35.2672 Q1874.33 32.4315 1868.21 32.4315 Q1864.32 32.4315 1860.63 33.3632 Q1856.95 34.295 1853.54 36.1584 L1853.54 29.2718 Q1857.64 27.692 1861.48 26.9223 Q1865.33 26.1121 1868.98 26.1121 Q1878.82 26.1121 1883.68 31.2163 Q1888.54 36.3204 1888.54 46.6907 Z" fill="#000000" fill-rule="nonzero" fill-opacity="1" /><path clip-path="url(#clip420)" d="M1922.77 76.7889 Q1919.61 84.8907 1916.62 87.3618 Q1913.62 89.8329 1908.6 89.8329 L1902.64 89.8329 L1902.64 83.5945 L1907.02 83.5945 Q1910.09 83.5945 1911.8 82.1361 Q1913.5 80.6778 1915.56 75.2496 L1916.9 71.8468 L1898.55 27.2059 L1906.45 27.2059 L1920.63 62.6918 L1934.81 27.2059 L1942.7 27.2059 L1922.77 76.7889 Z" fill="#000000" fill-rule="nonzero" fill-opacity="1" /><path clip-path="url(#clip420)" d="M1991.8 48.0275 L1991.8 51.6733 L1957.53 51.6733 Q1958.02 59.3701 1962.15 63.421 Q1966.32 67.4314 1973.73 67.4314 Q1978.03 67.4314 1982.04 66.3781 Q1986.09 65.3249 1990.06 63.2184 L1990.06 70.267 Q1986.05 71.9684 1981.84 72.8596 Q1977.62 73.7508 1973.29 73.7508 Q1962.43 73.7508 1956.07 67.4314 Q1949.75 61.1119 1949.75 50.3365 Q1949.75 39.1965 1955.75 32.6746 Q1961.78 26.1121 1971.99 26.1121 Q1981.15 26.1121 1986.45 32.0264 Q1991.8 37.9003 1991.8 48.0275 M1984.35 45.84 Q1984.27 39.7232 1980.9 36.0774 Q1977.58 32.4315 1972.07 32.4315 Q1965.83 32.4315 1962.07 35.9558 Q1958.34 39.4801 1957.77 45.8805 L1984.35 45.84 Z" fill="#000000" fill-rule="nonzero" fill-opacity="1" /><path clip-path="url(#clip420)" d="M2030.33 34.1734 Q2029.07 33.4443 2027.57 33.1202 Q2026.11 32.7556 2024.33 32.7556 Q2018.01 32.7556 2014.61 36.8875 Q2011.25 40.9789 2011.25 48.6757 L2011.25 72.576 L2003.75 72.576 L2003.75 27.2059 L2011.25 27.2059 L2011.25 34.2544 Q2013.6 30.1225 2017.36 28.1376 Q2021.13 26.1121 2026.52 26.1121 Q2027.29 26.1121 2028.22 26.2337 Q2029.15 26.3147 2030.28 26.5172 L2030.33 34.1734 Z" fill="#000000" fill-rule="nonzero" fill-opacity="1" /><path clip-path="url(#clip422)" d="M340.205 -97.9448 L340.205 1445.6 L827.935 1445.6 L827.935 -97.9448 L340.205 -97.9448 L340.205 -97.9448  Z" fill="#009af9" fill-rule="evenodd" fill-opacity="1"/>
<polyline clip-path="url(#clip422)" style="stroke:#000000; stroke-linecap:round; stroke-linejoin:round; stroke-width:4; stroke-opacity:1; fill:none" points="340.205,-97.9448 340.205,1445.6 827.935,1445.6 827.935,-97.9448 340.205,-97.9448 "/>
<path clip-path="url(#clip422)" d="M949.868 -134.033 L949.868 1445.6 L1437.6 1445.6 L1437.6 -134.033 L949.868 -134.033 L949.868 -134.033  Z" fill="#009af9" fill-rule="evenodd" fill-opacity="1"/>
<polyline clip-path="url(#clip422)" style="stroke:#000000; stroke-linecap:round; stroke-linejoin:round; stroke-width:4; stroke-opacity:1; fill:none" points="949.868,-134.033 949.868,1445.6 1437.6,1445.6 1437.6,-134.033 949.868,-134.033 "/>
<path clip-path="url(#clip422)" d="M1559.53 -199.728 L1559.53 1445.6 L2047.26 1445.6 L2047.26 -199.728 L1559.53 -199.728 L1559.53 -199.728  Z" fill="#009af9" fill-rule="evenodd" fill-opacity="1"/>
<polyline clip-path="url(#clip422)" style="stroke:#000000; stroke-linecap:round; stroke-linejoin:round; stroke-width:4; stroke-opacity:1; fill:none" points="1559.53,-199.728 1559.53,1445.6 2047.26,1445.6 2047.26,-199.728 1559.53,-199.728 "/>
<path clip-path="url(#clip420)" d="M844.357 -128.728 L852.951 -128.728 L852.951 -158.389 L843.602 -156.514 L843.602 -161.306 L852.899 -163.181 L858.159 -163.181 L858.159 -128.728 L866.753 -128.728 L866.753 -124.301 L844.357 -124.301 L844.357 -128.728 Z" fill="#000000" fill-rule="nonzero" fill-opacity="1" /><path clip-path="url(#clip420)" d="M893.315 -145.264 Q897.092 -144.457 899.201 -141.905 Q901.336 -139.353 901.336 -135.603 Q901.336 -129.848 897.378 -126.697 Q893.42 -123.546 886.128 -123.546 Q883.68 -123.546 881.076 -124.04 Q878.498 -124.509 875.737 -125.473 L875.737 -130.551 Q877.925 -129.275 880.529 -128.624 Q883.133 -127.973 885.972 -127.973 Q890.92 -127.973 893.498 -129.926 Q896.102 -131.879 896.102 -135.603 Q896.102 -139.04 893.68 -140.967 Q891.284 -142.92 886.987 -142.92 L882.456 -142.92 L882.456 -147.243 L887.196 -147.243 Q891.076 -147.243 893.133 -148.78 Q895.19 -150.342 895.19 -153.259 Q895.19 -156.254 893.055 -157.842 Q890.946 -159.457 886.987 -159.457 Q884.826 -159.457 882.352 -158.988 Q879.878 -158.519 876.909 -157.53 L876.909 -162.217 Q879.904 -163.051 882.508 -163.467 Q885.138 -163.884 887.456 -163.884 Q893.446 -163.884 896.935 -161.15 Q900.425 -158.441 900.425 -153.806 Q900.425 -150.577 898.576 -148.337 Q896.727 -146.124 893.315 -145.264 Z" fill="#000000" fill-rule="nonzero" fill-opacity="1" /><path clip-path="url(#clip420)" d="M915.841 -128.728 L934.201 -128.728 L934.201 -124.301 L909.513 -124.301 L909.513 -128.728 Q912.508 -131.827 917.664 -137.035 Q922.847 -142.269 924.175 -143.78 Q926.701 -146.618 927.69 -148.571 Q928.706 -150.551 928.706 -152.452 Q928.706 -155.551 926.518 -157.504 Q924.357 -159.457 920.867 -159.457 Q918.393 -159.457 915.633 -158.597 Q912.899 -157.738 909.774 -155.993 L909.774 -161.306 Q912.951 -162.582 915.711 -163.233 Q918.472 -163.884 920.763 -163.884 Q926.805 -163.884 930.399 -160.863 Q933.992 -157.842 933.992 -152.79 Q933.992 -150.394 933.081 -148.233 Q932.195 -146.098 929.826 -143.181 Q929.175 -142.426 925.685 -138.806 Q922.196 -135.212 915.841 -128.728 Z" fill="#000000" fill-rule="nonzero" fill-opacity="1" /><path clip-path="url(#clip420)" d="M1453.68 -164.816 L1462.27 -164.816 L1462.27 -194.477 L1452.93 -192.602 L1452.93 -197.394 L1462.22 -199.269 L1467.48 -199.269 L1467.48 -164.816 L1476.08 -164.816 L1476.08 -160.389 L1453.68 -160.389 L1453.68 -164.816 Z" fill="#000000" fill-rule="nonzero" fill-opacity="1" /><path clip-path="url(#clip420)" d="M1502.64 -181.352 Q1506.42 -180.545 1508.52 -177.993 Q1510.66 -175.441 1510.66 -171.691 Q1510.66 -165.936 1506.7 -162.785 Q1502.74 -159.634 1495.45 -159.634 Q1493 -159.634 1490.4 -160.128 Q1487.82 -160.597 1485.06 -161.561 L1485.06 -166.639 Q1487.25 -165.363 1489.85 -164.712 Q1492.46 -164.061 1495.3 -164.061 Q1500.24 -164.061 1502.82 -166.014 Q1505.43 -167.967 1505.43 -171.691 Q1505.43 -175.128 1503 -177.055 Q1500.61 -179.008 1496.31 -179.008 L1491.78 -179.008 L1491.78 -183.331 L1496.52 -183.331 Q1500.4 -183.331 1502.46 -184.868 Q1504.51 -186.43 1504.51 -189.347 Q1504.51 -192.342 1502.38 -193.93 Q1500.27 -195.545 1496.31 -195.545 Q1494.15 -195.545 1491.68 -195.076 Q1489.2 -194.607 1486.23 -193.618 L1486.23 -198.305 Q1489.23 -199.139 1491.83 -199.555 Q1494.46 -199.972 1496.78 -199.972 Q1502.77 -199.972 1506.26 -197.237 Q1509.75 -194.529 1509.75 -189.894 Q1509.75 -186.665 1507.9 -184.425 Q1506.05 -182.212 1502.64 -181.352 Z" fill="#000000" fill-rule="nonzero" fill-opacity="1" /><path clip-path="url(#clip420)" d="M1520.69 -199.269 L1541.34 -199.269 L1541.34 -194.842 L1525.5 -194.842 L1525.5 -185.31 Q1526.65 -185.701 1527.8 -185.883 Q1528.94 -186.092 1530.09 -186.092 Q1536.6 -186.092 1540.4 -182.524 Q1544.2 -178.956 1544.2 -172.863 Q1544.2 -166.587 1540.3 -163.097 Q1536.39 -159.634 1529.28 -159.634 Q1526.83 -159.634 1524.28 -160.05 Q1521.75 -160.467 1519.05 -161.3 L1519.05 -166.587 Q1521.39 -165.311 1523.89 -164.686 Q1526.39 -164.061 1529.18 -164.061 Q1533.68 -164.061 1536.31 -166.43 Q1538.94 -168.8 1538.94 -172.863 Q1538.94 -176.925 1536.31 -179.295 Q1533.68 -181.665 1529.18 -181.665 Q1527.07 -181.665 1524.96 -181.196 Q1522.87 -180.727 1520.69 -179.738 L1520.69 -199.269 Z" fill="#000000" fill-rule="nonzero" fill-opacity="1" /><path clip-path="url(#clip420)" d="M2063.47 -230.511 L2072.07 -230.511 L2072.07 -260.172 L2062.72 -258.297 L2062.72 -263.089 L2072.02 -264.964 L2077.28 -264.964 L2077.28 -230.511 L2085.87 -230.511 L2085.87 -226.084 L2063.47 -226.084 L2063.47 -230.511 Z" fill="#000000" fill-rule="nonzero" fill-opacity="1" /><path clip-path="url(#clip420)" d="M2110.95 -260.38 L2097.67 -239.625 L2110.95 -239.625 L2110.95 -260.38 M2109.57 -264.964 L2116.18 -264.964 L2116.18 -239.625 L2121.73 -239.625 L2121.73 -235.25 L2116.18 -235.25 L2116.18 -226.084 L2110.95 -226.084 L2110.95 -235.25 L2093.4 -235.25 L2093.4 -240.328 L2109.57 -264.964 Z" fill="#000000" fill-rule="nonzero" fill-opacity="1" /><path clip-path="url(#clip420)" d="M2131.34 -230.511 L2139.93 -230.511 L2139.93 -260.172 L2130.58 -258.297 L2130.58 -263.089 L2139.88 -264.964 L2145.14 -264.964 L2145.14 -230.511 L2153.73 -230.511 L2153.73 -226.084 L2131.34 -226.084 L2131.34 -230.511 Z" fill="#000000" fill-rule="nonzero" fill-opacity="1" /></svg>
