<?xml version="1.0" encoding="utf-8"?>
<svg xmlns="http://www.w3.org/2000/svg" xmlns:xlink="http://www.w3.org/1999/xlink" width="600" height="400" viewBox="0 0 2400 1600">
<defs>
  <clipPath id="clip440">
    <rect x="0" y="0" width="2400" height="1600"/>
  </clipPath>
</defs>
<path clip-path="url(#clip440)" d="M0 1600 L2400 1600 L2400 0 L0 0  Z" fill="#ffffff" fill-rule="evenodd" fill-opacity="1"/>
<defs>
  <clipPath id="clip441">
    <rect x="480" y="0" width="1681" height="1600"/>
  </clipPath>
</defs>
<path clip-path="url(#clip440)" d="M251.071 1423.18 L2352.76 1423.18 L2352.76 47.2441 L251.071 47.2441  Z" fill="#ffffff" fill-rule="evenodd" fill-opacity="1"/>
<defs>
  <clipPath id="clip442">
    <rect x="251" y="47" width="2103" height="1377"/>
  </clipPath>
</defs>
<polyline clip-path="url(#clip442)" style="stroke:#000000; stroke-linecap:round; stroke-linejoin:round; stroke-width:2; stroke-opacity:0.1; fill:none" points="310.553,1423.18 310.553,47.2441 "/>
<polyline clip-path="url(#clip442)" style="stroke:#000000; stroke-linecap:round; stroke-linejoin:round; stroke-width:2; stroke-opacity:0.1; fill:none" points="707.097,1423.18 707.097,47.2441 "/>
<polyline clip-path="url(#clip442)" style="stroke:#000000; stroke-linecap:round; stroke-linejoin:round; stroke-width:2; stroke-opacity:0.1; fill:none" points="1103.64,1423.18 1103.64,47.2441 "/>
<polyline clip-path="url(#clip442)" style="stroke:#000000; stroke-linecap:round; stroke-linejoin:round; stroke-width:2; stroke-opacity:0.1; fill:none" points="1500.19,1423.18 1500.19,47.2441 "/>
<polyline clip-path="url(#clip442)" style="stroke:#000000; stroke-linecap:round; stroke-linejoin:round; stroke-width:2; stroke-opacity:0.1; fill:none" points="1896.73,1423.18 1896.73,47.2441 "/>
<polyline clip-path="url(#clip442)" style="stroke:#000000; stroke-linecap:round; stroke-linejoin:round; stroke-width:2; stroke-opacity:0.1; fill:none" points="2293.27,1423.18 2293.27,47.2441 "/>
<polyline clip-path="url(#clip442)" style="stroke:#000000; stroke-linecap:round; stroke-linejoin:round; stroke-width:2; stroke-opacity:0.1; fill:none" points="251.071,871.751 2352.76,871.751 "/>
<polyline clip-path="url(#clip442)" style="stroke:#000000; stroke-linecap:round; stroke-linejoin:round; stroke-width:2; stroke-opacity:0.1; fill:none" points="251.071,95.4913 2352.76,95.4913 "/>
<polyline clip-path="url(#clip440)" style="stroke:#000000; stroke-linecap:round; stroke-linejoin:round; stroke-width:4; stroke-opacity:1; fill:none" points="251.071,1423.18 2352.76,1423.18 "/>
<polyline clip-path="url(#clip440)" style="stroke:#000000; stroke-linecap:round; stroke-linejoin:round; stroke-width:4; stroke-opacity:1; fill:none" points="310.553,1423.18 310.553,1404.28 "/>
<polyline clip-path="url(#clip440)" style="stroke:#000000; stroke-linecap:round; stroke-linejoin:round; stroke-width:4; stroke-opacity:1; fill:none" points="707.097,1423.18 707.097,1404.28 "/>
<polyline clip-path="url(#clip440)" style="stroke:#000000; stroke-linecap:round; stroke-linejoin:round; stroke-width:4; stroke-opacity:1; fill:none" points="1103.64,1423.18 1103.64,1404.28 "/>
<polyline clip-path="url(#clip440)" style="stroke:#000000; stroke-linecap:round; stroke-linejoin:round; stroke-width:4; stroke-opacity:1; fill:none" points="1500.19,1423.18 1500.19,1404.28 "/>
<polyline clip-path="url(#clip440)" style="stroke:#000000; stroke-linecap:round; stroke-linejoin:round; stroke-width:4; stroke-opacity:1; fill:none" points="1896.73,1423.18 1896.73,1404.28 "/>
<polyline clip-path="url(#clip440)" style="stroke:#000000; stroke-linecap:round; stroke-linejoin:round; stroke-width:4; stroke-opacity:1; fill:none" points="2293.27,1423.18 2293.27,1404.28 "/>
<path clip-path="url(#clip440)" d="M299.396 1466.95 Q302.752 1467.66 304.627 1469.93 Q306.525 1472.2 306.525 1475.53 Q306.525 1480.65 303.007 1483.45 Q299.488 1486.25 293.007 1486.25 Q290.831 1486.25 288.516 1485.81 Q286.224 1485.39 283.771 1484.54 L283.771 1480.02 Q285.715 1481.16 288.03 1481.74 Q290.345 1482.32 292.868 1482.32 Q297.266 1482.32 299.558 1480.58 Q301.872 1478.84 301.872 1475.53 Q301.872 1472.48 299.72 1470.77 Q297.59 1469.03 293.771 1469.03 L289.743 1469.03 L289.743 1465.19 L293.956 1465.19 Q297.405 1465.19 299.234 1463.82 Q301.062 1462.43 301.062 1459.84 Q301.062 1457.18 299.164 1455.77 Q297.289 1454.33 293.771 1454.33 Q291.849 1454.33 289.65 1454.75 Q287.451 1455.16 284.812 1456.04 L284.812 1451.88 Q287.474 1451.14 289.789 1450.77 Q292.127 1450.39 294.187 1450.39 Q299.511 1450.39 302.613 1452.83 Q305.715 1455.23 305.715 1459.35 Q305.715 1462.22 304.071 1464.21 Q302.428 1466.18 299.396 1466.95 Z" fill="#000000" fill-rule="nonzero" fill-opacity="1" /><path clip-path="url(#clip440)" d="M325.391 1454.1 Q321.78 1454.1 319.951 1457.66 Q318.145 1461.2 318.145 1468.33 Q318.145 1475.44 319.951 1479.01 Q321.78 1482.55 325.391 1482.55 Q329.025 1482.55 330.831 1479.01 Q332.659 1475.44 332.659 1468.33 Q332.659 1461.2 330.831 1457.66 Q329.025 1454.1 325.391 1454.1 M325.391 1450.39 Q331.201 1450.39 334.256 1455 Q337.335 1459.58 337.335 1468.33 Q337.335 1477.06 334.256 1481.67 Q331.201 1486.25 325.391 1486.25 Q319.581 1486.25 316.502 1481.67 Q313.446 1477.06 313.446 1468.33 Q313.446 1459.58 316.502 1455 Q319.581 1450.39 325.391 1450.39 Z" fill="#000000" fill-rule="nonzero" fill-opacity="1" /><path clip-path="url(#clip440)" d="M692.502 1466.44 Q689.354 1466.44 687.502 1468.59 Q685.674 1470.74 685.674 1474.49 Q685.674 1478.22 687.502 1480.39 Q689.354 1482.55 692.502 1482.55 Q695.65 1482.55 697.479 1480.39 Q699.331 1478.22 699.331 1474.49 Q699.331 1470.74 697.479 1468.59 Q695.65 1466.44 692.502 1466.44 M701.785 1451.78 L701.785 1456.04 Q700.025 1455.21 698.22 1454.77 Q696.438 1454.33 694.678 1454.33 Q690.049 1454.33 687.595 1457.45 Q685.164 1460.58 684.817 1466.9 Q686.183 1464.89 688.243 1463.82 Q690.303 1462.73 692.78 1462.73 Q697.988 1462.73 700.998 1465.9 Q704.03 1469.05 704.03 1474.49 Q704.03 1479.82 700.882 1483.03 Q697.734 1486.25 692.502 1486.25 Q686.507 1486.25 683.336 1481.67 Q680.164 1477.06 680.164 1468.33 Q680.164 1460.14 684.053 1455.28 Q687.942 1450.39 694.493 1450.39 Q696.252 1450.39 698.035 1450.74 Q699.84 1451.09 701.785 1451.78 Z" fill="#000000" fill-rule="nonzero" fill-opacity="1" /><path clip-path="url(#clip440)" d="M722.086 1454.1 Q718.474 1454.1 716.646 1457.66 Q714.84 1461.2 714.84 1468.33 Q714.84 1475.44 716.646 1479.01 Q718.474 1482.55 722.086 1482.55 Q725.72 1482.55 727.525 1479.01 Q729.354 1475.44 729.354 1468.33 Q729.354 1461.2 727.525 1457.66 Q725.72 1454.1 722.086 1454.1 M722.086 1450.39 Q727.896 1450.39 730.951 1455 Q734.03 1459.58 734.03 1468.33 Q734.03 1477.06 730.951 1481.67 Q727.896 1486.25 722.086 1486.25 Q716.275 1486.25 713.197 1481.67 Q710.141 1477.06 710.141 1468.33 Q710.141 1459.58 713.197 1455 Q716.275 1450.39 722.086 1450.39 Z" fill="#000000" fill-rule="nonzero" fill-opacity="1" /><path clip-path="url(#clip440)" d="M1063.25 1481.64 L1070.89 1481.64 L1070.89 1455.28 L1062.58 1456.95 L1062.58 1452.69 L1070.84 1451.02 L1075.52 1451.02 L1075.52 1481.64 L1083.16 1481.64 L1083.16 1485.58 L1063.25 1485.58 L1063.25 1481.64 Z" fill="#000000" fill-rule="nonzero" fill-opacity="1" /><path clip-path="url(#clip440)" d="M1096.63 1481.64 L1112.95 1481.64 L1112.95 1485.58 L1091 1485.58 L1091 1481.64 Q1093.66 1478.89 1098.25 1474.26 Q1102.85 1469.61 1104.03 1468.27 Q1106.28 1465.74 1107.16 1464.01 Q1108.06 1462.25 1108.06 1460.56 Q1108.06 1457.8 1106.12 1456.07 Q1104.2 1454.33 1101.1 1454.33 Q1098.9 1454.33 1096.44 1455.09 Q1094.01 1455.86 1091.23 1457.41 L1091.23 1452.69 Q1094.06 1451.55 1096.51 1450.97 Q1098.97 1450.39 1101 1450.39 Q1106.37 1450.39 1109.57 1453.08 Q1112.76 1455.77 1112.76 1460.26 Q1112.76 1462.39 1111.95 1464.31 Q1111.16 1466.2 1109.06 1468.8 Q1108.48 1469.47 1105.38 1472.69 Q1102.28 1475.88 1096.63 1481.64 Z" fill="#000000" fill-rule="nonzero" fill-opacity="1" /><path clip-path="url(#clip440)" d="M1132.76 1454.1 Q1129.15 1454.1 1127.32 1457.66 Q1125.52 1461.2 1125.52 1468.33 Q1125.52 1475.44 1127.32 1479.01 Q1129.15 1482.55 1132.76 1482.55 Q1136.4 1482.55 1138.2 1479.01 Q1140.03 1475.44 1140.03 1468.33 Q1140.03 1461.2 1138.2 1457.66 Q1136.4 1454.1 1132.76 1454.1 M1132.76 1450.39 Q1138.57 1450.39 1141.63 1455 Q1144.71 1459.58 1144.71 1468.33 Q1144.71 1477.06 1141.63 1481.67 Q1138.57 1486.25 1132.76 1486.25 Q1126.95 1486.25 1123.87 1481.67 Q1120.82 1477.06 1120.82 1468.33 Q1120.82 1459.58 1123.87 1455 Q1126.95 1450.39 1132.76 1450.39 Z" fill="#000000" fill-rule="nonzero" fill-opacity="1" /><path clip-path="url(#clip440)" d="M1463.88 1481.64 L1480.2 1481.64 L1480.2 1485.58 L1458.25 1485.58 L1458.25 1481.64 Q1460.92 1478.89 1465.5 1474.26 Q1470.1 1469.61 1471.29 1468.27 Q1473.53 1465.74 1474.41 1464.01 Q1475.31 1462.25 1475.31 1460.56 Q1475.31 1457.8 1473.37 1456.07 Q1471.45 1454.33 1468.35 1454.33 Q1466.15 1454.33 1463.69 1455.09 Q1461.26 1455.86 1458.48 1457.41 L1458.48 1452.69 Q1461.31 1451.55 1463.76 1450.97 Q1466.22 1450.39 1468.25 1450.39 Q1473.62 1450.39 1476.82 1453.08 Q1480.01 1455.77 1480.01 1460.26 Q1480.01 1462.39 1479.2 1464.31 Q1478.41 1466.2 1476.31 1468.8 Q1475.73 1469.47 1472.63 1472.69 Q1469.53 1475.88 1463.88 1481.64 Z" fill="#000000" fill-rule="nonzero" fill-opacity="1" /><path clip-path="url(#clip440)" d="M1502.86 1455.09 L1491.05 1473.54 L1502.86 1473.54 L1502.86 1455.09 M1501.63 1451.02 L1507.51 1451.02 L1507.51 1473.54 L1512.44 1473.54 L1512.44 1477.43 L1507.51 1477.43 L1507.51 1485.58 L1502.86 1485.58 L1502.86 1477.43 L1487.26 1477.43 L1487.26 1472.92 L1501.63 1451.02 Z" fill="#000000" fill-rule="nonzero" fill-opacity="1" /><path clip-path="url(#clip440)" d="M1530.17 1454.1 Q1526.56 1454.1 1524.73 1457.66 Q1522.93 1461.2 1522.93 1468.33 Q1522.93 1475.44 1524.73 1479.01 Q1526.56 1482.55 1530.17 1482.55 Q1533.81 1482.55 1535.61 1479.01 Q1537.44 1475.44 1537.44 1468.33 Q1537.44 1461.2 1535.61 1457.66 Q1533.81 1454.1 1530.17 1454.1 M1530.17 1450.39 Q1535.98 1450.39 1539.04 1455 Q1542.12 1459.58 1542.12 1468.33 Q1542.12 1477.06 1539.04 1481.67 Q1535.98 1486.25 1530.17 1486.25 Q1524.36 1486.25 1521.29 1481.67 Q1518.23 1477.06 1518.23 1468.33 Q1518.23 1459.58 1521.29 1455 Q1524.36 1450.39 1530.17 1450.39 Z" fill="#000000" fill-rule="nonzero" fill-opacity="1" /><path clip-path="url(#clip440)" d="M1869.82 1455.09 L1858.01 1473.54 L1869.82 1473.54 L1869.82 1455.09 M1868.59 1451.02 L1874.47 1451.02 L1874.47 1473.54 L1879.4 1473.54 L1879.4 1477.43 L1874.47 1477.43 L1874.47 1485.58 L1869.82 1485.58 L1869.82 1477.43 L1854.22 1477.43 L1854.22 1472.92 L1868.59 1451.02 Z" fill="#000000" fill-rule="nonzero" fill-opacity="1" /><path clip-path="url(#clip440)" d="M1897.14 1469.17 Q1893.8 1469.17 1891.88 1470.95 Q1889.98 1472.73 1889.98 1475.86 Q1889.98 1478.98 1891.88 1480.77 Q1893.8 1482.55 1897.14 1482.55 Q1900.47 1482.55 1902.39 1480.77 Q1904.31 1478.96 1904.31 1475.86 Q1904.31 1472.73 1902.39 1470.95 Q1900.49 1469.17 1897.14 1469.17 M1892.46 1467.18 Q1889.45 1466.44 1887.76 1464.38 Q1886.09 1462.32 1886.09 1459.35 Q1886.09 1455.21 1889.03 1452.8 Q1892 1450.39 1897.14 1450.39 Q1902.3 1450.39 1905.24 1452.8 Q1908.18 1455.21 1908.18 1459.35 Q1908.18 1462.32 1906.49 1464.38 Q1904.82 1466.44 1901.83 1467.18 Q1905.21 1467.96 1907.09 1470.26 Q1908.99 1472.55 1908.99 1475.86 Q1908.99 1480.88 1905.91 1483.57 Q1902.85 1486.25 1897.14 1486.25 Q1891.42 1486.25 1888.34 1483.57 Q1885.28 1480.88 1885.28 1475.86 Q1885.28 1472.55 1887.18 1470.26 Q1889.08 1467.96 1892.46 1467.18 M1890.75 1459.79 Q1890.75 1462.48 1892.41 1463.98 Q1894.1 1465.49 1897.14 1465.49 Q1900.14 1465.49 1901.83 1463.98 Q1903.55 1462.48 1903.55 1459.79 Q1903.55 1457.11 1901.83 1455.6 Q1900.14 1454.1 1897.14 1454.1 Q1894.1 1454.1 1892.41 1455.6 Q1890.75 1457.11 1890.75 1459.79 Z" fill="#000000" fill-rule="nonzero" fill-opacity="1" /><path clip-path="url(#clip440)" d="M1927.3 1454.1 Q1923.69 1454.1 1921.86 1457.66 Q1920.05 1461.2 1920.05 1468.33 Q1920.05 1475.44 1921.86 1479.01 Q1923.69 1482.55 1927.3 1482.55 Q1930.93 1482.55 1932.74 1479.01 Q1934.57 1475.44 1934.57 1468.33 Q1934.57 1461.2 1932.74 1457.66 Q1930.93 1454.1 1927.3 1454.1 M1927.3 1450.39 Q1933.11 1450.39 1936.16 1455 Q1939.24 1459.58 1939.24 1468.33 Q1939.24 1477.06 1936.16 1481.67 Q1933.11 1486.25 1927.3 1486.25 Q1921.49 1486.25 1918.41 1481.67 Q1915.35 1477.06 1915.35 1468.33 Q1915.35 1459.58 1918.41 1455 Q1921.49 1450.39 1927.3 1450.39 Z" fill="#000000" fill-rule="nonzero" fill-opacity="1" /><path clip-path="url(#clip440)" d="M2253.32 1484.86 L2253.32 1480.6 Q2255.08 1481.44 2256.89 1481.88 Q2258.69 1482.32 2260.43 1482.32 Q2265.06 1482.32 2267.49 1479.21 Q2269.94 1476.09 2270.29 1469.75 Q2268.95 1471.74 2266.89 1472.8 Q2264.83 1473.87 2262.33 1473.87 Q2257.14 1473.87 2254.11 1470.74 Q2251.1 1467.59 2251.1 1462.15 Q2251.1 1456.83 2254.25 1453.61 Q2257.39 1450.39 2262.63 1450.39 Q2268.62 1450.39 2271.77 1455 Q2274.94 1459.58 2274.94 1468.33 Q2274.94 1476.51 2271.05 1481.39 Q2267.19 1486.25 2260.64 1486.25 Q2258.88 1486.25 2257.07 1485.9 Q2255.27 1485.56 2253.32 1484.86 M2262.63 1470.21 Q2265.77 1470.21 2267.6 1468.06 Q2269.45 1465.9 2269.45 1462.15 Q2269.45 1458.43 2267.6 1456.27 Q2265.77 1454.1 2262.63 1454.1 Q2259.48 1454.1 2257.63 1456.27 Q2255.8 1458.43 2255.8 1462.15 Q2255.8 1465.9 2257.63 1468.06 Q2259.48 1470.21 2262.63 1470.21 Z" fill="#000000" fill-rule="nonzero" fill-opacity="1" /><path clip-path="url(#clip440)" d="M2293.92 1466.44 Q2290.77 1466.44 2288.92 1468.59 Q2287.09 1470.74 2287.09 1474.49 Q2287.09 1478.22 2288.92 1480.39 Q2290.77 1482.55 2293.92 1482.55 Q2297.07 1482.55 2298.9 1480.39 Q2300.75 1478.22 2300.75 1474.49 Q2300.75 1470.74 2298.9 1468.59 Q2297.07 1466.44 2293.92 1466.44 M2303.2 1451.78 L2303.2 1456.04 Q2301.45 1455.21 2299.64 1454.77 Q2297.86 1454.33 2296.1 1454.33 Q2291.47 1454.33 2289.02 1457.45 Q2286.58 1460.58 2286.24 1466.9 Q2287.6 1464.89 2289.66 1463.82 Q2291.72 1462.73 2294.2 1462.73 Q2299.41 1462.73 2302.42 1465.9 Q2305.45 1469.05 2305.45 1474.49 Q2305.45 1479.82 2302.3 1483.03 Q2299.15 1486.25 2293.92 1486.25 Q2287.93 1486.25 2284.76 1481.67 Q2281.58 1477.06 2281.58 1468.33 Q2281.58 1460.14 2285.47 1455.28 Q2289.36 1450.39 2295.91 1450.39 Q2297.67 1450.39 2299.45 1450.74 Q2301.26 1451.09 2303.2 1451.78 Z" fill="#000000" fill-rule="nonzero" fill-opacity="1" /><path clip-path="url(#clip440)" d="M2323.51 1454.1 Q2319.89 1454.1 2318.07 1457.66 Q2316.26 1461.2 2316.26 1468.33 Q2316.26 1475.44 2318.07 1479.01 Q2319.89 1482.55 2323.51 1482.55 Q2327.14 1482.55 2328.95 1479.01 Q2330.77 1475.44 2330.77 1468.33 Q2330.77 1461.2 2328.95 1457.66 Q2327.14 1454.1 2323.51 1454.1 M2323.51 1450.39 Q2329.32 1450.39 2332.37 1455 Q2335.45 1459.58 2335.45 1468.33 Q2335.45 1477.06 2332.37 1481.67 Q2329.32 1486.25 2323.51 1486.25 Q2317.7 1486.25 2314.62 1481.67 Q2311.56 1477.06 2311.56 1468.33 Q2311.56 1459.58 2314.62 1455 Q2317.7 1450.39 2323.51 1450.39 Z" fill="#000000" fill-rule="nonzero" fill-opacity="1" /><path clip-path="url(#clip440)" d="M937.095 1520.52 L945.752 1520.52 L966.823 1560.28 L966.823 1520.52 L973.061 1520.52 L973.061 1568.04 L964.404 1568.04 L943.333 1528.29 L943.333 1568.04 L937.095 1568.04 L937.095 1520.52 Z" fill="#000000" fill-rule="nonzero" fill-opacity="1" /><path clip-path="url(#clip440)" d="M984.997 1553.98 L984.997 1532.4 L990.853 1532.4 L990.853 1553.75 Q990.853 1558.81 992.827 1561.36 Q994.8 1563.87 998.747 1563.87 Q1003.49 1563.87 1006.23 1560.85 Q1009 1557.83 1009 1552.61 L1009 1532.4 L1014.85 1532.4 L1014.85 1568.04 L1009 1568.04 L1009 1562.57 Q1006.86 1565.82 1004.03 1567.41 Q1001.23 1568.97 997.505 1568.97 Q991.363 1568.97 988.18 1565.15 Q984.997 1561.33 984.997 1553.98 M999.733 1531.54 L999.733 1531.54 Z" fill="#000000" fill-rule="nonzero" fill-opacity="1" /><path clip-path="url(#clip440)" d="M1054.67 1539.24 Q1056.87 1535.29 1059.92 1533.41 Q1062.98 1531.54 1067.11 1531.54 Q1072.68 1531.54 1075.71 1535.45 Q1078.73 1539.33 1078.73 1546.53 L1078.73 1568.04 L1072.84 1568.04 L1072.84 1546.72 Q1072.84 1541.59 1071.03 1539.11 Q1069.22 1536.63 1065.49 1536.63 Q1060.94 1536.63 1058.3 1539.65 Q1055.66 1542.68 1055.66 1547.9 L1055.66 1568.04 L1049.77 1568.04 L1049.77 1546.72 Q1049.77 1541.56 1047.95 1539.11 Q1046.14 1536.63 1042.35 1536.63 Q1037.86 1536.63 1035.22 1539.68 Q1032.58 1542.71 1032.58 1547.9 L1032.58 1568.04 L1026.69 1568.04 L1026.69 1532.4 L1032.58 1532.4 L1032.58 1537.93 Q1034.59 1534.66 1037.39 1533.1 Q1040.19 1531.54 1044.04 1531.54 Q1047.92 1531.54 1050.63 1533.51 Q1053.36 1535.48 1054.67 1539.24 Z" fill="#000000" fill-rule="nonzero" fill-opacity="1" /><path clip-path="url(#clip440)" d="M1116 1550.25 Q1116 1543.79 1113.33 1540.13 Q1110.69 1536.44 1106.04 1536.44 Q1101.39 1536.44 1098.72 1540.13 Q1096.08 1543.79 1096.08 1550.25 Q1096.08 1556.71 1098.72 1560.4 Q1101.39 1564.07 1106.04 1564.07 Q1110.69 1564.07 1113.33 1560.4 Q1116 1556.71 1116 1550.25 M1096.08 1537.81 Q1097.92 1534.62 1100.73 1533.1 Q1103.56 1531.54 1107.47 1531.54 Q1113.97 1531.54 1118.01 1536.69 Q1122.08 1541.85 1122.08 1550.25 Q1122.08 1558.65 1118.01 1563.81 Q1113.97 1568.97 1107.47 1568.97 Q1103.56 1568.97 1100.73 1567.44 Q1097.92 1565.88 1096.08 1562.7 L1096.08 1568.04 L1090.19 1568.04 L1090.19 1518.52 L1096.08 1518.52 L1096.08 1537.81 Z" fill="#000000" fill-rule="nonzero" fill-opacity="1" /><path clip-path="url(#clip440)" d="M1162.28 1548.76 L1162.28 1551.62 L1135.35 1551.62 Q1135.74 1557.67 1138.98 1560.85 Q1142.26 1564 1148.09 1564 Q1151.46 1564 1154.61 1563.17 Q1157.79 1562.35 1160.91 1560.69 L1160.91 1566.23 Q1157.76 1567.57 1154.45 1568.27 Q1151.14 1568.97 1147.74 1568.97 Q1139.21 1568.97 1134.21 1564 Q1129.24 1559.04 1129.24 1550.57 Q1129.24 1541.82 1133.95 1536.69 Q1138.7 1531.54 1146.72 1531.54 Q1153.91 1531.54 1158.08 1536.18 Q1162.28 1540.8 1162.28 1548.76 M1156.43 1547.04 Q1156.36 1542.23 1153.72 1539.37 Q1151.11 1536.5 1146.78 1536.5 Q1141.88 1536.5 1138.92 1539.27 Q1135.99 1542.04 1135.55 1547.07 L1156.43 1547.04 Z" fill="#000000" fill-rule="nonzero" fill-opacity="1" /><path clip-path="url(#clip440)" d="M1192.55 1537.87 Q1191.56 1537.3 1190.39 1537.04 Q1189.24 1536.76 1187.84 1536.76 Q1182.87 1536.76 1180.2 1540 Q1177.56 1543.22 1177.56 1549.27 L1177.56 1568.04 L1171.67 1568.04 L1171.67 1532.4 L1177.56 1532.4 L1177.56 1537.93 Q1179.41 1534.69 1182.37 1533.13 Q1185.33 1531.54 1189.56 1531.54 Q1190.16 1531.54 1190.9 1531.63 Q1191.63 1531.7 1192.52 1531.85 L1192.55 1537.87 Z" fill="#000000" fill-rule="nonzero" fill-opacity="1" /><path clip-path="url(#clip440)" d="M1233.23 1536.5 Q1228.52 1536.5 1225.78 1540.19 Q1223.04 1543.85 1223.04 1550.25 Q1223.04 1556.65 1225.75 1560.34 Q1228.49 1564 1233.23 1564 Q1237.91 1564 1240.64 1560.31 Q1243.38 1556.62 1243.38 1550.25 Q1243.38 1543.92 1240.64 1540.23 Q1237.91 1536.5 1233.23 1536.5 M1233.23 1531.54 Q1240.87 1531.54 1245.23 1536.5 Q1249.59 1541.47 1249.59 1550.25 Q1249.59 1559 1245.23 1564 Q1240.87 1568.97 1233.23 1568.97 Q1225.56 1568.97 1221.2 1564 Q1216.87 1559 1216.87 1550.25 Q1216.87 1541.47 1221.2 1536.5 Q1225.56 1531.54 1233.23 1531.54 Z" fill="#000000" fill-rule="nonzero" fill-opacity="1" /><path clip-path="url(#clip440)" d="M1277.34 1518.52 L1277.34 1523.39 L1271.74 1523.39 Q1268.59 1523.39 1267.35 1524.66 Q1266.14 1525.93 1266.14 1529.24 L1266.14 1532.4 L1275.78 1532.4 L1275.78 1536.95 L1266.14 1536.95 L1266.14 1568.04 L1260.25 1568.04 L1260.25 1536.95 L1254.65 1536.95 L1254.65 1532.4 L1260.25 1532.4 L1260.25 1529.91 Q1260.25 1523.96 1263.02 1521.26 Q1265.79 1518.52 1271.8 1518.52 L1277.34 1518.52 Z" fill="#000000" fill-rule="nonzero" fill-opacity="1" /><path clip-path="url(#clip440)" d="M1309.65 1525.81 L1309.65 1543.66 L1317.73 1543.66 Q1322.22 1543.66 1324.67 1541.34 Q1327.12 1539.02 1327.12 1534.72 Q1327.12 1530.45 1324.67 1528.13 Q1322.22 1525.81 1317.73 1525.81 L1309.65 1525.81 M1303.22 1520.52 L1317.73 1520.52 Q1325.72 1520.52 1329.8 1524.15 Q1333.9 1527.75 1333.9 1534.72 Q1333.9 1541.75 1329.8 1545.35 Q1325.72 1548.95 1317.73 1548.95 L1309.65 1548.95 L1309.65 1568.04 L1303.22 1568.04 L1303.22 1520.52 Z" fill="#000000" fill-rule="nonzero" fill-opacity="1" /><path clip-path="url(#clip440)" d="M1355.54 1550.12 Q1348.45 1550.12 1345.71 1551.75 Q1342.97 1553.37 1342.97 1557.29 Q1342.97 1560.4 1345.01 1562.25 Q1347.08 1564.07 1350.61 1564.07 Q1355.48 1564.07 1358.41 1560.63 Q1361.37 1557.16 1361.37 1551.43 L1361.37 1550.12 L1355.54 1550.12 M1367.23 1547.71 L1367.23 1568.04 L1361.37 1568.04 L1361.37 1562.63 Q1359.36 1565.88 1356.37 1567.44 Q1353.38 1568.97 1349.05 1568.97 Q1343.58 1568.97 1340.33 1565.91 Q1337.12 1562.82 1337.12 1557.67 Q1337.12 1551.65 1341.13 1548.6 Q1345.17 1545.54 1353.16 1545.54 L1361.37 1545.54 L1361.37 1544.97 Q1361.37 1540.93 1358.7 1538.73 Q1356.05 1536.5 1351.25 1536.5 Q1348.19 1536.5 1345.3 1537.23 Q1342.4 1537.97 1339.73 1539.43 L1339.73 1534.02 Q1342.94 1532.78 1345.96 1532.17 Q1348.99 1531.54 1351.85 1531.54 Q1359.59 1531.54 1363.41 1535.55 Q1367.23 1539.56 1367.23 1547.71 Z" fill="#000000" fill-rule="nonzero" fill-opacity="1" /><path clip-path="url(#clip440)" d="M1399.95 1537.87 Q1398.96 1537.3 1397.78 1537.04 Q1396.64 1536.76 1395.23 1536.76 Q1390.27 1536.76 1387.6 1540 Q1384.95 1543.22 1384.95 1549.27 L1384.95 1568.04 L1379.07 1568.04 L1379.07 1532.4 L1384.95 1532.4 L1384.95 1537.93 Q1386.8 1534.69 1389.76 1533.13 Q1392.72 1531.54 1396.95 1531.54 Q1397.56 1531.54 1398.29 1531.63 Q1399.02 1531.7 1399.91 1531.85 L1399.95 1537.87 Z" fill="#000000" fill-rule="nonzero" fill-opacity="1" /><path clip-path="url(#clip440)" d="M1422.29 1550.12 Q1415.19 1550.12 1412.45 1551.75 Q1409.72 1553.37 1409.72 1557.29 Q1409.72 1560.4 1411.75 1562.25 Q1413.82 1564.07 1417.36 1564.07 Q1422.23 1564.07 1425.15 1560.63 Q1428.11 1557.16 1428.11 1551.43 L1428.11 1550.12 L1422.29 1550.12 M1433.97 1547.71 L1433.97 1568.04 L1428.11 1568.04 L1428.11 1562.63 Q1426.11 1565.88 1423.12 1567.44 Q1420.12 1568.97 1415.8 1568.97 Q1410.32 1568.97 1407.08 1565.91 Q1403.86 1562.82 1403.86 1557.67 Q1403.86 1551.65 1407.87 1548.6 Q1411.91 1545.54 1419.9 1545.54 L1428.11 1545.54 L1428.11 1544.97 Q1428.11 1540.93 1425.44 1538.73 Q1422.8 1536.5 1417.99 1536.5 Q1414.94 1536.5 1412.04 1537.23 Q1409.14 1537.97 1406.47 1539.43 L1406.47 1534.02 Q1409.68 1532.78 1412.71 1532.17 Q1415.73 1531.54 1418.6 1531.54 Q1426.33 1531.54 1430.15 1535.55 Q1433.97 1539.56 1433.97 1547.71 Z" fill="#000000" fill-rule="nonzero" fill-opacity="1" /><path clip-path="url(#clip440)" d="M1473.79 1539.24 Q1475.98 1535.29 1479.04 1533.41 Q1482.09 1531.54 1486.23 1531.54 Q1491.8 1531.54 1494.83 1535.45 Q1497.85 1539.33 1497.85 1546.53 L1497.85 1568.04 L1491.96 1568.04 L1491.96 1546.72 Q1491.96 1541.59 1490.15 1539.11 Q1488.33 1536.63 1484.61 1536.63 Q1480.06 1536.63 1477.42 1539.65 Q1474.77 1542.68 1474.77 1547.9 L1474.77 1568.04 L1468.89 1568.04 L1468.89 1546.72 Q1468.89 1541.56 1467.07 1539.11 Q1465.26 1536.63 1461.47 1536.63 Q1456.98 1536.63 1454.34 1539.68 Q1451.7 1542.71 1451.7 1547.9 L1451.7 1568.04 L1445.81 1568.04 L1445.81 1532.4 L1451.7 1532.4 L1451.7 1537.93 Q1453.7 1534.66 1456.5 1533.1 Q1459.31 1531.54 1463.16 1531.54 Q1467.04 1531.54 1469.75 1533.51 Q1472.48 1535.48 1473.79 1539.24 Z" fill="#000000" fill-rule="nonzero" fill-opacity="1" /><path clip-path="url(#clip440)" d="M1540.02 1548.76 L1540.02 1551.62 L1513.1 1551.62 Q1513.48 1557.67 1516.72 1560.85 Q1520 1564 1525.83 1564 Q1529.2 1564 1532.35 1563.17 Q1535.54 1562.35 1538.65 1560.69 L1538.65 1566.23 Q1535.5 1567.57 1532.19 1568.27 Q1528.88 1568.97 1525.48 1568.97 Q1516.95 1568.97 1511.95 1564 Q1506.98 1559.04 1506.98 1550.57 Q1506.98 1541.82 1511.7 1536.69 Q1516.44 1531.54 1524.46 1531.54 Q1531.65 1531.54 1535.82 1536.18 Q1540.02 1540.8 1540.02 1548.76 M1534.17 1547.04 Q1534.1 1542.23 1531.46 1539.37 Q1528.85 1536.5 1524.52 1536.5 Q1519.62 1536.5 1516.66 1539.27 Q1513.73 1542.04 1513.29 1547.07 L1534.17 1547.04 Z" fill="#000000" fill-rule="nonzero" fill-opacity="1" /><path clip-path="url(#clip440)" d="M1555.43 1522.27 L1555.43 1532.4 L1567.49 1532.4 L1567.49 1536.95 L1555.43 1536.95 L1555.43 1556.3 Q1555.43 1560.66 1556.61 1561.9 Q1557.81 1563.14 1561.48 1563.14 L1567.49 1563.14 L1567.49 1568.04 L1561.48 1568.04 Q1554.7 1568.04 1552.12 1565.53 Q1549.54 1562.98 1549.54 1556.3 L1549.54 1536.95 L1545.24 1536.95 L1545.24 1532.4 L1549.54 1532.4 L1549.54 1522.27 L1555.43 1522.27 Z" fill="#000000" fill-rule="nonzero" fill-opacity="1" /><path clip-path="url(#clip440)" d="M1605.69 1548.76 L1605.69 1551.62 L1578.76 1551.62 Q1579.14 1557.67 1582.39 1560.85 Q1585.66 1564 1591.49 1564 Q1594.86 1564 1598.01 1563.17 Q1601.2 1562.35 1604.32 1560.69 L1604.32 1566.23 Q1601.17 1567.57 1597.86 1568.27 Q1594.55 1568.97 1591.14 1568.97 Q1582.61 1568.97 1577.61 1564 Q1572.65 1559.04 1572.65 1550.57 Q1572.65 1541.82 1577.36 1536.69 Q1582.1 1531.54 1590.12 1531.54 Q1597.31 1531.54 1601.48 1536.18 Q1605.69 1540.8 1605.69 1548.76 M1599.83 1547.04 Q1599.76 1542.23 1597.12 1539.37 Q1594.51 1536.5 1590.18 1536.5 Q1585.28 1536.5 1582.32 1539.27 Q1579.39 1542.04 1578.95 1547.07 L1599.83 1547.04 Z" fill="#000000" fill-rule="nonzero" fill-opacity="1" /><path clip-path="url(#clip440)" d="M1635.95 1537.87 Q1634.97 1537.3 1633.79 1537.04 Q1632.64 1536.76 1631.24 1536.76 Q1626.28 1536.76 1623.6 1540 Q1620.96 1543.22 1620.96 1549.27 L1620.96 1568.04 L1615.07 1568.04 L1615.07 1532.4 L1620.96 1532.4 L1620.96 1537.93 Q1622.81 1534.69 1625.77 1533.13 Q1628.73 1531.54 1632.96 1531.54 Q1633.57 1531.54 1634.3 1531.63 Q1635.03 1531.7 1635.92 1531.85 L1635.95 1537.87 Z" fill="#000000" fill-rule="nonzero" fill-opacity="1" /><path clip-path="url(#clip440)" d="M1664.82 1533.45 L1664.82 1538.98 Q1662.34 1537.71 1659.67 1537.07 Q1656.99 1536.44 1654.13 1536.44 Q1649.77 1536.44 1647.57 1537.77 Q1645.41 1539.11 1645.41 1541.79 Q1645.41 1543.82 1646.97 1545 Q1648.53 1546.15 1653.24 1547.2 L1655.24 1547.64 Q1661.48 1548.98 1664.09 1551.43 Q1666.73 1553.85 1666.73 1558.21 Q1666.73 1563.17 1662.79 1566.07 Q1658.87 1568.97 1652 1568.97 Q1649.13 1568.97 1646.01 1568.39 Q1642.92 1567.85 1639.49 1566.74 L1639.49 1560.69 Q1642.73 1562.38 1645.88 1563.24 Q1649.04 1564.07 1652.12 1564.07 Q1656.26 1564.07 1658.49 1562.66 Q1660.72 1561.23 1660.72 1558.65 Q1660.72 1556.27 1659.09 1554.99 Q1657.5 1553.72 1652.06 1552.54 L1650.02 1552.07 Q1644.58 1550.92 1642.16 1548.56 Q1639.74 1546.18 1639.74 1542.04 Q1639.74 1537.01 1643.31 1534.27 Q1646.87 1531.54 1653.43 1531.54 Q1656.67 1531.54 1659.54 1532.01 Q1662.4 1532.49 1664.82 1533.45 Z" fill="#000000" fill-rule="nonzero" fill-opacity="1" /><polyline clip-path="url(#clip440)" style="stroke:#000000; stroke-linecap:round; stroke-linejoin:round; stroke-width:4; stroke-opacity:1; fill:none" points="251.071,1423.18 251.071,47.2441 "/>
<polyline clip-path="url(#clip440)" style="stroke:#000000; stroke-linecap:round; stroke-linejoin:round; stroke-width:4; stroke-opacity:1; fill:none" points="251.071,871.751 269.969,871.751 "/>
<polyline clip-path="url(#clip440)" style="stroke:#000000; stroke-linecap:round; stroke-linejoin:round; stroke-width:4; stroke-opacity:1; fill:none" points="251.071,95.4913 269.969,95.4913 "/>
<path clip-path="url(#clip440)" d="M114.931 891.543 L122.57 891.543 L122.57 865.178 L114.26 866.844 L114.26 862.585 L122.524 860.918 L127.2 860.918 L127.2 891.543 L134.839 891.543 L134.839 895.478 L114.931 895.478 L114.931 891.543 Z" fill="#000000" fill-rule="nonzero" fill-opacity="1" /><path clip-path="url(#clip440)" d="M154.283 863.997 Q150.672 863.997 148.843 867.562 Q147.038 871.104 147.038 878.233 Q147.038 885.34 148.843 888.904 Q150.672 892.446 154.283 892.446 Q157.917 892.446 159.723 888.904 Q161.552 885.34 161.552 878.233 Q161.552 871.104 159.723 867.562 Q157.917 863.997 154.283 863.997 M154.283 860.293 Q160.093 860.293 163.149 864.9 Q166.227 869.483 166.227 878.233 Q166.227 886.96 163.149 891.566 Q160.093 896.15 154.283 896.15 Q148.473 896.15 145.394 891.566 Q142.339 886.96 142.339 878.233 Q142.339 869.483 145.394 864.9 Q148.473 860.293 154.283 860.293 Z" fill="#000000" fill-rule="nonzero" fill-opacity="1" /><path clip-path="url(#clip440)" d="M166.227 854.395 L190.339 854.395 L190.339 857.592 L166.227 857.592 L166.227 854.395 Z" fill="#000000" fill-rule="nonzero" fill-opacity="1" /><path clip-path="url(#clip440)" d="M201.812 864.871 L215.071 864.871 L215.071 868.068 L197.241 868.068 L197.241 864.871 Q199.404 862.633 203.128 858.871 Q206.871 855.091 207.83 854 Q209.655 851.95 210.369 850.539 Q211.103 849.11 211.103 847.737 Q211.103 845.499 209.523 844.088 Q207.962 842.678 205.442 842.678 Q203.655 842.678 201.661 843.298 Q199.686 843.919 197.43 845.179 L197.43 841.342 Q199.724 840.421 201.718 839.95 Q203.711 839.48 205.366 839.48 Q209.73 839.48 212.325 841.662 Q214.921 843.844 214.921 847.492 Q214.921 849.223 214.263 850.784 Q213.623 852.326 211.912 854.432 Q211.441 854.978 208.921 857.592 Q206.401 860.188 201.812 864.871 Z" fill="#000000" fill-rule="nonzero" fill-opacity="1" /><path clip-path="url(#clip440)" d="M144.366 115.284 L152.004 115.284 L152.004 88.9182 L143.694 90.5848 L143.694 86.3256 L151.958 84.6589 L156.634 84.6589 L156.634 115.284 L164.273 115.284 L164.273 119.219 L144.366 119.219 L144.366 115.284 Z" fill="#000000" fill-rule="nonzero" fill-opacity="1" /><path clip-path="url(#clip440)" d="M183.717 87.7376 Q180.106 87.7376 178.277 91.3024 Q176.472 94.8441 176.472 101.974 Q176.472 109.08 178.277 112.645 Q180.106 116.187 183.717 116.187 Q187.351 116.187 189.157 112.645 Q190.986 109.08 190.986 101.974 Q190.986 94.8441 189.157 91.3024 Q187.351 87.7376 183.717 87.7376 M183.717 84.0339 Q189.527 84.0339 192.583 88.6404 Q195.662 93.2237 195.662 101.974 Q195.662 110.7 192.583 115.307 Q189.527 119.89 183.717 119.89 Q177.907 119.89 174.828 115.307 Q171.773 110.7 171.773 101.974 Q171.773 93.2237 174.828 88.6404 Q177.907 84.0339 183.717 84.0339 Z" fill="#000000" fill-rule="nonzero" fill-opacity="1" /><path clip-path="url(#clip440)" d="M205.366 66.23 Q202.432 66.23 200.947 69.1264 Q199.48 72.004 199.48 77.7967 Q199.48 83.5707 200.947 86.4671 Q202.432 89.3447 205.366 89.3447 Q208.319 89.3447 209.786 86.4671 Q211.272 83.5707 211.272 77.7967 Q211.272 72.004 209.786 69.1264 Q208.319 66.23 205.366 66.23 M205.366 63.2207 Q210.087 63.2207 212.57 66.9635 Q215.071 70.6874 215.071 77.7967 Q215.071 84.8873 212.57 88.63 Q210.087 92.354 205.366 92.354 Q200.646 92.354 198.144 88.63 Q195.662 84.8873 195.662 77.7967 Q195.662 70.6874 198.144 66.9635 Q200.646 63.2207 205.366 63.2207 Z" fill="#000000" fill-rule="nonzero" fill-opacity="1" /><path clip-path="url(#clip440)" d="M41.7242 895.58 Q42.4244 893.511 44.7161 891.57 Q47.0077 889.596 51.0181 887.623 L64.0042 881.098 L64.0042 888.005 L51.8138 894.084 Q47.0395 896.439 45.48 898.667 Q43.9204 900.864 43.9204 904.683 L43.9204 911.685 L64.0042 911.685 L64.0042 918.115 L16.4842 918.115 L16.4842 903.601 Q16.4842 895.453 19.8898 891.442 Q23.2955 887.432 30.1704 887.432 Q34.6582 887.432 37.6183 889.533 Q40.5784 891.601 41.7242 895.58 M21.7677 911.685 L38.6368 911.685 L38.6368 903.601 Q38.6368 898.954 36.5043 896.599 Q34.34 894.211 30.1704 894.211 Q26.0009 894.211 23.9002 896.599 Q21.7677 898.954 21.7677 903.601 L21.7677 911.685 Z" fill="#000000" fill-rule="nonzero" fill-opacity="1" /><path clip-path="url(#clip440)" d="M49.9359 876.61 L28.3562 876.61 L28.3562 870.754 L49.7131 870.754 Q54.7739 870.754 57.3202 868.78 Q59.8346 866.807 59.8346 862.86 Q59.8346 858.118 56.8109 855.381 Q53.7872 852.612 48.5673 852.612 L28.3562 852.612 L28.3562 846.755 L64.0042 846.755 L64.0042 852.612 L58.5296 852.612 Q61.7762 854.744 63.3676 857.577 Q64.9272 860.378 64.9272 864.102 Q64.9272 870.245 61.1078 873.427 Q57.2883 876.61 49.9359 876.61 M27.4968 861.874 L27.4968 861.874 Z" fill="#000000" fill-rule="nonzero" fill-opacity="1" /><path clip-path="url(#clip440)" d="M42.4881 805.06 L64.0042 805.06 L64.0042 810.916 L42.679 810.916 Q37.6183 810.916 35.1038 812.89 Q32.5894 814.863 32.5894 818.81 Q32.5894 823.552 35.6131 826.289 Q38.6368 829.027 43.8567 829.027 L64.0042 829.027 L64.0042 834.915 L28.3562 834.915 L28.3562 829.027 L33.8944 829.027 Q30.6797 826.926 29.0883 824.093 Q27.4968 821.229 27.4968 817.505 Q27.4968 811.362 31.3163 808.211 Q35.1038 805.06 42.4881 805.06 Z" fill="#000000" fill-rule="nonzero" fill-opacity="1" /><path clip-path="url(#clip440)" d="M18.2347 787.586 L28.3562 787.586 L28.3562 775.523 L32.9077 775.523 L32.9077 787.586 L52.2594 787.586 Q56.6199 787.586 57.8613 786.408 Q59.1026 785.199 59.1026 781.538 L59.1026 775.523 L64.0042 775.523 L64.0042 781.538 Q64.0042 788.318 61.4897 790.896 Q58.9434 793.474 52.2594 793.474 L32.9077 793.474 L32.9077 797.771 L28.3562 797.771 L28.3562 793.474 L18.2347 793.474 L18.2347 787.586 Z" fill="#000000" fill-rule="nonzero" fill-opacity="1" /><path clip-path="url(#clip440)" d="M28.3562 767.82 L28.3562 761.964 L64.0042 761.964 L64.0042 767.82 L28.3562 767.82 M14.479 767.82 L14.479 761.964 L21.895 761.964 L21.895 767.82 L14.479 767.82 Z" fill="#000000" fill-rule="nonzero" fill-opacity="1" /><path clip-path="url(#clip440)" d="M35.1993 721.955 Q31.2526 719.759 29.3747 716.704 Q27.4968 713.648 27.4968 709.51 Q27.4968 703.94 31.4117 700.917 Q35.2948 697.893 42.4881 697.893 L64.0042 697.893 L64.0042 703.781 L42.679 703.781 Q37.5546 703.781 35.072 705.596 Q32.5894 707.41 32.5894 711.134 Q32.5894 715.685 35.6131 718.327 Q38.6368 720.969 43.8567 720.969 L64.0042 720.969 L64.0042 726.857 L42.679 726.857 Q37.5228 726.857 35.072 728.671 Q32.5894 730.485 32.5894 734.273 Q32.5894 738.761 35.6449 741.403 Q38.6686 744.044 43.8567 744.044 L64.0042 744.044 L64.0042 749.933 L28.3562 749.933 L28.3562 744.044 L33.8944 744.044 Q30.616 742.039 29.0564 739.238 Q27.4968 736.437 27.4968 732.586 Q27.4968 728.703 29.4702 725.998 Q31.4436 723.26 35.1993 721.955 Z" fill="#000000" fill-rule="nonzero" fill-opacity="1" /><path clip-path="url(#clip440)" d="M44.7161 655.72 L47.5806 655.72 L47.5806 682.647 Q53.6281 682.265 56.8109 679.019 Q59.9619 675.74 59.9619 669.916 Q59.9619 666.542 59.1344 663.391 Q58.3069 660.208 56.6518 657.089 L62.1899 657.089 Q63.5267 660.24 64.227 663.55 Q64.9272 666.86 64.9272 670.266 Q64.9272 678.796 59.9619 683.793 Q54.9967 688.758 46.5303 688.758 Q37.7774 688.758 32.6531 684.048 Q27.4968 679.305 27.4968 671.284 Q27.4968 664.091 32.1438 659.922 Q36.7589 655.72 44.7161 655.72 M42.9973 661.577 Q38.1912 661.64 35.3266 664.282 Q32.4621 666.892 32.4621 671.221 Q32.4621 676.122 35.2312 679.082 Q38.0002 682.011 43.0292 682.456 L42.9973 661.577 Z" fill="#000000" fill-rule="nonzero" fill-opacity="1" /><path clip-path="url(#clip440)" d="M14.479 625.929 L14.479 612.433 L19.0304 612.433 L19.0304 620.072 L68.0464 620.072 L68.0464 612.433 L72.5979 612.433 L72.5979 625.929 L14.479 625.929 Z" fill="#000000" fill-rule="nonzero" fill-opacity="1" /><path clip-path="url(#clip440)" d="M29.4065 577.231 L34.9447 577.231 Q33.6716 579.714 33.035 582.387 Q32.3984 585.061 32.3984 587.925 Q32.3984 592.286 33.7352 594.482 Q35.072 596.646 37.7456 596.646 Q39.7826 596.646 40.9603 595.087 Q42.1061 593.527 43.1565 588.817 L43.6021 586.811 Q44.9389 580.573 47.3897 577.963 Q49.8086 575.321 54.1691 575.321 Q59.1344 575.321 62.0308 579.268 Q64.9272 583.183 64.9272 590.058 Q64.9272 592.923 64.3543 596.042 Q63.8132 599.129 62.6992 602.567 L56.6518 602.567 Q58.3387 599.32 59.198 596.169 Q60.0256 593.018 60.0256 589.931 Q60.0256 585.793 58.6251 583.565 Q57.1929 581.337 54.6147 581.337 Q52.2276 581.337 50.9545 582.96 Q49.6813 584.552 48.5037 589.994 L48.0262 592.031 Q46.8804 597.474 44.5251 599.893 Q42.138 602.312 38.0002 602.312 Q32.9713 602.312 30.2341 598.747 Q27.4968 595.182 27.4968 588.626 Q27.4968 585.379 27.9743 582.515 Q28.4517 579.65 29.4065 577.231 Z" fill="#000000" fill-rule="nonzero" fill-opacity="1" /><path clip-path="url(#clip440)" d="M14.479 552.309 L72.5979 552.309 L72.5979 565.805 L68.0464 565.805 L68.0464 558.198 L19.0304 558.198 L19.0304 565.805 L14.479 565.805 L14.479 552.309 Z" fill="#000000" fill-rule="nonzero" fill-opacity="1" /><polyline clip-path="url(#clip442)" style="stroke:#009af9; stroke-linecap:round; stroke-linejoin:round; stroke-width:4; stroke-opacity:1; fill:none" points="310.553,1364.58 707.097,1122.56 1103.64,869.988 1500.19,547.74 1896.73,228.933 2293.27,86.1857 "/>
<path clip-path="url(#clip442)" d="M310.553 1380.58 L299.241 1375.89 L294.553 1364.58 L299.241 1353.27 L310.553 1348.58 L321.865 1353.27 L326.553 1364.58 L321.865 1375.89 Z" fill="#009af9" fill-rule="evenodd" fill-opacity="1" stroke="#000000" stroke-opacity="1" stroke-width="3.2"/>
<path clip-path="url(#clip442)" d="M707.097 1138.56 L695.785 1133.87 L691.097 1122.56 L695.785 1111.24 L707.097 1106.56 L718.409 1111.24 L723.097 1122.56 L718.409 1133.87 Z" fill="#009af9" fill-rule="evenodd" fill-opacity="1" stroke="#000000" stroke-opacity="1" stroke-width="3.2"/>
<path clip-path="url(#clip442)" d="M1103.64 885.988 L1092.33 881.3 L1087.64 869.988 L1092.33 858.676 L1103.64 853.988 L1114.95 858.676 L1119.64 869.988 L1114.95 881.3 Z" fill="#009af9" fill-rule="evenodd" fill-opacity="1" stroke="#000000" stroke-opacity="1" stroke-width="3.2"/>
<path clip-path="url(#clip442)" d="M1500.19 563.74 L1488.87 559.052 L1484.19 547.74 L1488.87 536.428 L1500.19 531.74 L1511.5 536.428 L1516.19 547.74 L1511.5 559.052 Z" fill="#009af9" fill-rule="evenodd" fill-opacity="1" stroke="#000000" stroke-opacity="1" stroke-width="3.2"/>
<path clip-path="url(#clip442)" d="M1896.73 244.933 L1885.42 240.245 L1880.73 228.933 L1885.42 217.621 L1896.73 212.933 L1908.04 217.621 L1912.73 228.933 L1908.04 240.245 Z" fill="#009af9" fill-rule="evenodd" fill-opacity="1" stroke="#000000" stroke-opacity="1" stroke-width="3.2"/>
<path clip-path="url(#clip442)" d="M2293.27 102.186 L2281.96 97.4977 L2277.27 86.1857 L2281.96 74.8737 L2293.27 70.1857 L2304.59 74.8737 L2309.27 86.1857 L2304.59 97.4977 Z" fill="#009af9" fill-rule="evenodd" fill-opacity="1" stroke="#000000" stroke-opacity="1" stroke-width="3.2"/>
<polyline clip-path="url(#clip442)" style="stroke:#e26f46; stroke-linecap:round; stroke-linejoin:round; stroke-width:4; stroke-opacity:1; fill:none" points="310.553,1384.24 707.097,1257.66 1103.64,1128.93 1500.19,863.598 1896.73,848.235 2293.27,784.335 "/>
<path clip-path="url(#clip442)" d="M310.553 1400.24 L299.241 1395.55 L294.553 1384.24 L299.241 1372.93 L310.553 1368.24 L321.865 1372.93 L326.553 1384.24 L321.865 1395.55 Z" fill="#e26f46" fill-rule="evenodd" fill-opacity="1" stroke="#000000" stroke-opacity="1" stroke-width="3.2"/>
<path clip-path="url(#clip442)" d="M707.097 1273.66 L695.785 1268.97 L691.097 1257.66 L695.785 1246.34 L707.097 1241.66 L718.409 1246.34 L723.097 1257.66 L718.409 1268.97 Z" fill="#e26f46" fill-rule="evenodd" fill-opacity="1" stroke="#000000" stroke-opacity="1" stroke-width="3.2"/>
<path clip-path="url(#clip442)" d="M1103.64 1144.93 L1092.33 1140.25 L1087.64 1128.93 L1092.33 1117.62 L1103.64 1112.93 L1114.95 1117.62 L1119.64 1128.93 L1114.95 1140.25 Z" fill="#e26f46" fill-rule="evenodd" fill-opacity="1" stroke="#000000" stroke-opacity="1" stroke-width="3.2"/>
<path clip-path="url(#clip442)" d="M1500.19 879.598 L1488.87 874.91 L1484.19 863.598 L1488.87 852.286 L1500.19 847.598 L1511.5 852.286 L1516.19 863.598 L1511.5 874.91 Z" fill="#e26f46" fill-rule="evenodd" fill-opacity="1" stroke="#000000" stroke-opacity="1" stroke-width="3.2"/>
<path clip-path="url(#clip442)" d="M1896.73 864.235 L1885.42 859.547 L1880.73 848.235 L1885.42 836.923 L1896.73 832.235 L1908.04 836.923 L1912.73 848.235 L1908.04 859.547 Z" fill="#e26f46" fill-rule="evenodd" fill-opacity="1" stroke="#000000" stroke-opacity="1" stroke-width="3.2"/>
<path clip-path="url(#clip442)" d="M2293.27 800.335 L2281.96 795.647 L2277.27 784.335 L2281.96 773.023 L2293.27 768.335 L2304.59 773.023 L2309.27 784.335 L2304.59 795.647 Z" fill="#e26f46" fill-rule="evenodd" fill-opacity="1" stroke="#000000" stroke-opacity="1" stroke-width="3.2"/>
<path clip-path="url(#clip440)" d="M321.127 248.629 L885.252 248.629 L885.252 93.1086 L321.127 93.1086  Z" fill="#ffffff" fill-rule="evenodd" fill-opacity="1"/>
<polyline clip-path="url(#clip440)" style="stroke:#000000; stroke-linecap:round; stroke-linejoin:round; stroke-width:4; stroke-opacity:1; fill:none" points="321.127,248.629 885.252,248.629 885.252,93.1086 321.127,93.1086 321.127,248.629 "/>
<polyline clip-path="url(#clip440)" style="stroke:#009af9; stroke-linecap:round; stroke-linejoin:round; stroke-width:4; stroke-opacity:1; fill:none" points="344.479,144.949 484.592,144.949 "/>
<path clip-path="url(#clip440)" d="M414.536 166.571 L399.249 160.236 L392.913 144.949 L399.249 129.662 L414.536 123.326 L429.823 129.662 L436.158 144.949 L429.823 160.236 Z" fill="#009af9" fill-rule="evenodd" fill-opacity="1" stroke="#000000" stroke-opacity="1" stroke-width="4.55111"/>
<path clip-path="url(#clip440)" d="M507.944 127.669 L527.805 127.669 L527.805 131.604 L512.62 131.604 L512.62 141.789 L526.323 141.789 L526.323 145.724 L512.62 145.724 L512.62 162.229 L507.944 162.229 L507.944 127.669 Z" fill="#000000" fill-rule="nonzero" fill-opacity="1" /><path clip-path="url(#clip440)" d="M543.383 139.289 Q539.958 139.289 537.967 141.974 Q535.976 144.636 535.976 149.289 Q535.976 153.942 537.944 156.627 Q539.934 159.289 543.383 159.289 Q546.786 159.289 548.777 156.604 Q550.768 153.918 550.768 149.289 Q550.768 144.682 548.777 141.997 Q546.786 139.289 543.383 139.289 M543.383 135.678 Q548.939 135.678 552.11 139.289 Q555.282 142.9 555.282 149.289 Q555.282 155.655 552.11 159.289 Q548.939 162.9 543.383 162.9 Q537.805 162.9 534.633 159.289 Q531.485 155.655 531.485 149.289 Q531.485 142.9 534.633 139.289 Q537.805 135.678 543.383 135.678 Z" fill="#000000" fill-rule="nonzero" fill-opacity="1" /><path clip-path="url(#clip440)" d="M577.365 140.284 Q576.647 139.868 575.791 139.682 Q574.957 139.474 573.939 139.474 Q570.328 139.474 568.383 141.835 Q566.462 144.173 566.462 148.571 L566.462 162.229 L562.18 162.229 L562.18 136.303 L566.462 136.303 L566.462 140.331 Q567.805 137.969 569.957 136.835 Q572.11 135.678 575.189 135.678 Q575.629 135.678 576.161 135.747 Q576.693 135.794 577.342 135.909 L577.365 140.284 Z" fill="#000000" fill-rule="nonzero" fill-opacity="1" /><path clip-path="url(#clip440)" d="M579.355 136.303 L583.615 136.303 L588.939 156.534 L594.24 136.303 L599.263 136.303 L604.587 156.534 L609.888 136.303 L614.147 136.303 L607.365 162.229 L602.341 162.229 L596.763 140.979 L591.161 162.229 L586.138 162.229 L579.355 136.303 Z" fill="#000000" fill-rule="nonzero" fill-opacity="1" /><path clip-path="url(#clip440)" d="M632.388 149.196 Q627.226 149.196 625.235 150.377 Q623.244 151.557 623.244 154.405 Q623.244 156.673 624.726 158.016 Q626.23 159.335 628.8 159.335 Q632.341 159.335 634.471 156.835 Q636.624 154.312 636.624 150.145 L636.624 149.196 L632.388 149.196 M640.883 147.437 L640.883 162.229 L636.624 162.229 L636.624 158.293 Q635.165 160.655 632.989 161.789 Q630.814 162.9 627.665 162.9 Q623.684 162.9 621.323 160.678 Q618.985 158.432 618.985 154.682 Q618.985 150.307 621.902 148.085 Q624.841 145.863 630.651 145.863 L636.624 145.863 L636.624 145.446 Q636.624 142.507 634.679 140.909 Q632.758 139.289 629.263 139.289 Q627.04 139.289 624.934 139.821 Q622.827 140.354 620.883 141.419 L620.883 137.483 Q623.221 136.581 625.42 136.141 Q627.619 135.678 629.702 135.678 Q635.327 135.678 638.105 138.594 Q640.883 141.511 640.883 147.437 Z" fill="#000000" fill-rule="nonzero" fill-opacity="1" /><path clip-path="url(#clip440)" d="M664.679 140.284 Q663.962 139.868 663.105 139.682 Q662.272 139.474 661.253 139.474 Q657.642 139.474 655.698 141.835 Q653.776 144.173 653.776 148.571 L653.776 162.229 L649.494 162.229 L649.494 136.303 L653.776 136.303 L653.776 140.331 Q655.119 137.969 657.272 136.835 Q659.424 135.678 662.503 135.678 Q662.943 135.678 663.475 135.747 Q664.008 135.794 664.656 135.909 L664.679 140.284 Z" fill="#000000" fill-rule="nonzero" fill-opacity="1" /><path clip-path="url(#clip440)" d="M685.373 140.238 L685.373 126.21 L689.633 126.21 L689.633 162.229 L685.373 162.229 L685.373 158.34 Q684.031 160.655 681.971 161.789 Q679.934 162.9 677.063 162.9 Q672.364 162.9 669.401 159.15 Q666.461 155.4 666.461 149.289 Q666.461 143.178 669.401 139.428 Q672.364 135.678 677.063 135.678 Q679.934 135.678 681.971 136.812 Q684.031 137.923 685.373 140.238 M670.86 149.289 Q670.86 153.988 672.781 156.673 Q674.725 159.335 678.105 159.335 Q681.485 159.335 683.429 156.673 Q685.373 153.988 685.373 149.289 Q685.373 144.59 683.429 141.928 Q681.485 139.243 678.105 139.243 Q674.725 139.243 672.781 141.928 Q670.86 144.59 670.86 149.289 Z" fill="#000000" fill-rule="nonzero" fill-opacity="1" /><path clip-path="url(#clip440)" d="M703.267 131.511 L703.267 158.386 L708.915 158.386 Q716.068 158.386 719.378 155.145 Q722.711 151.905 722.711 144.914 Q722.711 137.969 719.378 134.752 Q716.068 131.511 708.915 131.511 L703.267 131.511 M698.591 127.669 L708.197 127.669 Q718.244 127.669 722.943 131.858 Q727.642 136.025 727.642 144.914 Q727.642 153.849 722.92 158.039 Q718.197 162.229 708.197 162.229 L698.591 162.229 L698.591 127.669 Z" fill="#000000" fill-rule="nonzero" fill-opacity="1" /><path clip-path="url(#clip440)" d="M734.91 136.303 L739.169 136.303 L739.169 162.229 L734.91 162.229 L734.91 136.303 M734.91 126.21 L739.169 126.21 L739.169 131.604 L734.91 131.604 L734.91 126.21 Z" fill="#000000" fill-rule="nonzero" fill-opacity="1" /><path clip-path="url(#clip440)" d="M761.206 126.21 L761.206 129.752 L757.132 129.752 Q754.841 129.752 753.938 130.678 Q753.058 131.604 753.058 134.011 L753.058 136.303 L760.072 136.303 L760.072 139.613 L753.058 139.613 L753.058 162.229 L748.776 162.229 L748.776 139.613 L744.702 139.613 L744.702 136.303 L748.776 136.303 L748.776 134.497 Q748.776 130.169 750.79 128.201 Q752.804 126.21 757.179 126.21 L761.206 126.21 Z" fill="#000000" fill-rule="nonzero" fill-opacity="1" /><path clip-path="url(#clip440)" d="M777.896 126.21 L777.896 129.752 L773.822 129.752 Q771.53 129.752 770.628 130.678 Q769.748 131.604 769.748 134.011 L769.748 136.303 L776.762 136.303 L776.762 139.613 L769.748 139.613 L769.748 162.229 L765.466 162.229 L765.466 139.613 L761.392 139.613 L761.392 136.303 L765.466 136.303 L765.466 134.497 Q765.466 130.169 767.479 128.201 Q769.493 126.21 773.868 126.21 L777.896 126.21 Z" fill="#000000" fill-rule="nonzero" fill-opacity="1" /><polyline clip-path="url(#clip440)" style="stroke:#e26f46; stroke-linecap:round; stroke-linejoin:round; stroke-width:4; stroke-opacity:1; fill:none" points="344.479,196.789 484.592,196.789 "/>
<path clip-path="url(#clip440)" d="M414.536 218.411 L399.249 212.076 L392.913 196.789 L399.249 181.502 L414.536 175.166 L429.823 181.502 L436.158 196.789 L429.823 212.076 Z" fill="#e26f46" fill-rule="evenodd" fill-opacity="1" stroke="#000000" stroke-opacity="1" stroke-width="4.55111"/>
<path clip-path="url(#clip440)" d="M523.129 192.124 Q522.411 191.708 521.555 191.522 Q520.722 191.314 519.703 191.314 Q516.092 191.314 514.147 193.675 Q512.226 196.013 512.226 200.411 L512.226 214.069 L507.944 214.069 L507.944 188.143 L512.226 188.143 L512.226 192.171 Q513.569 189.809 515.722 188.675 Q517.874 187.518 520.953 187.518 Q521.393 187.518 521.925 187.587 Q522.458 187.634 523.106 187.749 L523.129 192.124 Z" fill="#000000" fill-rule="nonzero" fill-opacity="1" /><path clip-path="url(#clip440)" d="M548.731 200.041 L548.731 202.124 L529.147 202.124 Q529.425 206.522 531.786 208.837 Q534.171 211.129 538.407 211.129 Q540.86 211.129 543.152 210.527 Q545.467 209.925 547.735 208.721 L547.735 212.749 Q545.444 213.721 543.036 214.231 Q540.629 214.74 538.152 214.74 Q531.948 214.74 528.314 211.129 Q524.703 207.518 524.703 201.36 Q524.703 194.995 528.129 191.268 Q531.578 187.518 537.411 187.518 Q542.643 187.518 545.675 190.897 Q548.731 194.254 548.731 200.041 M544.471 198.791 Q544.425 195.296 542.504 193.212 Q540.606 191.129 537.458 191.129 Q533.893 191.129 531.74 193.143 Q529.61 195.157 529.286 198.814 L544.471 198.791 Z" fill="#000000" fill-rule="nonzero" fill-opacity="1" /><path clip-path="url(#clip440)" d="M553.245 188.143 L557.504 188.143 L562.828 208.374 L568.129 188.143 L573.152 188.143 L578.476 208.374 L583.777 188.143 L588.036 188.143 L581.254 214.069 L576.23 214.069 L570.652 192.819 L565.05 214.069 L560.027 214.069 L553.245 188.143 Z" fill="#000000" fill-rule="nonzero" fill-opacity="1" /><path clip-path="url(#clip440)" d="M594.494 188.143 L598.754 188.143 L598.754 214.069 L594.494 214.069 L594.494 188.143 M594.494 178.05 L598.754 178.05 L598.754 183.444 L594.494 183.444 L594.494 178.05 Z" fill="#000000" fill-rule="nonzero" fill-opacity="1" /><path clip-path="url(#clip440)" d="M629.216 198.421 L629.216 214.069 L624.957 214.069 L624.957 198.559 Q624.957 194.879 623.522 193.05 Q622.087 191.222 619.216 191.222 Q615.767 191.222 613.777 193.421 Q611.786 195.62 611.786 199.416 L611.786 214.069 L607.503 214.069 L607.503 188.143 L611.786 188.143 L611.786 192.171 Q613.314 189.833 615.374 188.675 Q617.457 187.518 620.165 187.518 Q624.633 187.518 626.925 190.296 Q629.216 193.05 629.216 198.421 Z" fill="#000000" fill-rule="nonzero" fill-opacity="1" /><path clip-path="url(#clip440)" d="M654.772 192.078 L654.772 178.05 L659.031 178.05 L659.031 214.069 L654.772 214.069 L654.772 210.18 Q653.429 212.495 651.369 213.629 Q649.332 214.74 646.462 214.74 Q641.763 214.74 638.8 210.99 Q635.86 207.24 635.86 201.129 Q635.86 195.018 638.8 191.268 Q641.763 187.518 646.462 187.518 Q649.332 187.518 651.369 188.652 Q653.429 189.763 654.772 192.078 M640.258 201.129 Q640.258 205.828 642.179 208.513 Q644.124 211.175 647.503 211.175 Q650.883 211.175 652.827 208.513 Q654.772 205.828 654.772 201.129 Q654.772 196.43 652.827 193.768 Q650.883 191.083 647.503 191.083 Q644.124 191.083 642.179 193.768 Q640.258 196.43 640.258 201.129 Z" fill="#000000" fill-rule="nonzero" fill-opacity="1" /><path clip-path="url(#clip440)" d="M684.864 200.805 Q684.864 196.175 682.943 193.629 Q681.045 191.083 677.596 191.083 Q674.17 191.083 672.248 193.629 Q670.35 196.175 670.35 200.805 Q670.35 205.411 672.248 207.958 Q674.17 210.504 677.596 210.504 Q681.045 210.504 682.943 207.958 Q684.864 205.411 684.864 200.805 M689.123 210.851 Q689.123 217.471 686.184 220.689 Q683.244 223.93 677.179 223.93 Q674.934 223.93 672.943 223.582 Q670.952 223.258 669.077 222.564 L669.077 218.42 Q670.952 219.439 672.781 219.925 Q674.61 220.411 676.508 220.411 Q680.698 220.411 682.781 218.212 Q684.864 216.036 684.864 211.615 L684.864 209.508 Q683.545 211.8 681.485 212.934 Q679.424 214.069 676.554 214.069 Q671.786 214.069 668.869 210.434 Q665.952 206.8 665.952 200.805 Q665.952 194.786 668.869 191.152 Q671.786 187.518 676.554 187.518 Q679.424 187.518 681.485 188.652 Q683.545 189.786 684.864 192.078 L684.864 188.143 L689.123 188.143 L689.123 210.851 Z" fill="#000000" fill-rule="nonzero" fill-opacity="1" /><path clip-path="url(#clip440)" d="M712.92 192.124 Q712.202 191.708 711.346 191.522 Q710.512 191.314 709.494 191.314 Q705.883 191.314 703.938 193.675 Q702.017 196.013 702.017 200.411 L702.017 214.069 L697.734 214.069 L697.734 188.143 L702.017 188.143 L702.017 192.171 Q703.359 189.809 705.512 188.675 Q707.665 187.518 710.744 187.518 Q711.183 187.518 711.716 187.587 Q712.248 187.634 712.896 187.749 L712.92 192.124 Z" fill="#000000" fill-rule="nonzero" fill-opacity="1" /><path clip-path="url(#clip440)" d="M729.169 201.036 Q724.007 201.036 722.017 202.217 Q720.026 203.397 720.026 206.245 Q720.026 208.513 721.507 209.856 Q723.012 211.175 725.582 211.175 Q729.123 211.175 731.253 208.675 Q733.406 206.152 733.406 201.985 L733.406 201.036 L729.169 201.036 M737.665 199.277 L737.665 214.069 L733.406 214.069 L733.406 210.133 Q731.947 212.495 729.771 213.629 Q727.595 214.74 724.447 214.74 Q720.466 214.74 718.105 212.518 Q715.767 210.272 715.767 206.522 Q715.767 202.147 718.683 199.925 Q721.623 197.703 727.433 197.703 L733.406 197.703 L733.406 197.286 Q733.406 194.347 731.461 192.749 Q729.54 191.129 726.045 191.129 Q723.822 191.129 721.716 191.661 Q719.609 192.194 717.665 193.259 L717.665 189.323 Q720.003 188.421 722.202 187.981 Q724.401 187.518 726.484 187.518 Q732.109 187.518 734.887 190.434 Q737.665 193.351 737.665 199.277 Z" fill="#000000" fill-rule="nonzero" fill-opacity="1" /><path clip-path="url(#clip440)" d="M763.498 192.078 L763.498 178.05 L767.757 178.05 L767.757 214.069 L763.498 214.069 L763.498 210.18 Q762.155 212.495 760.095 213.629 Q758.058 214.74 755.188 214.74 Q750.489 214.74 747.526 210.99 Q744.586 207.24 744.586 201.129 Q744.586 195.018 747.526 191.268 Q750.489 187.518 755.188 187.518 Q758.058 187.518 760.095 188.652 Q762.155 189.763 763.498 192.078 M748.984 201.129 Q748.984 205.828 750.905 208.513 Q752.85 211.175 756.23 211.175 Q759.609 211.175 761.554 208.513 Q763.498 205.828 763.498 201.129 Q763.498 196.43 761.554 193.768 Q759.609 191.083 756.23 191.083 Q752.85 191.083 750.905 193.768 Q748.984 196.43 748.984 201.129 Z" fill="#000000" fill-rule="nonzero" fill-opacity="1" /><path clip-path="url(#clip440)" d="M776.53 188.143 L780.79 188.143 L780.79 214.069 L776.53 214.069 L776.53 188.143 M776.53 178.05 L780.79 178.05 L780.79 183.444 L776.53 183.444 L776.53 178.05 Z" fill="#000000" fill-rule="nonzero" fill-opacity="1" /><path clip-path="url(#clip440)" d="M811.877 200.041 L811.877 202.124 L792.294 202.124 Q792.572 206.522 794.933 208.837 Q797.317 211.129 801.553 211.129 Q804.007 211.129 806.299 210.527 Q808.614 209.925 810.882 208.721 L810.882 212.749 Q808.59 213.721 806.183 214.231 Q803.776 214.74 801.299 214.74 Q795.095 214.74 791.461 211.129 Q787.85 207.518 787.85 201.36 Q787.85 194.995 791.276 191.268 Q794.725 187.518 800.558 187.518 Q805.789 187.518 808.822 190.897 Q811.877 194.254 811.877 200.041 M807.618 198.791 Q807.572 195.296 805.651 193.212 Q803.752 191.129 800.604 191.129 Q797.039 191.129 794.887 193.143 Q792.757 195.157 792.433 198.814 L807.618 198.791 Z" fill="#000000" fill-rule="nonzero" fill-opacity="1" /><path clip-path="url(#clip440)" d="M840.419 198.421 L840.419 214.069 L836.16 214.069 L836.16 198.559 Q836.16 194.879 834.724 193.05 Q833.289 191.222 830.419 191.222 Q826.97 191.222 824.979 193.421 Q822.988 195.62 822.988 199.416 L822.988 214.069 L818.706 214.069 L818.706 188.143 L822.988 188.143 L822.988 192.171 Q824.516 189.833 826.576 188.675 Q828.66 187.518 831.368 187.518 Q835.836 187.518 838.127 190.296 Q840.419 193.05 840.419 198.421 Z" fill="#000000" fill-rule="nonzero" fill-opacity="1" /><path clip-path="url(#clip440)" d="M853.127 180.782 L853.127 188.143 L861.9 188.143 L861.9 191.453 L853.127 191.453 L853.127 205.527 Q853.127 208.698 853.984 209.601 Q854.863 210.504 857.525 210.504 L861.9 210.504 L861.9 214.069 L857.525 214.069 Q852.595 214.069 850.72 212.24 Q848.845 210.388 848.845 205.527 L848.845 191.453 L845.72 191.453 L845.72 188.143 L848.845 188.143 L848.845 180.782 L853.127 180.782 Z" fill="#000000" fill-rule="nonzero" fill-opacity="1" /></svg>
