<?xml version="1.0" encoding="UTF-8" standalone="no"?>
<!DOCTYPE svg PUBLIC "-//W3C//DTD SVG 1.1//EN"
 "http://www.w3.org/Graphics/SVG/1.1/DTD/svg11.dtd">
<!-- Generated by graphviz version 2.43.0 (0)
 -->
<!-- Title: G Pages: 1 -->
<svg width="382pt" height="723pt"
 viewBox="0.00 0.00 381.98 722.58" xmlns="http://www.w3.org/2000/svg" xmlns:xlink="http://www.w3.org/1999/xlink">
<g id="graph0" class="graph" transform="scale(1 1) rotate(0) translate(4 718.58)">
<title>G</title>
<polygon fill="white" stroke="transparent" points="-4,4 -4,-718.58 377.98,-718.58 377.98,4 -4,4"/>
<text text-anchor="middle" x="186.99" y="-7.8" font-family="Times,serif" font-size="14.00">Pauli Propagation Graph</text>
<!-- 1 -->
<g id="node1" class="node">
<title>1</title>
<ellipse fill="none" stroke="black" cx="28.99" cy="-696.58" rx="27" ry="18"/>
<text text-anchor="middle" x="28.99" y="-693.48" font-family="Arial" font-size="12.00">Z</text>
</g>
<!-- 5 -->
<g id="node5" class="node">
<title>5</title>
<ellipse fill="none" stroke="black" cx="28.99" cy="-607.54" rx="27" ry="24.08"/>
<text text-anchor="middle" x="28.99" y="-610.94" font-family="Arial" font-size="12.00">Z</text>
<text text-anchor="middle" x="28.99" y="-597.94" font-family="Arial" font-size="12.00">(Z)</text>
</g>
<!-- 1&#45;&gt;5 -->
<g id="edge4" class="edge">
<title>1&#45;&gt;5</title>
<path fill="none" stroke="black" d="M28.99,-678.39C28.99,-667.94 28.99,-654.24 28.99,-641.75"/>
<polygon fill="black" stroke="black" points="32.49,-641.64 28.99,-631.64 25.49,-641.64 32.49,-641.64"/>
<text text-anchor="middle" x="35.99" y="-652.58" font-family="Arial" font-size="10.00">1.0</text>
</g>
<!-- 2 -->
<g id="node2" class="node">
<title>2</title>
<ellipse fill="none" stroke="black" cx="28.99" cy="-512.46" rx="28.98" ry="24.08"/>
<text text-anchor="middle" x="28.99" y="-515.86" font-family="Arial" font-size="12.00">Z</text>
<text text-anchor="middle" x="28.99" y="-502.86" font-family="Arial" font-size="12.00">(RZ)</text>
</g>
<!-- 12 -->
<g id="node12" class="node">
<title>12</title>
<ellipse fill="none" stroke="black" cx="28.99" cy="-417.37" rx="27" ry="24.08"/>
<text text-anchor="middle" x="28.99" y="-420.77" font-family="Arial" font-size="12.00">X</text>
<text text-anchor="middle" x="28.99" y="-407.77" font-family="Arial" font-size="12.00">(H)</text>
</g>
<!-- 2&#45;&gt;12 -->
<g id="edge17" class="edge">
<title>2&#45;&gt;12</title>
<path fill="none" stroke="black" d="M28.99,-487.97C28.99,-476.97 28.99,-463.68 28.99,-451.67"/>
<polygon fill="black" stroke="black" points="32.49,-451.53 28.99,-441.53 25.49,-451.53 32.49,-451.53"/>
<text text-anchor="middle" x="35.99" y="-462.42" font-family="Arial" font-size="10.00">1.0</text>
</g>
<!-- 3 -->
<g id="node3" class="node">
<title>3</title>
<ellipse fill="none" stroke="black" cx="28.99" cy="-322.29" rx="28.98" ry="24.08"/>
<text text-anchor="middle" x="28.99" y="-325.69" font-family="Arial" font-size="12.00">X</text>
<text text-anchor="middle" x="28.99" y="-312.69" font-family="Arial" font-size="12.00">(RX)</text>
</g>
<!-- 17 -->
<g id="node17" class="node">
<title>17</title>
<ellipse fill="none" stroke="black" cx="28.99" cy="-227.21" rx="27" ry="24.08"/>
<text text-anchor="middle" x="28.99" y="-230.61" font-family="Arial" font-size="12.00">X</text>
<text text-anchor="middle" x="28.99" y="-217.61" font-family="Arial" font-size="12.00">(X)</text>
</g>
<!-- 3&#45;&gt;17 -->
<g id="edge16" class="edge">
<title>3&#45;&gt;17</title>
<path fill="none" stroke="black" d="M28.99,-297.8C28.99,-286.81 28.99,-273.51 28.99,-261.5"/>
<polygon fill="black" stroke="black" points="32.49,-261.37 28.99,-251.37 25.49,-261.37 32.49,-261.37"/>
<text text-anchor="middle" x="35.99" y="-272.25" font-family="Arial" font-size="10.00">1.0</text>
</g>
<!-- 4 -->
<g id="node4" class="node">
<title>4</title>
<ellipse fill="none" stroke="black" cx="163.99" cy="-696.58" rx="27" ry="18"/>
<text text-anchor="middle" x="163.99" y="-693.48" font-family="Arial" font-size="12.00">Y</text>
</g>
<!-- 22 -->
<g id="node22" class="node">
<title>22</title>
<ellipse fill="none" stroke="black" cx="163.99" cy="-607.54" rx="27" ry="24.08"/>
<text text-anchor="middle" x="163.99" y="-610.94" font-family="Arial" font-size="12.00">Y</text>
<text text-anchor="middle" x="163.99" y="-597.94" font-family="Arial" font-size="12.00">(Z)</text>
</g>
<!-- 4&#45;&gt;22 -->
<g id="edge23" class="edge">
<title>4&#45;&gt;22</title>
<path fill="none" stroke="black" d="M163.99,-678.39C163.99,-667.94 163.99,-654.24 163.99,-641.75"/>
<polygon fill="black" stroke="black" points="167.49,-641.64 163.99,-631.64 160.49,-641.64 167.49,-641.64"/>
<text text-anchor="middle" x="172.49" y="-652.58" font-family="Arial" font-size="10.00">&#45;1.0</text>
</g>
<!-- 5&#45;&gt;2 -->
<g id="edge8" class="edge">
<title>5&#45;&gt;2</title>
<path fill="none" stroke="black" d="M28.99,-583.05C28.99,-572.06 28.99,-558.76 28.99,-546.75"/>
<polygon fill="black" stroke="black" points="32.49,-546.62 28.99,-536.62 25.49,-546.62 32.49,-546.62"/>
<text text-anchor="middle" x="31.99" y="-557.5" font-family="Arial" font-size="10.00">1</text>
</g>
<!-- 6 -->
<g id="node6" class="node">
<title>6</title>
<ellipse fill="none" stroke="black" cx="113.99" cy="-227.21" rx="28.98" ry="24.08"/>
<text text-anchor="middle" x="113.99" y="-230.61" font-family="Arial" font-size="12.00">Y</text>
<text text-anchor="middle" x="113.99" y="-217.61" font-family="Arial" font-size="12.00">(RX)</text>
</g>
<!-- 7 -->
<g id="node7" class="node">
<title>7</title>
<ellipse fill="none" stroke="black" cx="150.99" cy="-142.12" rx="48.17" ry="24.08"/>
<text text-anchor="middle" x="150.99" y="-145.52" font-family="Arial" font-size="12.00">Y</text>
<text text-anchor="middle" x="150.99" y="-132.52" font-family="Arial" font-size="12.00">(MERGE)</text>
</g>
<!-- 6&#45;&gt;7 -->
<g id="edge25" class="edge">
<title>6&#45;&gt;7</title>
<path fill="none" stroke="black" d="M123.71,-204.38C127.74,-195.34 132.48,-184.69 136.88,-174.82"/>
<polygon fill="black" stroke="black" points="140.08,-176.24 140.95,-165.68 133.68,-173.39 140.08,-176.24"/>
</g>
<!-- 26 -->
<g id="node26" class="node">
<title>26</title>
<ellipse fill="none" stroke="black" cx="150.99" cy="-47.04" rx="27" ry="24.08"/>
<text text-anchor="middle" x="150.99" y="-50.44" font-family="Arial" font-size="12.00">Y</text>
<text text-anchor="middle" x="150.99" y="-37.44" font-family="Arial" font-size="12.00">(X)</text>
</g>
<!-- 7&#45;&gt;26 -->
<g id="edge15" class="edge">
<title>7&#45;&gt;26</title>
<path fill="none" stroke="black" d="M150.99,-117.64C150.99,-106.64 150.99,-93.34 150.99,-81.33"/>
<polygon fill="black" stroke="black" points="154.49,-81.2 150.99,-71.2 147.49,-81.2 154.49,-81.2"/>
<text text-anchor="middle" x="159.49" y="-92.08" font-family="Arial" font-size="10.00">&#45;1.0</text>
</g>
<!-- 8 -->
<g id="node8" class="node">
<title>8</title>
<ellipse fill="none" stroke="black" cx="293.99" cy="-417.37" rx="48.17" ry="24.08"/>
<text text-anchor="middle" x="293.99" y="-420.77" font-family="Arial" font-size="12.00">Y</text>
<text text-anchor="middle" x="293.99" y="-407.77" font-family="Arial" font-size="12.00">(MERGE)</text>
</g>
<!-- 11 -->
<g id="node11" class="node">
<title>11</title>
<ellipse fill="none" stroke="black" cx="293.99" cy="-322.29" rx="27" ry="24.08"/>
<text text-anchor="middle" x="293.99" y="-325.69" font-family="Arial" font-size="12.00">Y</text>
<text text-anchor="middle" x="293.99" y="-312.69" font-family="Arial" font-size="12.00">(H)</text>
</g>
<!-- 8&#45;&gt;11 -->
<g id="edge20" class="edge">
<title>8&#45;&gt;11</title>
<path fill="none" stroke="black" d="M293.99,-392.89C293.99,-381.89 293.99,-368.59 293.99,-356.58"/>
<polygon fill="black" stroke="black" points="297.49,-356.45 293.99,-346.45 290.49,-356.45 297.49,-356.45"/>
<text text-anchor="middle" x="302.49" y="-367.33" font-family="Arial" font-size="10.00">&#45;1.0</text>
</g>
<!-- 9 -->
<g id="node9" class="node">
<title>9</title>
<ellipse fill="none" stroke="black" cx="298.99" cy="-142.12" rx="48.17" ry="24.08"/>
<text text-anchor="middle" x="298.99" y="-145.52" font-family="Arial" font-size="12.00">Z</text>
<text text-anchor="middle" x="298.99" y="-132.52" font-family="Arial" font-size="12.00">(MERGE)</text>
</g>
<!-- 24 -->
<g id="node24" class="node">
<title>24</title>
<ellipse fill="none" stroke="black" cx="298.99" cy="-47.04" rx="27" ry="24.08"/>
<text text-anchor="middle" x="298.99" y="-50.44" font-family="Arial" font-size="12.00">Z</text>
<text text-anchor="middle" x="298.99" y="-37.44" font-family="Arial" font-size="12.00">(X)</text>
</g>
<!-- 9&#45;&gt;24 -->
<g id="edge13" class="edge">
<title>9&#45;&gt;24</title>
<path fill="none" stroke="black" d="M298.99,-117.64C298.99,-106.64 298.99,-93.34 298.99,-81.33"/>
<polygon fill="black" stroke="black" points="302.49,-81.2 298.99,-71.2 295.49,-81.2 302.49,-81.2"/>
<text text-anchor="middle" x="307.49" y="-92.08" font-family="Arial" font-size="10.00">&#45;1.0</text>
</g>
<!-- 10 -->
<g id="node10" class="node">
<title>10</title>
<ellipse fill="none" stroke="black" cx="116.99" cy="-512.46" rx="28.98" ry="24.08"/>
<text text-anchor="middle" x="116.99" y="-515.86" font-family="Arial" font-size="12.00">X</text>
<text text-anchor="middle" x="116.99" y="-502.86" font-family="Arial" font-size="12.00">(RZ)</text>
</g>
<!-- 18 -->
<g id="node18" class="node">
<title>18</title>
<ellipse fill="none" stroke="black" cx="170.99" cy="-417.37" rx="48.17" ry="24.08"/>
<text text-anchor="middle" x="170.99" y="-420.77" font-family="Arial" font-size="12.00">X</text>
<text text-anchor="middle" x="170.99" y="-407.77" font-family="Arial" font-size="12.00">(MERGE)</text>
</g>
<!-- 10&#45;&gt;18 -->
<g id="edge21" class="edge">
<title>10&#45;&gt;18</title>
<path fill="none" stroke="black" d="M129.24,-490.34C136.22,-478.31 145.1,-463.01 152.87,-449.62"/>
<polygon fill="black" stroke="black" points="156.04,-451.12 158.03,-440.71 149.99,-447.6 156.04,-451.12"/>
</g>
<!-- 14 -->
<g id="node14" class="node">
<title>14</title>
<ellipse fill="none" stroke="black" cx="341.99" cy="-227.21" rx="28.98" ry="24.08"/>
<text text-anchor="middle" x="341.99" y="-230.61" font-family="Arial" font-size="12.00">Z</text>
<text text-anchor="middle" x="341.99" y="-217.61" font-family="Arial" font-size="12.00">(RX)</text>
</g>
<!-- 11&#45;&gt;14 -->
<g id="edge7" class="edge">
<title>11&#45;&gt;14</title>
<path fill="none" stroke="black" d="M304.88,-300.17C311.22,-287.88 319.32,-272.18 326.33,-258.58"/>
<polygon fill="black" stroke="black" points="329.5,-260.06 330.98,-249.57 323.28,-256.85 329.5,-260.06"/>
<text text-anchor="middle" x="332.99" y="-272.25" font-family="Arial" font-size="10.00">&#45;0.707</text>
</g>
<!-- 20 -->
<g id="node20" class="node">
<title>20</title>
<ellipse fill="none" stroke="black" cx="265.99" cy="-227.21" rx="28.98" ry="24.08"/>
<text text-anchor="middle" x="265.99" y="-230.61" font-family="Arial" font-size="12.00">Y</text>
<text text-anchor="middle" x="265.99" y="-217.61" font-family="Arial" font-size="12.00">(RX)</text>
</g>
<!-- 11&#45;&gt;20 -->
<g id="edge14" class="edge">
<title>11&#45;&gt;20</title>
<path fill="none" stroke="black" d="M287.21,-298.76C283.77,-287.3 279.51,-273.16 275.72,-260.55"/>
<polygon fill="black" stroke="black" points="279.04,-259.42 272.8,-250.86 272.33,-261.44 279.04,-259.42"/>
<text text-anchor="middle" x="292.49" y="-272.25" font-family="Arial" font-size="10.00">0.707</text>
</g>
<!-- 12&#45;&gt;3 -->
<g id="edge24" class="edge">
<title>12&#45;&gt;3</title>
<path fill="none" stroke="black" d="M28.99,-392.89C28.99,-381.89 28.99,-368.59 28.99,-356.58"/>
<polygon fill="black" stroke="black" points="32.49,-356.45 28.99,-346.45 25.49,-356.45 32.49,-356.45"/>
<text text-anchor="middle" x="31.99" y="-367.33" font-family="Arial" font-size="10.00">1</text>
</g>
<!-- 13 -->
<g id="node13" class="node">
<title>13</title>
<ellipse fill="none" stroke="black" cx="268.99" cy="-512.46" rx="28.98" ry="24.08"/>
<text text-anchor="middle" x="268.99" y="-515.86" font-family="Arial" font-size="12.00">X</text>
<text text-anchor="middle" x="268.99" y="-502.86" font-family="Arial" font-size="12.00">(RZ)</text>
</g>
<!-- 13&#45;&gt;18 -->
<g id="edge26" class="edge">
<title>13&#45;&gt;18</title>
<path fill="none" stroke="black" d="M250.1,-493.51C236.04,-480.16 216.6,-461.69 200.5,-446.4"/>
<polygon fill="black" stroke="black" points="202.57,-443.54 192.91,-439.19 197.75,-448.62 202.57,-443.54"/>
</g>
<!-- 14&#45;&gt;9 -->
<g id="edge1" class="edge">
<title>14&#45;&gt;9</title>
<path fill="none" stroke="black" d="M330.92,-204.81C326.15,-195.61 320.49,-184.67 315.27,-174.57"/>
<polygon fill="black" stroke="black" points="318.33,-172.88 310.63,-165.61 312.12,-176.1 318.33,-172.88"/>
</g>
<!-- 15 -->
<g id="node15" class="node">
<title>15</title>
<ellipse fill="none" stroke="black" cx="306.99" cy="-696.58" rx="27" ry="18"/>
<text text-anchor="middle" x="306.99" y="-693.48" font-family="Arial" font-size="12.00">X</text>
</g>
<!-- 23 -->
<g id="node23" class="node">
<title>23</title>
<ellipse fill="none" stroke="black" cx="306.99" cy="-607.54" rx="27" ry="24.08"/>
<text text-anchor="middle" x="306.99" y="-610.94" font-family="Arial" font-size="12.00">X</text>
<text text-anchor="middle" x="306.99" y="-597.94" font-family="Arial" font-size="12.00">(Z)</text>
</g>
<!-- 15&#45;&gt;23 -->
<g id="edge3" class="edge">
<title>15&#45;&gt;23</title>
<path fill="none" stroke="black" d="M306.99,-678.39C306.99,-667.94 306.99,-654.24 306.99,-641.75"/>
<polygon fill="black" stroke="black" points="310.49,-641.64 306.99,-631.64 303.49,-641.64 310.49,-641.64"/>
<text text-anchor="middle" x="315.49" y="-652.58" font-family="Arial" font-size="10.00">&#45;1.0</text>
</g>
<!-- 16 -->
<g id="node16" class="node">
<title>16</title>
<ellipse fill="none" stroke="black" cx="344.99" cy="-512.46" rx="28.98" ry="24.08"/>
<text text-anchor="middle" x="344.99" y="-515.86" font-family="Arial" font-size="12.00">Y</text>
<text text-anchor="middle" x="344.99" y="-502.86" font-family="Arial" font-size="12.00">(RZ)</text>
</g>
<!-- 16&#45;&gt;8 -->
<g id="edge2" class="edge">
<title>16&#45;&gt;8</title>
<path fill="none" stroke="black" d="M333.42,-490.34C326.83,-478.31 318.45,-463.01 311.11,-449.62"/>
<polygon fill="black" stroke="black" points="314.1,-447.8 306.23,-440.71 307.97,-451.16 314.1,-447.8"/>
</g>
<!-- 19 -->
<g id="node19" class="node">
<title>19</title>
<ellipse fill="none" stroke="black" cx="170.99" cy="-322.29" rx="27" ry="24.08"/>
<text text-anchor="middle" x="170.99" y="-325.69" font-family="Arial" font-size="12.00">Z</text>
<text text-anchor="middle" x="170.99" y="-312.69" font-family="Arial" font-size="12.00">(H)</text>
</g>
<!-- 18&#45;&gt;19 -->
<g id="edge18" class="edge">
<title>18&#45;&gt;19</title>
<path fill="none" stroke="black" d="M170.99,-392.89C170.99,-381.89 170.99,-368.59 170.99,-356.58"/>
<polygon fill="black" stroke="black" points="174.49,-356.45 170.99,-346.45 167.49,-356.45 174.49,-356.45"/>
<text text-anchor="middle" x="177.99" y="-367.33" font-family="Arial" font-size="10.00">1.0</text>
</g>
<!-- 19&#45;&gt;6 -->
<g id="edge9" class="edge">
<title>19&#45;&gt;6</title>
<path fill="none" stroke="black" d="M158.34,-300.63C150.65,-288.07 140.69,-271.81 132.16,-257.88"/>
<polygon fill="black" stroke="black" points="135.01,-255.83 126.8,-249.13 129.04,-259.49 135.01,-255.83"/>
<text text-anchor="middle" x="157.49" y="-272.25" font-family="Arial" font-size="10.00">0.707</text>
</g>
<!-- 21 -->
<g id="node21" class="node">
<title>21</title>
<ellipse fill="none" stroke="black" cx="189.99" cy="-227.21" rx="28.98" ry="24.08"/>
<text text-anchor="middle" x="189.99" y="-230.61" font-family="Arial" font-size="12.00">Z</text>
<text text-anchor="middle" x="189.99" y="-217.61" font-family="Arial" font-size="12.00">(RX)</text>
</g>
<!-- 19&#45;&gt;21 -->
<g id="edge27" class="edge">
<title>19&#45;&gt;21</title>
<path fill="none" stroke="black" d="M175.69,-298.28C177.99,-287.01 180.8,-273.24 183.32,-260.9"/>
<polygon fill="black" stroke="black" points="186.78,-261.45 185.35,-250.95 179.92,-260.05 186.78,-261.45"/>
<text text-anchor="middle" x="193.49" y="-272.25" font-family="Arial" font-size="10.00">0.707</text>
</g>
<!-- 20&#45;&gt;7 -->
<g id="edge19" class="edge">
<title>20&#45;&gt;7</title>
<path fill="none" stroke="black" d="M244.63,-210.78C228.11,-198.84 204.89,-182.07 185.71,-168.21"/>
<polygon fill="black" stroke="black" points="187.65,-165.29 177.49,-162.27 183.55,-170.97 187.65,-165.29"/>
</g>
<!-- 21&#45;&gt;9 -->
<g id="edge10" class="edge">
<title>21&#45;&gt;9</title>
<path fill="none" stroke="black" d="M210.75,-210.39C226.04,-198.73 247.16,-182.63 264.91,-169.1"/>
<polygon fill="black" stroke="black" points="267.48,-171.54 273.32,-162.7 263.24,-165.97 267.48,-171.54"/>
</g>
<!-- 22&#45;&gt;10 -->
<g id="edge11" class="edge">
<title>22&#45;&gt;10</title>
<path fill="none" stroke="black" d="M153.33,-585.42C147.12,-573.13 139.19,-557.43 132.33,-543.83"/>
<polygon fill="black" stroke="black" points="135.41,-542.17 127.78,-534.82 129.16,-545.32 135.41,-542.17"/>
<text text-anchor="middle" x="148.99" y="-557.5" font-family="Arial" font-size="10.00">0.5</text>
</g>
<!-- 25 -->
<g id="node25" class="node">
<title>25</title>
<ellipse fill="none" stroke="black" cx="192.99" cy="-512.46" rx="28.98" ry="24.08"/>
<text text-anchor="middle" x="192.99" y="-515.86" font-family="Arial" font-size="12.00">Y</text>
<text text-anchor="middle" x="192.99" y="-502.86" font-family="Arial" font-size="12.00">(RZ)</text>
</g>
<!-- 22&#45;&gt;25 -->
<g id="edge22" class="edge">
<title>22&#45;&gt;25</title>
<path fill="none" stroke="black" d="M171.01,-584.01C174.58,-572.55 178.99,-558.41 182.91,-545.8"/>
<polygon fill="black" stroke="black" points="186.3,-546.69 185.94,-536.11 179.62,-544.61 186.3,-546.69"/>
<text text-anchor="middle" x="191.49" y="-557.5" font-family="Arial" font-size="10.00">0.866</text>
</g>
<!-- 23&#45;&gt;13 -->
<g id="edge6" class="edge">
<title>23&#45;&gt;13</title>
<path fill="none" stroke="black" d="M297.99,-584.48C293.16,-572.66 287.13,-557.89 281.82,-544.88"/>
<polygon fill="black" stroke="black" points="284.95,-543.29 277.93,-535.36 278.47,-545.94 284.95,-543.29"/>
<text text-anchor="middle" x="301.49" y="-557.5" font-family="Arial" font-size="10.00">0.866</text>
</g>
<!-- 23&#45;&gt;16 -->
<g id="edge12" class="edge">
<title>23&#45;&gt;16</title>
<path fill="none" stroke="black" d="M316,-584.48C320.82,-572.66 326.85,-557.89 332.16,-544.88"/>
<polygon fill="black" stroke="black" points="335.51,-545.94 336.05,-535.36 329.03,-543.29 335.51,-545.94"/>
<text text-anchor="middle" x="335.49" y="-557.5" font-family="Arial" font-size="10.00">&#45;0.5</text>
</g>
<!-- 25&#45;&gt;8 -->
<g id="edge5" class="edge">
<title>25&#45;&gt;8</title>
<path fill="none" stroke="black" d="M211.99,-493.95C226.66,-480.43 247.23,-461.47 264.1,-445.93"/>
<polygon fill="black" stroke="black" points="266.57,-448.41 271.55,-439.05 261.83,-443.26 266.57,-448.41"/>
</g>
</g>
</svg>
